<svg width="25" height="26" viewBox="0 0 21 22" fill="none" xmlns="http://www.w3.org/2000/svg">
<path d="M2.03846 16C2.88813 16 3.57692 14.6569 3.57692 13C3.57692 11.3431 2.88813 10 2.03846 10C1.18879 10 0.5 11.3431 0.5 13C0.5 14.6569 1.18879 16 2.03846 16Z" stroke="#054652" stroke-linecap="round" stroke-linejoin="round"/>
<path d="M6.65385 7C7.50352 7 8.19231 5.65685 8.19231 4C8.19231 2.34315 7.50352 1 6.65385 1C5.80418 1 5.11539 2.34315 5.11539 4C5.11539 5.65685 5.80418 7 6.65385 7Z" fill="#D9D9D9" stroke="#054652" stroke-linecap="round" stroke-linejoin="round"/>
<path d="M14.3462 7C15.1958 7 15.8846 5.65685 15.8846 4C15.8846 2.34315 15.1958 1 14.3462 1C13.4965 1 12.8077 2.34315 12.8077 4C12.8077 5.65685 13.4965 7 14.3462 7Z" stroke="#054652" stroke-linecap="round" stroke-linejoin="round"/>
<path d="M18.9615 16C19.8112 16 20.5 14.6569 20.5 13C20.5 11.3431 19.8112 10 18.9615 10C18.1119 10 17.4231 11.3431 17.4231 13C17.4231 14.6569 18.1119 16 18.9615 16Z" fill="#D9D9D9" stroke="#054652" stroke-linecap="round" stroke-linejoin="round"/>
<path d="M15.1154 17C15.1154 19.76 12.6231 21 10.5 21C8.37692 21 5.88461 19.76 5.88461 17C5.88461 14.24 7.42307 10 10.5 10C13.5769 10 15.1154 14.24 15.1154 17Z" stroke="#054652" stroke-linecap="round" stroke-linejoin="round"/>
</svg>
