<svg width="25" height="25" viewBox="0 0 20 20" fill="none" xmlns="http://www.w3.org/2000/svg">
<path fill-rule="evenodd" clip-rule="evenodd" d="M5.74589 1H4.30942V6.6075C4.30954 6.94422 4.13218 7.26926 3.81096 7.521C2.28154 8.7187 1.43663 10.2655 1.43647 11.868V18.7285C1.43647 18.8785 1.611 19 1.82647 19H8.22883C8.4443 19 8.61883 18.8785 8.61883 18.7285V11.868C8.61883 10.2655 7.77419 8.7185 6.24506 7.521C5.92358 7.26933 5.74596 6.94428 5.74589 6.6075V1ZM5.74589 0C6.12686 0 6.49224 0.105357 6.76163 0.292893C7.03102 0.48043 7.18236 0.734784 7.18236 1V6.6075C7.18236 6.6995 7.23048 6.7875 7.31882 6.8565C9.08178 8.23735 10.0555 10.0206 10.0553 11.868V18.7285C10.0553 19.0657 9.86287 19.3891 9.52034 19.6276C9.17781 19.866 8.71324 20 8.22883 20H1.82647C1.58662 20 1.34911 19.9671 1.12751 19.9032C0.905914 19.8393 0.704566 19.7457 0.534962 19.6276C0.365358 19.5095 0.230821 19.3693 0.139032 19.2151C0.0472429 19.0608 0 18.8955 0 18.7285V11.868C8.04548e-05 10.0206 0.973761 8.23745 2.73648 6.8565C2.82423 6.78793 2.87279 6.69933 2.87294 6.6075V1C2.87294 0.734784 3.02429 0.48043 3.29368 0.292893C3.56307 0.105357 3.92844 0 4.30942 0H5.74589Z" fill="#054652"/>
<path fill-rule="evenodd" clip-rule="evenodd" d="M15.083 19.5V13.5H16.5194V19.5H15.083Z" fill="#054652"/>
<path fill-rule="evenodd" clip-rule="evenodd" d="M8.61883 13H1.43647V16H8.61883V13ZM0 12V17H10.0553V12H0ZM13.6458 7L13.0547 10.874C13.0133 11.1423 13.0534 11.4137 13.1726 11.6705C13.2917 11.9273 13.4872 12.1637 13.7463 12.3645C14.0053 12.5652 14.3222 12.7258 14.6762 12.8357C15.0302 12.9456 15.4135 13.0024 15.8012 13.0024C16.1888 13.0024 16.5721 12.9456 16.9262 12.8357C17.2802 12.7258 17.5971 12.5652 17.8561 12.3645C18.1152 12.1637 18.3106 11.9273 18.4298 11.6705C18.5489 11.4137 18.5891 11.1423 18.5477 10.874L17.9566 7H13.6458ZM19.2487 6H12.3537L11.6261 10.768C11.5636 11.1757 11.625 11.588 11.8064 11.9781C11.9877 12.3682 12.2849 12.7274 12.6786 13.0323C13.0724 13.3372 13.5539 13.581 14.0919 13.748C14.6298 13.9149 15.2122 14.0011 15.8012 14.0011C16.3902 14.0011 16.9726 13.9149 17.5105 13.748C18.0485 13.581 18.53 13.3372 18.9237 13.0323C19.3175 12.7274 19.6147 12.3682 19.796 11.9781C19.9774 11.588 20.0388 11.1757 19.9763 10.768L19.2487 6Z" fill="#054652"/>
<path fill-rule="evenodd" clip-rule="evenodd" d="M12.21 19.5C12.21 19.3674 12.2857 19.2402 12.4204 19.1464C12.5551 19.0527 12.7378 19 12.9282 19H18.6741C18.8646 19 19.0473 19.0527 19.182 19.1464C19.3167 19.2402 19.3924 19.3674 19.3924 19.5C19.3924 19.6326 19.3167 19.7598 19.182 19.8536C19.0473 19.9473 18.8646 20 18.6741 20H12.9282C12.7378 20 12.5551 19.9473 12.4204 19.8536C12.2857 19.7598 12.21 19.6326 12.21 19.5ZM19.0332 11H12.5691V10H19.0332V11Z" fill="#054652"/>
</svg>
