<svg width="20" height="15" viewBox="0 0 20 15" fill="none" xmlns="http://www.w3.org/2000/svg">
<path d="M10 10.625C10.2361 10.625 10.4342 10.565 10.5942 10.445C10.7542 10.325 10.8339 10.1767 10.8333 10C10.8333 9.82292 10.7533 9.67438 10.5933 9.55438C10.4333 9.43438 10.2356 9.37458 10 9.375C9.76389 9.375 9.56583 9.435 9.40583 9.555C9.24583 9.675 9.16611 9.82333 9.16667 10C9.16667 10.1771 9.24667 10.3256 9.40667 10.4456C9.56667 10.5656 9.76444 10.6254 10 10.625ZM10 8.125C10.2361 8.125 10.4342 8.065 10.5942 7.945C10.7542 7.825 10.8339 7.67667 10.8333 7.5C10.8333 7.32292 10.7533 7.17438 10.5933 7.05438C10.4333 6.93438 10.2356 6.87458 10 6.875C9.76389 6.875 9.56583 6.935 9.40583 7.055C9.24583 7.175 9.16611 7.32333 9.16667 7.5C9.16667 7.67708 9.24667 7.82563 9.40667 7.94563C9.56667 8.06563 9.76444 8.12542 10 8.125ZM10 5.625C10.2361 5.625 10.4342 5.565 10.5942 5.445C10.7542 5.325 10.8339 5.17667 10.8333 5C10.8333 4.82292 10.7533 4.67438 10.5933 4.55438C10.4333 4.43438 10.2356 4.37458 10 4.375C9.76389 4.375 9.56583 4.435 9.40583 4.555C9.24583 4.675 9.16611 4.82333 9.16667 5C9.16667 5.17708 9.24667 5.32563 9.40667 5.44563C9.56667 5.56563 9.76444 5.62542 10 5.625ZM16.6667 12.5H3.33333C2.875 12.5 2.4825 12.3775 2.15583 12.1325C1.82917 11.8875 1.66611 11.5933 1.66667 11.25V8.75C2.125 8.75 2.5175 8.6275 2.84417 8.3825C3.17083 8.1375 3.33389 7.84333 3.33333 7.5C3.33333 7.15625 3.17 6.86188 2.84333 6.61688C2.51667 6.37188 2.12444 6.24958 1.66667 6.25V3.75C1.66667 3.40625 1.83 3.11188 2.15667 2.86688C2.48333 2.62188 2.87555 2.49958 3.33333 2.5H16.6667C17.125 2.5 17.5175 2.6225 17.8442 2.8675C18.1708 3.1125 18.3339 3.40667 18.3333 3.75V6.25C17.875 6.25 17.4825 6.3725 17.1558 6.6175C16.8292 6.8625 16.6661 7.15667 16.6667 7.5C16.6667 7.84375 16.83 8.13813 17.1567 8.38313C17.4833 8.62813 17.8756 8.75042 18.3333 8.75V11.25C18.3333 11.5938 18.17 11.8881 17.8433 12.1331C17.5167 12.3781 17.1244 12.5004 16.6667 12.5ZM16.6667 11.25V9.65625C16.1528 9.42708 15.7464 9.1225 15.4475 8.7425C15.1486 8.3625 14.9994 7.94833 15 7.5C15 7.05208 15.1492 6.63792 15.4475 6.2575C15.7458 5.87708 16.1522 5.5725 16.6667 5.34375V3.75H3.33333V5.34375C3.84722 5.57292 4.25361 5.87771 4.5525 6.25813C4.85139 6.63854 5.00055 7.0525 5 7.5C5 7.94792 4.85083 8.36208 4.5525 8.7425C4.25417 9.12292 3.84778 9.4275 3.33333 9.65625V11.25H16.6667Z" fill="white"/>
</svg>
