<svg xmlns="http://www.w3.org/2000/svg" viewBox="0 0 425 425" xml:space="preserve"><linearGradient id="a" gradientUnits="userSpaceOnUse" x1="-724.271" y1="715.318" x2="1283.735" y2="-376.683"><stop offset="0" style="stop-color:#00c9ff"/><stop offset="1" style="stop-color:#3b72de"/></linearGradient><path fill="url(#a)" d="M283.378 121.873c-18.933-18.932-44.104-29.358-70.878-29.358-.002 0 .002 0 0 0-26.773 0-51.947 10.427-70.878 29.358-18.933 18.932-29.359 44.105-29.359 70.878 0 26.773 10.427 51.946 29.359 70.878l3.563 3.562a4.879 4.879 0 0 0 6.902 0 4.882 4.882 0 0 0 0-6.902l-3.564-3.562c-35.274-35.276-35.274-92.675 0-127.95 35.276-35.276 92.675-35.276 127.951 0 35.276 35.275 35.276 92.674 0 127.95L212.5 320.701l-24.586-24.586a4.884 4.884 0 0 0-6.902 0 4.883 4.883 0 0 0 0 6.903l28.037 28.037c.952.953 2.202 1.43 3.451 1.43s2.499-.477 3.451-1.43l67.429-67.427c18.931-18.932 29.357-44.104 29.357-70.878 0-26.772-10.427-51.944-29.359-70.877z"/><linearGradient id="b" gradientUnits="userSpaceOnUse" x1="-702.955" y1="754.514" x2="1305.051" y2="-337.488"><stop offset="0" style="stop-color:#00c9ff"/><stop offset="1" style="stop-color:#3b72de"/></linearGradient><path fill="url(#b)" d="M163.119 271.32a4.882 4.882 0 0 0-6.903 6.902l13.769 13.768a4.858 4.858 0 0 0 3.451 1.43 4.882 4.882 0 0 0 3.451-8.332l-13.768-13.768z"/><linearGradient id="c" gradientUnits="userSpaceOnUse" x1="-734.355" y1="696.783" x2="1273.656" y2="-395.221"><stop offset="0" style="stop-color:#00c9ff"/><stop offset="1" style="stop-color:#3b72de"/></linearGradient><path fill="url(#c)" d="M234.774 170.477a31.572 31.572 0 0 1 5.299 7.021 4.883 4.883 0 0 0 6.636 1.905 4.882 4.882 0 0 0 1.904-6.635 41.297 41.297 0 0 0-6.936-9.193 41.295 41.295 0 0 0-8.394-6.48 4.882 4.882 0 0 0-4.922 8.431 31.446 31.446 0 0 1 6.413 4.951z"/><linearGradient id="d" gradientUnits="userSpaceOnUse" x1="-729.773" y1="705.182" x2="1278.22" y2="-386.813"><stop offset="0" style="stop-color:#00c9ff"/><stop offset="1" style="stop-color:#3b72de"/></linearGradient><path fill="url(#d)" d="M215.178 161.363a4.882 4.882 0 0 0 .824-9.727 41.219 41.219 0 0 0-32.68 11.938c-7.794 7.793-12.086 18.155-12.086 29.178 0 11.022 4.292 21.384 12.086 29.177 8.047 8.046 18.61 12.067 29.178 12.066 10.565-.001 21.135-4.022 29.178-12.066a41.298 41.298 0 0 0 12.007-31.735 4.876 4.876 0 0 0-5.172-4.571 4.88 4.88 0 0 0-4.57 5.173 31.522 31.522 0 0 1-9.168 24.231c-12.281 12.282-32.267 12.282-44.549 0-5.95-5.949-9.228-13.86-9.228-22.274 0-8.415 3.277-16.325 9.228-22.275a31.45 31.45 0 0 1 24.952-9.115z"/></svg>
