<svg width="26" height="26" viewBox="0 0 23 23" fill="none" xmlns="http://www.w3.org/2000/svg">
<path fill-rule="evenodd" clip-rule="evenodd" d="M8.74589 1H7.30942V6.6075C7.30954 6.94422 7.13218 7.26926 6.81096 7.521C5.28154 8.7187 4.43663 10.2655 4.43647 11.868V18.7285C4.43647 18.8785 4.611 19 4.82647 19H11.2288C11.4443 19 11.6188 18.8785 11.6188 18.7285V11.868C11.6188 10.2655 10.7742 8.7185 9.24506 7.521C8.92358 7.26933 8.74596 6.94428 8.74589 6.6075V1ZM8.74589 0C9.12686 0 9.49224 0.105357 9.76163 0.292893C10.031 0.48043 10.1824 0.734784 10.1824 1V6.6075C10.1824 6.6995 10.2305 6.7875 10.3188 6.8565C12.0818 8.23735 13.0555 10.0206 13.0553 11.868V18.7285C13.0553 19.0657 12.8629 19.3891 12.5203 19.6276C12.1778 19.866 11.7132 20 11.2288 20H4.82647C4.58662 20 4.34911 19.9671 4.12751 19.9032C3.90591 19.8393 3.70457 19.7457 3.53496 19.6276C3.36536 19.5095 3.23082 19.3693 3.13903 19.2151C3.04724 19.0608 3 18.8955 3 18.7285V11.868C3.00008 10.0206 3.97376 8.23745 5.73648 6.8565C5.82423 6.78793 5.87279 6.69933 5.87294 6.6075V1C5.87294 0.734784 6.02429 0.48043 6.29368 0.292893C6.56307 0.105357 6.92844 0 7.30942 0H8.74589Z" fill="#054652"/>
<path fill-rule="evenodd" clip-rule="evenodd" d="M18.083 19.5V13.5H19.5194V19.5H18.083Z" fill="#054652"/>
<path fill-rule="evenodd" clip-rule="evenodd" d="M11.6188 13H4.43647V16H11.6188V13ZM3 12V17H13.0553V12H3ZM16.6458 7L16.0547 10.874C16.0133 11.1423 16.0534 11.4137 16.1726 11.6705C16.2917 11.9273 16.4872 12.1637 16.7463 12.3645C17.0053 12.5652 17.3222 12.7258 17.6762 12.8357C18.0302 12.9456 18.4135 13.0024 18.8012 13.0024C19.1888 13.0024 19.5721 12.9456 19.9262 12.8357C20.2802 12.7258 20.5971 12.5652 20.8561 12.3645C21.1152 12.1637 21.3106 11.9273 21.4298 11.6705C21.5489 11.4137 21.5891 11.1423 21.5477 10.874L20.9566 7H16.6458ZM22.2487 6H15.3537L14.6261 10.768C14.5636 11.1757 14.625 11.588 14.8064 11.9781C14.9877 12.3682 15.2849 12.7274 15.6786 13.0323C16.0724 13.3372 16.5539 13.581 17.0919 13.748C17.6298 13.9149 18.2122 14.0011 18.8012 14.0011C19.3902 14.0011 19.9726 13.9149 20.5105 13.748C21.0485 13.581 21.53 13.3372 21.9237 13.0323C22.3175 12.7274 22.6147 12.3682 22.796 11.9781C22.9774 11.588 23.0388 11.1757 22.9763 10.768L22.2487 6Z" fill="#054652"/>
<path fill-rule="evenodd" clip-rule="evenodd" d="M15.21 19.5C15.21 19.3674 15.2857 19.2402 15.4204 19.1464C15.5551 19.0527 15.7378 19 15.9282 19H21.6741C21.8646 19 22.0473 19.0527 22.182 19.1464C22.3167 19.2402 22.3924 19.3674 22.3924 19.5C22.3924 19.6326 22.3167 19.7598 22.182 19.8536C22.0473 19.9473 21.8646 20 21.6741 20H15.9282C15.7378 20 15.5551 19.9473 15.4204 19.8536C15.2857 19.7598 15.21 19.6326 15.21 19.5ZM22.0332 11H15.5691V10H22.0332V11Z" fill="#054652"/>
<line x1="16.7335" y1="22.2218" x2="1.21596" y2="2.6207" stroke="#054652" stroke-width="2"/>
</svg>
