<svg width="26" height="30" viewBox="0 0 22 26" fill="none" xmlns="http://www.w3.org/2000/svg">
<path d="M2.53846 16C3.38813 16 4.07692 14.6569 4.07692 13C4.07692 11.3431 3.38813 10 2.53846 10C1.68879 10 1 11.3431 1 13C1 14.6569 1.68879 16 2.53846 16Z" stroke="#054652" stroke-linecap="round" stroke-linejoin="round"/>
<path d="M7.15385 7C8.00352 7 8.69231 5.65685 8.69231 4C8.69231 2.34315 8.00352 1 7.15385 1C6.30418 1 5.61539 2.34315 5.61539 4C5.61539 5.65685 6.30418 7 7.15385 7Z" fill="#D9D9D9" stroke="#054652" stroke-linecap="round" stroke-linejoin="round"/>
<path d="M14.8462 7C15.6958 7 16.3846 5.65685 16.3846 4C16.3846 2.34315 15.6958 1 14.8462 1C13.9965 1 13.3077 2.34315 13.3077 4C13.3077 5.65685 13.9965 7 14.8462 7Z" stroke="#054652" stroke-linecap="round" stroke-linejoin="round"/>
<path d="M19.4615 16C20.3112 16 21 14.6569 21 13C21 11.3431 20.3112 10 19.4615 10C18.6119 10 17.9231 11.3431 17.9231 13C17.9231 14.6569 18.6119 16 19.4615 16Z" fill="#D9D9D9" stroke="#054652" stroke-linecap="round" stroke-linejoin="round"/>
<path d="M15.6154 17C15.6154 19.76 13.1231 21 11 21C8.87692 21 6.38461 19.76 6.38461 17C6.38461 14.24 7.92307 10 11 10C14.0769 10 15.6154 14.24 15.6154 17Z" stroke="#054652" stroke-linecap="round" stroke-linejoin="round"/>
<line x1="17.716" y1="24.6207" x2="2.19838" y2="5.01956" stroke="#054652" stroke-width="2"/>
</svg>
