<svg width="25" height="32" viewBox="0 0 20 28" fill="none" xmlns="http://www.w3.org/2000/svg">
<path d="M0 20V16.4706H15V20H0ZM16 20V16.4706H17.5V20H16ZM18.5 20V16.4706H20V20H18.5ZM16 15.2941V13.7647C16 13 15.8083 12.4165 15.425 12.0141C15.0417 11.6118 14.5833 11.411 14.05 11.4118H12.5C11.5667 11.4118 10.775 11.0294 10.125 10.2647C9.475 9.5 9.15 8.56863 9.15 7.47059C9.15 6.37255 9.475 5.44118 10.125 4.67647C10.775 3.91176 11.5667 3.52941 12.5 3.52941V5.29412C12 5.29412 11.5667 5.5 11.2 5.91177C10.8333 6.32353 10.65 6.84314 10.65 7.47059C10.65 8.09804 10.8333 8.61765 11.2 9.02941C11.5667 9.44118 12 9.64706 12.5 9.64706H14.05C14.9833 9.64706 15.7917 10 16.475 10.7059C17.1583 11.4118 17.5 12.2941 17.5 13.3529V15.2941H16ZM18.5 15.2941V12.6471C18.5 11.3529 18.1167 10.2353 17.35 9.29412C16.5833 8.35294 15.6333 7.88235 14.5 7.88235V6.11765C15 6.11765 15.4333 5.90196 15.8 5.47059C16.1667 5.03922 16.35 4.52941 16.35 3.94118C16.35 3.35294 16.1667 2.84314 15.8 2.41177C15.4333 1.98039 15 1.76471 14.5 1.76471V0C15.4333 0 16.225 0.382353 16.875 1.14706C17.525 1.91176 17.85 2.84314 17.85 3.94118C17.85 4.5098 17.7583 5.02471 17.575 5.48588C17.3917 5.94706 17.15 6.37333 16.85 6.76471C17.7833 7.27451 18.5417 8.05882 19.125 9.11765C19.7083 10.1765 20 11.3529 20 12.6471V15.2941H18.5Z" fill="#054652"/>
<line x1="17.2318" y1="26.6402" x2="1.22717" y2="7.43465" stroke="#054652" stroke-width="2"/>
</svg>
