<svg width="184" height="256" viewBox="0 0 184 256" fill="none" xmlns="http://www.w3.org/2000/svg">
<path d="M1.39 17.0608C0.957853 17.4328 0.610256 17.893 0.370522 18.4104C0.130787 18.9278 0.00445654 19.4905 0 20.0608V188.001C0 189.062 0.421428 190.079 1.17157 190.829C1.92172 191.579 2.93913 192.001 4 192.001C5.06087 192.001 6.07828 191.579 6.82843 190.829C7.57857 190.079 8 189.062 8 188.001V141.871C37.41 117.481 63.08 130.181 90.23 143.601C106.73 151.771 123.56 160.101 141.36 160.101C154.5 160.101 168.17 155.551 182.62 143.041C183.05 142.668 183.396 142.207 183.634 141.69C183.872 141.172 183.997 140.61 184 140.041V20.0408C183.996 19.2758 183.772 18.5281 183.356 17.8863C182.94 17.2446 182.348 16.7356 181.651 16.4199C180.954 16.1041 180.182 15.9948 179.425 16.1048C178.668 16.2149 177.958 16.5397 177.38 17.0408C147.38 43.0408 121.38 30.1108 93.77 16.4708C65.07 2.28076 35.4 -12.3792 1.39 17.0608ZM176 138.171C146.59 162.571 120.92 149.871 93.77 136.441C66.95 123.171 39.27 109.441 8 131.781V21.9208C37.41 -2.47925 63.08 10.2208 90.23 23.6508C117.05 36.9208 144.73 50.6508 176 28.3108V138.171Z" fill="#29BCEB"/>
<path d="M4 172L4 252" stroke="#29BCEB" stroke-width="8" stroke-linecap="round"/>
</svg>
