<svg width="22" height="20" viewBox="0 0 22 20" fill="none" xmlns="http://www.w3.org/2000/svg">
<path d="M1 17V16C1 14.1435 1.7375 12.363 3.05025 11.0503C4.36301 9.7375 6.14348 9 8 9" stroke="#00AFF5" stroke-width="1.5" stroke-linecap="round" stroke-linejoin="round"/>
<path d="M14.804 9.31294C14.9556 9.14652 15.1403 9.01358 15.3463 8.92262C15.5522 8.83165 15.7749 8.78467 16 8.78467C16.2251 8.78467 16.4478 8.83165 16.6537 8.92262C16.8597 9.01358 17.0444 9.14652 17.196 9.31294C17.521 9.66994 17.986 9.86294 18.468 9.83994C18.693 9.82939 18.9177 9.86594 19.1278 9.94723C19.3378 10.0285 19.5286 10.1528 19.6879 10.3121C19.8471 10.4713 19.9714 10.6621 20.0527 10.8722C20.134 11.0822 20.1705 11.3069 20.16 11.5319C20.137 12.0129 20.33 12.4789 20.686 12.8039C21.391 13.4459 21.391 14.5539 20.686 15.1959C20.33 15.5209 20.137 15.9859 20.16 16.4679C20.1705 16.6929 20.134 16.9177 20.0527 17.1277C19.9714 17.3378 19.8471 17.5285 19.6879 17.6878C19.5286 17.8471 19.3378 17.9713 19.1278 18.0526C18.9177 18.1339 18.693 18.1705 18.468 18.1599C18.2303 18.1487 17.9931 18.19 17.7733 18.2809C17.5534 18.3719 17.3563 18.5101 17.196 18.6859C17.0444 18.8524 16.8597 18.9853 16.6537 19.0763C16.4478 19.1672 16.2251 19.2142 16 19.2142C15.7749 19.2142 15.5522 19.1672 15.3463 19.0763C15.1403 18.9853 14.9556 18.8524 14.804 18.6859C14.6437 18.5101 14.4466 18.3719 14.2267 18.2809C14.0069 18.19 13.7697 18.1487 13.532 18.1599C13.307 18.1705 13.0823 18.1339 12.8722 18.0526C12.6622 17.9713 12.4714 17.8471 12.3121 17.6878C12.1529 17.5285 12.0286 17.3378 11.9473 17.1277C11.866 16.9177 11.8295 16.6929 11.84 16.4679C11.8511 16.2302 11.8096 15.993 11.7186 15.7731C11.6275 15.5532 11.489 15.3562 11.313 15.1959C11.1466 15.0443 11.0136 14.8596 10.9227 14.6537C10.8317 14.4477 10.7847 14.2251 10.7847 13.9999C10.7847 13.7748 10.8317 13.5521 10.9227 13.3462C11.0136 13.1403 11.1466 12.9556 11.313 12.8039C11.67 12.4789 11.863 12.0139 11.84 11.5319C11.8295 11.3069 11.866 11.0822 11.9473 10.8722C12.0286 10.6621 12.1529 10.4713 12.3121 10.3121C12.4714 10.1528 12.6622 10.0285 12.8722 9.94723C13.0823 9.86594 13.307 9.82939 13.532 9.83994C14.013 9.86294 14.479 9.66994 14.804 9.31294Z" stroke="#00AFF5" stroke-width="1.5"/>
<path d="M14.364 14L15.454 15.09L17.636 12.91M8 9C9.06087 9 10.0783 8.57857 10.8284 7.82843C11.5786 7.07828 12 6.06087 12 5C12 3.93913 11.5786 2.92172 10.8284 2.17157C10.0783 1.42143 9.06087 1 8 1C6.93913 1 5.92172 1.42143 5.17157 2.17157C4.42143 2.92172 4 3.93913 4 5C4 6.06087 4.42143 7.07828 5.17157 7.82843C5.92172 8.57857 6.93913 9 8 9Z" stroke="#00AFF5" stroke-width="1.5" stroke-linecap="round" stroke-linejoin="round"/>
</svg>
