<svg width="48" height="48" viewBox="0 0 48 48" fill="none" xmlns="http://www.w3.org/2000/svg">
<path d="M42.4572 39.3083C44.9209 36.3465 46.6344 32.8354 47.4528 29.0719C48.2712 25.3085 48.1703 21.4035 47.1589 17.6873C46.1474 13.971 44.255 10.5529 41.6417 7.72192C39.0285 4.89099 35.7713 2.73059 32.1457 1.42346C28.5201 0.116338 24.6328 -0.299049 20.8125 0.212439C16.9923 0.723928 13.3515 2.14724 10.1982 4.36199C7.04495 6.57673 4.47191 9.51773 2.69677 12.9362C0.921637 16.3547 -0.00336685 20.1501 9.20826e-06 24.0013C0.00130472 29.5999 1.97584 35.0192 5.57714 39.3083L5.54283 39.3374C5.66291 39.4814 5.80015 39.6048 5.92367 39.7471C6.07806 39.9236 6.24447 40.0899 6.40401 40.2613C6.88435 40.7824 7.37842 41.2829 7.89651 41.7526C8.05433 41.8966 8.21731 42.0303 8.37685 42.1674C8.92581 42.6405 9.49022 43.0896 10.0752 43.5078C10.1507 43.5592 10.2193 43.6261 10.2948 43.6792V43.6587C14.3127 46.4838 19.1058 48 24.0189 48C28.9319 48 33.7251 46.4838 37.743 43.6587V43.6792C37.8184 43.6261 37.8854 43.5592 37.9626 43.5078C38.5458 43.0879 39.1119 42.6405 39.6609 42.1674C39.8204 42.0303 39.9834 41.8948 40.1413 41.7526C40.6593 41.2812 41.1534 40.7824 41.6337 40.2613C41.7933 40.0899 41.958 39.9236 42.1141 39.7471C42.2359 39.6048 42.3748 39.4814 42.4949 39.3357L42.4572 39.3083ZM24.0172 10.2885C25.544 10.2885 27.0365 10.7409 28.3061 11.5884C29.5756 12.436 30.565 13.6407 31.1493 15.0501C31.7336 16.4596 31.8865 18.0105 31.5886 19.5068C31.2908 21.003 30.5555 22.3775 29.4759 23.4562C28.3963 24.5349 27.0207 25.2696 25.5232 25.5672C24.0257 25.8648 22.4735 25.7121 21.0629 25.1283C19.6523 24.5445 18.4466 23.5558 17.5984 22.2873C16.7501 21.0189 16.2974 19.5275 16.2974 18.002C16.2974 15.9562 17.1107 13.9943 18.5584 12.5477C20.0062 11.1012 21.9697 10.2885 24.0172 10.2885ZM10.3051 39.3083C10.3348 37.0576 11.2502 34.9091 12.8532 33.3276C14.4562 31.7462 16.6179 30.8589 18.8706 30.8577H29.1637C31.4164 30.8589 33.5781 31.7462 35.1811 33.3276C36.7841 34.9091 37.6995 37.0576 37.7292 39.3083C33.9669 42.6959 29.0818 44.5707 24.0172 44.5707C18.9525 44.5707 14.0675 42.6959 10.3051 39.3083Z" fill="#DDDDDD"/>
</svg>
