<svg width="20" height="20" viewBox="0 0 20 20" fill="none" xmlns="http://www.w3.org/2000/svg">
<circle cx="10" cy="10" r="10" fill="#5CD166"/>
<path d="M11.7512 3.5C11.7512 3.89782 11.5931 4.27936 11.3118 4.56066C11.0305 4.84196 10.649 5 10.2512 5C9.85333 5 9.4718 4.84196 9.1905 4.56066C8.90919 4.27936 8.75116 3.89782 8.75116 3.5C8.75116 3.10218 8.90919 2.72064 9.1905 2.43934C9.4718 2.15804 9.85333 2 10.2512 2C10.649 2 11.0305 2.15804 11.3118 2.43934C11.5931 2.72064 11.7512 3.10218 11.7512 3.5ZM8.69116 5.752C8.76143 5.67286 8.84766 5.60949 8.94418 5.56606C9.0407 5.52263 9.14532 5.50011 9.25116 5.5H10.6962C11.4382 5.5 12.0162 6.143 11.9392 6.88L11.5092 10.963C11.4952 11.0976 11.4657 11.2302 11.4212 11.358L11.1032 12.264L11.3162 12.506C11.3621 12.5587 11.4005 12.6176 11.4302 12.681L13.4302 16.931C13.4751 17.0205 13.5016 17.118 13.5083 17.218C13.5149 17.3179 13.5014 17.4181 13.4687 17.5127C13.436 17.6073 13.3847 17.6944 13.3177 17.7689C13.2508 17.8434 13.1696 17.9037 13.079 17.9463C12.9884 17.9889 12.8902 18.0129 12.7901 18.017C12.6901 18.021 12.5903 18.005 12.4965 17.9698C12.4028 17.9346 12.317 17.881 12.2443 17.8122C12.1716 17.7434 12.1134 17.6607 12.0732 17.569L10.1172 13.415L8.43716 11.494C8.30786 11.3471 8.24111 11.1555 8.25116 10.96L8.38916 8.347L7.95416 8.836L7.49016 11.622C7.45753 11.8183 7.34828 11.9935 7.18644 12.1092C7.0246 12.2249 6.82342 12.2716 6.62716 12.239C6.4309 12.2064 6.25563 12.0971 6.13992 11.9353C6.02421 11.7734 5.97753 11.5723 6.01016 11.376L6.51016 8.376C6.5336 8.23653 6.596 8.10653 6.69016 8.001L8.69016 5.751L8.69116 5.752Z" fill="white"/>
<path d="M8.50115 13.745V12.327L9.70515 13.702L9.96615 14.226C9.93992 14.3094 9.89931 14.3876 9.84615 14.457L7.34615 17.707C7.22495 17.8648 7.04602 17.968 6.84873 17.9939C6.65145 18.0197 6.45196 17.9662 6.29415 17.845C6.13635 17.7238 6.03316 17.5448 6.00728 17.3476C5.9814 17.1503 6.03495 16.9508 6.15615 16.793L8.50115 13.745ZM12.7212 9.52998L12.2272 9.03598L12.4322 7.19298C12.4345 7.17068 12.4365 7.14834 12.4382 7.12598L13.5622 8.24998H15.0022C15.2011 8.24998 15.3918 8.32899 15.5325 8.46965C15.6731 8.6103 15.7522 8.80106 15.7522 8.99998C15.7522 9.19889 15.6731 9.38965 15.5325 9.53031C15.3918 9.67096 15.2011 9.74998 15.0022 9.74998H13.2512C13.1525 9.75002 13.0549 9.73061 12.9637 9.69286C12.8726 9.65511 12.7898 9.59976 12.7202 9.52998H12.7212Z" fill="white"/>
</svg>
