<svg width="31" height="31" viewBox="0 0 31 31" fill="none" xmlns="http://www.w3.org/2000/svg">
<path d="M15.5351 30.5351C12.5684 30.5351 9.66833 29.6554 7.20159 28.0072C4.73486 26.359 2.81227 24.0163 1.67695 21.2754C0.54164 18.5345 0.24459 15.5185 0.823369 12.6088C1.40215 9.69908 2.83076 7.02633 4.92855 4.92855C7.02633 2.83076 9.69908 1.40215 12.6088 0.82337C15.5185 0.244592 18.5345 0.541642 21.2754 1.67696C24.0163 2.81227 26.359 4.73486 28.0072 7.20159C29.6554 9.66833 30.5351 12.5684 30.5351 15.5351C30.5307 19.512 28.949 23.3248 26.1369 26.1369C23.3248 28.949 19.512 30.5307 15.5351 30.5351ZM15.5351 2.04512C12.8671 2.04512 10.2589 2.83629 8.04049 4.3186C5.82206 5.8009 4.09301 7.90775 3.07198 10.3727C2.05095 12.8377 1.7838 15.5501 2.30432 18.1669C2.82484 20.7837 4.10964 23.1874 5.99625 25.074C7.88287 26.9607 10.2866 28.2455 12.9034 28.766C15.5202 29.2865 18.2326 29.0193 20.6976 27.9983C23.1625 26.9773 25.2694 25.2482 26.7517 23.0298C28.234 20.8114 29.0252 18.2032 29.0252 15.5351C29.0212 11.9586 27.5986 8.52967 25.0696 6.00067C22.5406 3.47166 19.1117 2.04911 15.5351 2.04512Z" fill="#708C91"/>
<path d="M19.3101 17.8001C19.3077 18.6003 18.9887 19.367 18.4229 19.9329C17.8571 20.4987 17.0903 20.8176 16.2901 20.82V22.3451C16.2901 22.5453 16.2106 22.7374 16.069 22.8789C15.9274 23.0205 15.7354 23.1001 15.5351 23.1001C15.3349 23.1001 15.1429 23.0205 15.0013 22.8789C14.8597 22.7374 14.7802 22.5453 14.7802 22.3451V20.82H12.8927C12.6925 20.82 12.5004 20.7405 12.3589 20.5989C12.2173 20.4573 12.1377 20.2653 12.1377 20.065C12.1377 19.8648 12.2173 19.6728 12.3589 19.5312C12.5004 19.3896 12.6925 19.3101 12.8927 19.3101H16.2901C16.6906 19.3101 17.0747 19.151 17.3578 18.8678C17.641 18.5846 17.8001 18.2006 17.8001 17.8001C17.8001 17.3996 17.641 17.0156 17.3578 16.7324C17.0747 16.4492 16.6906 16.2901 16.2901 16.2901H14.7802C13.9792 16.2901 13.2111 15.972 12.6447 15.4056C12.0784 14.8393 11.7602 14.0711 11.7602 13.2702C11.7602 12.4693 12.0784 11.7011 12.6447 11.1348C13.2111 10.5684 13.9792 10.2503 14.7802 10.2503V8.7252C14.7802 8.52497 14.8597 8.33294 15.0013 8.19135C15.1429 8.04976 15.3349 7.97022 15.5351 7.97022C15.7354 7.97022 15.9274 8.04976 16.069 8.19135C16.2106 8.33294 16.2901 8.52497 16.2901 8.7252V10.2503H18.1776C18.3778 10.2503 18.5699 10.3298 18.7114 10.4714C18.853 10.613 18.9326 10.805 18.9326 11.0053C18.9326 11.2055 18.853 11.3975 18.7114 11.5391C18.5699 11.6807 18.3778 11.7602 18.1776 11.7602H14.7802C14.3797 11.7602 13.9956 11.9193 13.7125 12.2025C13.4293 12.4857 13.2702 12.8697 13.2702 13.2702C13.2702 13.6707 13.4293 14.0547 13.7125 14.3379C13.9956 14.6211 14.3797 14.7802 14.7802 14.7802H16.2901C17.0903 14.7826 17.8571 15.1015 18.4229 15.6673C18.9887 16.2332 19.3077 16.9999 19.3101 17.8001Z" fill="#708C91"/>
</svg>
