<svg width="30" height="30" viewBox="0 0 30 30" fill="none" xmlns="http://www.w3.org/2000/svg">
<path d="M16.0768 6.76659C16.0768 7.28816 15.8823 7.78837 15.5362 8.15718C15.19 8.52599 14.7206 8.73318 14.231 8.73318C13.7415 8.73318 13.272 8.52599 12.9259 8.15718C12.5798 7.78837 12.3853 7.28816 12.3853 6.76659C12.3853 6.24502 12.5798 5.74481 12.9259 5.376C13.272 5.00719 13.7415 4.8 14.231 4.8C14.7206 4.8 15.19 5.00719 15.5362 5.376C15.8823 5.74481 16.0768 6.24502 16.0768 6.76659ZM12.3115 9.7191C12.3979 9.61534 12.504 9.53226 12.6228 9.47532C12.7416 9.41838 12.8703 9.38886 13.0005 9.38871H14.7786C15.6916 9.38871 16.4029 10.2317 16.3081 11.198L15.779 16.551C15.7618 16.7275 15.7255 16.9013 15.6707 17.0689L15.2794 18.2567L15.5415 18.574C15.5981 18.6431 15.6453 18.7204 15.6818 18.8034L18.1428 24.3754C18.1981 24.4928 18.2308 24.6207 18.2389 24.7517C18.2471 24.8826 18.2305 25.014 18.1902 25.1381C18.15 25.2622 18.0868 25.3764 18.0044 25.474C17.9221 25.5716 17.8222 25.6507 17.7107 25.7066C17.5992 25.7624 17.4784 25.7939 17.3553 25.7992C17.2322 25.8045 17.1093 25.7835 16.994 25.7374C16.8786 25.6913 16.7731 25.621 16.6836 25.5308C16.5941 25.4405 16.5225 25.3321 16.473 25.2119L14.0662 19.7658L11.9989 17.2472C11.8398 17.0546 11.7577 16.8033 11.77 16.5471L11.9399 13.1213L11.4046 13.7624L10.8336 17.415C10.7935 17.6723 10.6591 17.9021 10.4599 18.0538C10.2608 18.2055 10.0132 18.2667 9.77171 18.2239C9.53022 18.1812 9.31456 18.0379 9.17217 17.8258C9.02979 17.6136 8.97236 17.3498 9.0125 17.0925L9.62775 13.1593C9.65659 12.9765 9.73338 12.806 9.84924 12.6677L12.3102 9.71779L12.3115 9.7191Z" fill="#708C91"/>
<path d="M12.0777 20.1984V18.3393L13.5592 20.142L13.8804 20.829C13.8481 20.9384 13.7981 21.0409 13.7327 21.1319L10.6565 25.3928C10.5073 25.5997 10.2871 25.735 10.0444 25.7689C9.80162 25.8029 9.55615 25.7327 9.36198 25.5738C9.1678 25.4148 9.04082 25.1803 9.00897 24.9216C8.97713 24.6629 9.04303 24.4014 9.19217 24.1945L12.0777 20.1984ZM17.2704 14.6723L16.6625 14.0246L16.9148 11.6083C16.9177 11.5791 16.9202 11.5498 16.9222 11.5205L18.3052 12.9941H20.0772C20.3219 12.9941 20.5567 13.0977 20.7297 13.2821C20.9028 13.4665 21 13.7166 21 13.9774C21 14.2382 20.9028 14.4883 20.7297 14.6727C20.5567 14.8571 20.3219 14.9607 20.0772 14.9607H17.9226C17.8012 14.9608 17.681 14.9353 17.5689 14.8858C17.4568 14.8363 17.3549 14.7638 17.2692 14.6723H17.2704Z" fill="#708C91"/>
<circle cx="15" cy="15" r="14.25" stroke="#708C91" stroke-width="1.5"/>
</svg>
