<svg width="30" height="30" viewBox="0 0 30 30" fill="none" xmlns="http://www.w3.org/2000/svg">
<path d="M13.9232 6.76659C13.9232 7.28816 14.1177 7.78837 14.4638 8.15718C14.81 8.52599 15.2794 8.73318 15.769 8.73318C16.2585 8.73318 16.728 8.52599 17.0741 8.15718C17.4202 7.78837 17.6147 7.28816 17.6147 6.76659C17.6147 6.24502 17.4202 5.74481 17.0741 5.376C16.728 5.00719 16.2585 4.8 15.769 4.8C15.2794 4.8 14.81 5.00719 14.4638 5.376C14.1177 5.74481 13.9232 6.24502 13.9232 6.76659ZM17.6885 9.7191C17.6021 9.61534 17.496 9.53226 17.3772 9.47532C17.2584 9.41838 17.1297 9.38886 16.9995 9.38871H15.2214C14.3084 9.38871 13.5971 10.2317 13.6919 11.198L14.221 16.551C14.2382 16.7275 14.2745 16.9013 14.3293 17.0689L14.7206 18.2567L14.4585 18.574C14.4019 18.6431 14.3547 18.7204 14.3182 18.8034L11.8572 24.3754C11.8019 24.4928 11.7692 24.6207 11.7611 24.7517C11.7529 24.8826 11.7695 25.014 11.8098 25.1381C11.85 25.2622 11.9132 25.3764 11.9956 25.474C12.0779 25.5716 12.1778 25.6507 12.2893 25.7066C12.4008 25.7624 12.5216 25.7939 12.6447 25.7992C12.7678 25.8045 12.8907 25.7835 13.006 25.7374C13.1214 25.6913 13.2269 25.621 13.3164 25.5308C13.4059 25.4405 13.4775 25.3321 13.527 25.2119L15.9338 19.7658L18.0011 17.2472C18.1602 17.0546 18.2423 16.8033 18.23 16.5471L18.0601 13.1213L18.5954 13.7624L19.1664 17.415C19.2065 17.6723 19.3409 17.9021 19.5401 18.0538C19.7392 18.2055 19.9868 18.2667 20.2283 18.2239C20.4698 18.1812 20.6854 18.0379 20.8278 17.8258C20.9702 17.6136 21.0276 17.3498 20.9875 17.0925L20.3723 13.1593C20.3434 12.9765 20.2666 12.806 20.1508 12.6677L17.6898 9.71779L17.6885 9.7191Z" fill="#708C91"/>
<path d="M17.9223 20.1984V18.3393L16.4408 20.142L16.1196 20.829C16.1519 20.9384 16.2019 21.0409 16.2673 21.1319L19.3435 25.3928C19.4927 25.5997 19.7129 25.735 19.9556 25.7689C20.1984 25.8029 20.4438 25.7327 20.638 25.5738C20.8322 25.4148 20.9592 25.1803 20.991 24.9216C21.0229 24.6629 20.957 24.4014 20.8078 24.1945L17.9223 20.1984ZM12.7296 14.6723L13.3375 14.0246L13.0852 11.6083C13.0823 11.5791 13.0798 11.5498 13.0778 11.5205L11.6948 12.9941H9.92284C9.67808 12.9941 9.44335 13.0977 9.27027 13.2821C9.0972 13.4665 8.99997 13.7166 8.99997 13.9774C8.99997 14.2382 9.0972 14.4883 9.27027 14.6727C9.44335 14.8571 9.67808 14.9607 9.92284 14.9607H12.0774C12.1988 14.9608 12.319 14.9353 12.4311 14.8858C12.5432 14.8363 12.6451 14.7638 12.7308 14.6723H12.7296Z" fill="#708C91"/>
<circle cx="15" cy="15" r="14.25" stroke="#708C91" stroke-width="1.5"/>
</svg>
