<svg width="30" height="30" viewBox="0 0 30 30" fill="none" xmlns="http://www.w3.org/2000/svg">
<path d="M15 0C18.9782 0 22.7936 1.58035 25.6066 4.3934C28.4196 7.20644 30 11.0218 30 15C30 18.9782 28.4196 22.7936 25.6066 25.6066C22.7936 28.4196 18.9782 30 15 30C11.0218 30 7.20644 28.4196 4.3934 25.6066C1.58035 22.7936 0 18.9782 0 15C0 11.0218 1.58035 7.20644 4.3934 4.3934C7.20644 1.58035 11.0218 0 15 0ZM15 1.57895C11.4405 1.57895 8.02682 2.99295 5.50988 5.50988C2.99295 8.02682 1.57895 11.4405 1.57895 15C1.57895 18.5595 2.99295 21.9732 5.50988 24.4901C8.02682 27.0071 11.4405 28.4211 15 28.4211C16.7625 28.4211 18.5077 28.0739 20.136 27.3994C21.7643 26.725 23.2439 25.7364 24.4901 24.4901C25.7364 23.2439 26.725 21.7643 27.3994 20.136C28.0739 18.5077 28.4211 16.7625 28.4211 15C28.4211 11.4405 27.0071 8.02682 24.4901 5.50988C21.9732 2.99295 18.5595 1.57895 15 1.57895ZM14.2105 6.31579H15.7895V14.8737L23.2105 19.1526L22.4211 20.5263L14.2105 15.7895V6.31579Z" fill="#708C91"/>
</svg>
