<svg width="24" height="24" viewBox="0 0 24 24" fill="none" xmlns="http://www.w3.org/2000/svg">
<path fill-rule="evenodd" clip-rule="evenodd" d="M7 4C5.34315 4 4 5.34315 4 7V8H20V7C20 5.34315 18.6569 4 17 4H7ZM3 8V9V17C3 19.2091 4.79086 21 7 21H17C19.2091 21 21 19.2091 21 17V9V8V7C21 4.79086 19.2091 3 17 3H7C4.79086 3 3 4.79086 3 7V8ZM17 20C18.6569 20 20 18.6569 20 17V9H4V17C4 18.6569 5.34315 20 7 20H17ZM7 11C6.44772 11 6 11.4477 6 12C6 12.5523 6.44772 13 7 13C7.55228 13 8 12.5523 8 12C8 11.4477 7.55228 11 7 11ZM6 16C6 15.4477 6.44772 15 7 15C7.55228 15 8 15.4477 8 16C8 16.5523 7.55228 17 7 17C6.44772 17 6 16.5523 6 16ZM12 11C11.4477 11 11 11.4477 11 12C11 12.5523 11.4477 13 12 13C12.5523 13 13 12.5523 13 12C13 11.4477 12.5523 11 12 11ZM11 16C11 15.4477 11.4477 15 12 15C12.5523 15 13 15.4477 13 16C13 16.5523 12.5523 17 12 17C11.4477 17 11 16.5523 11 16ZM17 11C16.4477 11 16 11.4477 16 12C16 12.5523 16.4477 13 17 13C17.5523 13 18 12.5523 18 12C18 11.4477 17.5523 11 17 11Z" fill="#708C91"/>
</svg>
