<svg width="41" height="52" viewBox="0 0 41 52" fill="none" xmlns="http://www.w3.org/2000/svg">
<path d="M24.2848 12.0644C27.2844 12.0644 30.1611 13.1672 32.282 15.1303C34.4029 17.0934 35.5945 19.7559 35.5945 22.5322C35.6017 24.5927 34.9436 26.6082 33.7051 28.3202L35.5945 33L29.2345 31.9409C27.7048 32.6312 26.0268 32.9933 24.325 33C22.6233 33.0066 20.9419 32.6576 19.4061 31.9793C17.8703 31.301 16.5197 30.3103 15.4549 29.0818C14.3902 27.8532 13.6387 26.4181 13.2565 24.8831C12.8743 23.3484 12.8712 21.7535 13.2475 20.2174C13.6238 18.6814 14.3698 17.2437 15.4298 16.0116C16.4899 14.7794 17.8366 13.7846 19.3698 13.1012C20.903 12.4177 22.5831 12.0633 24.2848 12.0644Z" stroke="#708C91" stroke-linecap="round" stroke-linejoin="round"/>
<path d="M25.9081 5.93151C24.116 3.82088 21.6575 2.27997 18.8748 1.52332C16.0921 0.766665 13.1237 0.83193 10.383 1.71002C7.64226 2.58812 5.26556 4.23533 3.58376 6.42234C1.90198 8.60932 0.998833 11.2273 1.00006 13.9117C0.991815 16.4633 1.80727 18.9592 3.34184 21.079L1.00006 26.8424L6.64162 25.9064" stroke="#708C91" stroke-linecap="round" stroke-linejoin="round"/>
<path d="M3.84727 49V38.995H4.92727V49H3.84727ZM7.40508 42.115C7.64508 41.995 7.89008 41.89 8.14008 41.8C8.40008 41.7 8.66008 41.62 8.92008 41.56C9.19008 41.5 9.46008 41.455 9.73008 41.425C10.0101 41.395 10.2901 41.38 10.5701 41.38C11.3001 41.38 11.8801 41.49 12.3101 41.71C12.7401 41.92 13.0501 42.23 13.2401 42.64C13.4401 43.05 13.5401 43.545 13.5401 44.125V49H12.4601V44.125C12.4601 43.945 12.4351 43.755 12.3851 43.555C12.3451 43.355 12.2601 43.165 12.1301 42.985C12.0001 42.795 11.8001 42.645 11.5301 42.535C11.2601 42.415 10.9001 42.355 10.4501 42.355C10.1401 42.355 9.82008 42.38 9.49008 42.43C9.16008 42.48 8.82508 42.555 8.48508 42.655V49H7.40508V42.115ZM18.9001 49.225C18.5101 49.225 18.1351 49.2 17.7751 49.15C17.4251 49.11 17.1101 49.035 16.8301 48.925C16.5601 48.805 16.3451 48.65 16.1851 48.46C16.0251 48.27 15.9451 48.025 15.9451 47.725V38.35H17.0251V42.37L16.6501 41.995C16.8501 41.895 17.0901 41.8 17.3701 41.71C17.6601 41.62 17.9551 41.545 18.2551 41.485C18.5551 41.425 18.8151 41.395 19.0351 41.395C20.1951 41.395 21.0551 41.735 21.6151 42.415C22.1751 43.085 22.4551 44 22.4551 45.16C22.4551 46.02 22.3401 46.72 22.1101 47.26C21.8801 47.79 21.5851 48.2 21.2251 48.49C20.8751 48.77 20.4951 48.96 20.0851 49.06C19.6751 49.17 19.2801 49.225 18.9001 49.225ZM18.7951 48.235C19.5051 48.235 20.0401 48.09 20.4001 47.8C20.7601 47.51 21.0001 47.135 21.1201 46.675C21.2501 46.205 21.3151 45.7 21.3151 45.16C21.3151 44.61 21.2351 44.13 21.0751 43.72C20.9251 43.3 20.6851 42.975 20.3551 42.745C20.0251 42.505 19.5851 42.385 19.0351 42.385C18.7251 42.385 18.3901 42.43 18.0301 42.52C17.6701 42.6 17.3351 42.73 17.0251 42.91V47.47C17.0251 47.69 17.1201 47.855 17.3101 47.965C17.5101 48.075 17.7451 48.15 18.0151 48.19C18.2951 48.22 18.5551 48.235 18.7951 48.235ZM27.5602 49.225C26.3902 49.225 25.5202 48.88 24.9502 48.19C24.3902 47.49 24.1102 46.52 24.1102 45.28C24.1102 43.98 24.4052 43.005 24.9952 42.355C25.5952 41.705 26.4402 41.38 27.5302 41.38C28.3402 41.38 29.0002 41.545 29.5102 41.875C30.0202 42.195 30.3952 42.65 30.6352 43.24C30.8752 43.82 30.9952 44.5 30.9952 45.28C30.9952 46.51 30.6952 47.475 30.0952 48.175C29.5052 48.875 28.6602 49.225 27.5602 49.225ZM27.5452 48.235C28.1552 48.235 28.6302 48.105 28.9702 47.845C29.3102 47.575 29.5502 47.22 29.6902 46.78C29.8402 46.33 29.9152 45.83 29.9152 45.28C29.9152 44.69 29.8402 44.18 29.6902 43.75C29.5402 43.31 29.2902 42.97 28.9402 42.73C28.6002 42.49 28.1352 42.37 27.5452 42.37C26.9452 42.37 26.4752 42.5 26.1352 42.76C25.7952 43.02 25.5502 43.37 25.4002 43.81C25.2602 44.24 25.1902 44.73 25.1902 45.28C25.1902 46.16 25.3652 46.875 25.7152 47.425C26.0652 47.965 26.6752 48.235 27.5452 48.235ZM35.6443 45.73L33.1843 49H31.9693L34.9993 44.92L35.6443 45.73ZM38.8993 49H37.5193L32.0443 41.515H33.4093L38.8993 49ZM35.1493 44.815L37.6243 41.515H38.8693L35.7493 45.73L35.1493 44.815Z" fill="#708C91"/>
</svg>
