<svg width="44" height="53" viewBox="0 0 44 53" fill="none" xmlns="http://www.w3.org/2000/svg">
<path d="M22 19.4616C25.3986 19.4616 28.1538 16.7064 28.1538 13.3077C28.1538 9.90904 25.3986 7.15387 22 7.15387C18.6013 7.15387 15.8461 9.90904 15.8461 13.3077C15.8461 16.7064 18.6013 19.4616 22 19.4616Z" stroke="#708C91" stroke-linecap="round" stroke-linejoin="round"/>
<path d="M11.4892 29.0616C12.5876 27.2585 14.1314 25.7683 15.9722 24.7344C17.8129 23.7003 19.8887 23.1572 22 23.1572C24.1113 23.1572 26.187 23.7003 28.0278 24.7344C29.8686 25.7683 31.4122 27.2585 32.5108 29.0616" stroke="#708C91" stroke-linecap="round" stroke-linejoin="round"/>
<path d="M22 33C30.8367 33 38 25.8367 38 17C38 8.16345 30.8367 1 22 1C13.1634 1 6 8.16345 6 17C6 25.8367 13.1634 33 22 33Z" stroke="#708C91" stroke-linecap="round" stroke-linejoin="round"/>
<path d="M2.62404 46.175V50H1.54404V39.995H5.09904C6.21904 39.995 7.07404 40.26 7.66404 40.79C8.26404 41.32 8.56404 42.085 8.56404 43.085C8.56404 44.085 8.26404 44.85 7.66404 45.38C7.07404 45.91 6.21904 46.175 5.09904 46.175H2.62404ZM2.62404 45.14H4.96404C5.52404 45.14 5.96904 45.08 6.29904 44.96C6.63904 44.84 6.89404 44.68 7.06404 44.48C7.23404 44.27 7.34404 44.045 7.39404 43.805C7.45404 43.565 7.48404 43.325 7.48404 43.085C7.48404 42.845 7.45404 42.605 7.39404 42.365C7.34404 42.125 7.23404 41.905 7.06404 41.705C6.89404 41.495 6.63904 41.33 6.29904 41.21C5.96904 41.09 5.52404 41.03 4.96404 41.03H2.62404V45.14ZM10.6683 50V43.115C10.7883 43.065 11.0183 42.98 11.3583 42.86C11.7083 42.74 12.1233 42.63 12.6033 42.53C13.0933 42.43 13.5983 42.38 14.1183 42.38C14.1983 42.38 14.2783 42.39 14.3583 42.41C14.4383 42.43 14.5183 42.45 14.5983 42.47V43.43C14.3383 43.4 14.0833 43.385 13.8333 43.385C13.5933 43.385 13.3583 43.4 13.1283 43.43C12.8983 43.45 12.6683 43.48 12.4383 43.52C12.2083 43.56 11.9783 43.6 11.7483 43.64V50H10.6683ZM18.8702 50.225C17.7002 50.225 16.8302 49.88 16.2602 49.19C15.7002 48.49 15.4202 47.52 15.4202 46.28C15.4202 44.98 15.7152 44.005 16.3052 43.355C16.9052 42.705 17.7502 42.38 18.8402 42.38C19.6502 42.38 20.3102 42.545 20.8202 42.875C21.3302 43.195 21.7052 43.65 21.9452 44.24C22.1852 44.82 22.3052 45.5 22.3052 46.28C22.3052 47.51 22.0052 48.475 21.4052 49.175C20.8152 49.875 19.9702 50.225 18.8702 50.225ZM18.8552 49.235C19.4652 49.235 19.9402 49.105 20.2802 48.845C20.6202 48.575 20.8602 48.22 21.0002 47.78C21.1502 47.33 21.2252 46.83 21.2252 46.28C21.2252 45.69 21.1502 45.18 21.0002 44.75C20.8502 44.31 20.6002 43.97 20.2502 43.73C19.9102 43.49 19.4452 43.37 18.8552 43.37C18.2552 43.37 17.7852 43.5 17.4452 43.76C17.1052 44.02 16.8602 44.37 16.7102 44.81C16.5702 45.24 16.5002 45.73 16.5002 46.28C16.5002 47.16 16.6752 47.875 17.0252 48.425C17.3752 48.965 17.9852 49.235 18.8552 49.235ZM25.0253 50V43.505H23.7353V42.515H25.0253V42.11C25.0253 41.56 25.0853 41.115 25.2053 40.775C25.3353 40.425 25.5003 40.155 25.7003 39.965C25.9003 39.765 26.1103 39.625 26.3303 39.545C26.5503 39.455 26.7603 39.405 26.9603 39.395C27.1603 39.375 27.3203 39.365 27.4403 39.365C27.5803 39.365 27.7103 39.375 27.8303 39.395C27.9503 39.405 28.0603 39.425 28.1603 39.455V40.415C28.0903 40.395 28.0103 40.38 27.9203 40.37C27.8303 40.36 27.7303 40.355 27.6203 40.355C27.4503 40.355 27.2753 40.365 27.0953 40.385C26.9153 40.405 26.7503 40.47 26.6003 40.58C26.4503 40.68 26.3303 40.85 26.2403 41.09C26.1503 41.32 26.1053 41.655 26.1053 42.095V42.515H28.1603V43.505H26.1053V50H25.0253ZM29.7053 50V42.515H30.7853V50H29.7053ZM29.6453 41.18V39.995H30.8453V41.18H29.6453ZM34.3215 50H33.2415V39.665H34.3215V50ZM39.8178 50.225C39.1078 50.225 38.4928 50.08 37.9728 49.79C37.4528 49.49 37.0528 49.045 36.7728 48.455C36.4928 47.865 36.3528 47.13 36.3528 46.25C36.3528 44.96 36.6428 43.995 37.2228 43.355C37.8128 42.705 38.6178 42.38 39.6378 42.38C40.4378 42.38 41.0778 42.56 41.5578 42.92C42.0478 43.28 42.3978 43.765 42.6078 44.375C42.8178 44.985 42.9178 45.675 42.9078 46.445H36.8928L36.9678 45.455H42.2028L41.7828 45.605C41.7528 44.855 41.5628 44.295 41.2128 43.925C40.8728 43.555 40.3478 43.37 39.6378 43.37C39.1478 43.37 38.7378 43.46 38.4078 43.64C38.0878 43.82 37.8478 44.135 37.6878 44.585C37.5278 45.025 37.4478 45.645 37.4478 46.445C37.4478 47.355 37.6578 48.05 38.0778 48.53C38.5078 49 39.1078 49.235 39.8778 49.235C40.2478 49.235 40.5878 49.21 40.8978 49.16C41.2078 49.1 41.4928 49.02 41.7528 48.92C42.0128 48.82 42.2428 48.71 42.4428 48.59V49.7C42.0828 49.87 41.6828 50 41.2428 50.09C40.8128 50.18 40.3378 50.225 39.8178 50.225Z" fill="#708C91"/>
</svg>
