<svg width="49" height="52" viewBox="0 0 49 52" fill="none" xmlns="http://www.w3.org/2000/svg">
<path d="M23 33C31.8367 33 39 25.8367 39 17C39 8.16345 31.8367 1 23 1C14.1634 1 7 8.16345 7 17C7 25.8367 14.1634 33 23 33Z" stroke="#708C91" stroke-linecap="round" stroke-linejoin="round"/>
<path d="M23 9.61542V24.3846" stroke="#708C91" stroke-linecap="round" stroke-linejoin="round"/>
<path d="M15.6154 17H30.3846" stroke="#708C91" stroke-linecap="round" stroke-linejoin="round"/>
<path d="M2.37014 45.175V49H1.29014V38.995H4.84514C5.96514 38.995 6.82014 39.26 7.41014 39.79C8.01014 40.32 8.31014 41.085 8.31014 42.085C8.31014 43.085 8.01014 43.85 7.41014 44.38C6.82014 44.91 5.96514 45.175 4.84514 45.175H2.37014ZM2.37014 44.14H4.71014C5.27014 44.14 5.71514 44.08 6.04514 43.96C6.38514 43.84 6.64014 43.68 6.81014 43.48C6.98014 43.27 7.09014 43.045 7.14014 42.805C7.20014 42.565 7.23014 42.325 7.23014 42.085C7.23014 41.845 7.20014 41.605 7.14014 41.365C7.09014 41.125 6.98014 40.905 6.81014 40.705C6.64014 40.495 6.38514 40.33 6.04514 40.21C5.71514 40.09 5.27014 40.03 4.71014 40.03H2.37014V44.14ZM13.5494 49.225C12.8894 49.225 12.3244 49.11 11.8544 48.88C11.3844 48.65 11.0244 48.315 10.7744 47.875C10.5344 47.435 10.4144 46.895 10.4144 46.255V41.515H11.4944V46.015C11.4944 46.775 11.6594 47.335 11.9894 47.695C12.3294 48.045 12.8494 48.22 13.5494 48.22C14.2494 48.22 14.7644 48.045 15.0944 47.695C15.4344 47.335 15.6044 46.775 15.6044 46.015V41.515H16.6844V46.255C16.6844 47.205 16.4094 47.94 15.8594 48.46C15.3194 48.97 14.5494 49.225 13.5494 49.225ZM22.0412 49.225C21.6512 49.225 21.2762 49.2 20.9162 49.15C20.5662 49.11 20.2512 49.035 19.9712 48.925C19.7012 48.805 19.4862 48.65 19.3262 48.46C19.1662 48.27 19.0862 48.025 19.0862 47.725V38.35H20.1662V42.37L19.7912 41.995C19.9912 41.895 20.2312 41.8 20.5112 41.71C20.8012 41.62 21.0962 41.545 21.3962 41.485C21.6962 41.425 21.9562 41.395 22.1762 41.395C23.3362 41.395 24.1962 41.735 24.7562 42.415C25.3162 43.085 25.5962 44 25.5962 45.16C25.5962 46.02 25.4812 46.72 25.2512 47.26C25.0212 47.79 24.7262 48.2 24.3662 48.49C24.0162 48.77 23.6362 48.96 23.2262 49.06C22.8162 49.17 22.4212 49.225 22.0412 49.225ZM21.9362 48.235C22.6462 48.235 23.1812 48.09 23.5412 47.8C23.9012 47.51 24.1412 47.135 24.2612 46.675C24.3912 46.205 24.4562 45.7 24.4562 45.16C24.4562 44.61 24.3762 44.13 24.2162 43.72C24.0662 43.3 23.8262 42.975 23.4962 42.745C23.1662 42.505 22.7262 42.385 22.1762 42.385C21.8662 42.385 21.5312 42.43 21.1712 42.52C20.8112 42.6 20.4762 42.73 20.1662 42.91V47.47C20.1662 47.69 20.2612 47.855 20.4512 47.965C20.6512 48.075 20.8862 48.15 21.1562 48.19C21.4362 48.22 21.6962 48.235 21.9362 48.235ZM28.7063 49H27.6263V38.665H28.7063V49ZM31.1726 49V41.515H32.2526V49H31.1726ZM31.1126 40.18V38.995H32.3126V40.18H31.1126ZM36.8311 49.225C36.2911 49.225 35.8361 49.17 35.4661 49.06C35.1061 48.95 34.7311 48.795 34.3411 48.595V47.455C34.6511 47.625 34.9261 47.77 35.1661 47.89C35.4061 48.01 35.6511 48.1 35.9011 48.16C36.1511 48.21 36.4361 48.235 36.7561 48.235C37.2561 48.235 37.6611 48.125 37.9711 47.905C38.2911 47.685 38.4511 47.4 38.4511 47.05C38.4511 46.77 38.3711 46.555 38.2111 46.405C38.0611 46.255 37.8661 46.13 37.6261 46.03C37.3861 45.93 37.1361 45.825 36.8761 45.715C36.5861 45.635 36.2911 45.55 35.9911 45.46C35.7011 45.36 35.4311 45.235 35.1811 45.085C34.9411 44.925 34.7461 44.725 34.5961 44.485C34.4461 44.235 34.3711 43.915 34.3711 43.525C34.3711 43.145 34.4461 42.82 34.5961 42.55C34.7561 42.28 34.9611 42.06 35.2111 41.89C35.4611 41.71 35.7411 41.58 36.0511 41.5C36.3611 41.42 36.6711 41.38 36.9811 41.38C37.4311 41.38 37.8161 41.44 38.1361 41.56C38.4561 41.68 38.7861 41.815 39.1261 41.965V43.045C38.7461 42.845 38.4061 42.685 38.1061 42.565C37.8061 42.435 37.4511 42.37 37.0411 42.37C36.6311 42.37 36.2611 42.455 35.9311 42.625C35.6111 42.785 35.4511 43.035 35.4511 43.375C35.4511 43.655 35.5311 43.88 35.6911 44.05C35.8611 44.21 36.0811 44.34 36.3511 44.44C36.6211 44.53 36.9111 44.62 37.2211 44.71C37.4711 44.79 37.7311 44.88 38.0011 44.98C38.2711 45.07 38.5211 45.195 38.7511 45.355C38.9811 45.505 39.1661 45.705 39.3061 45.955C39.4561 46.205 39.5311 46.525 39.5311 46.915C39.5311 47.445 39.3961 47.885 39.1261 48.235C38.8561 48.575 38.5111 48.825 38.0911 48.985C37.6811 49.145 37.2611 49.225 36.8311 49.225ZM41.5569 49V38.2H42.6369V42.355L42.5169 42.07C42.8969 41.86 43.2969 41.695 43.7169 41.575C44.1369 41.445 44.5319 41.38 44.9019 41.38C45.5219 41.38 46.0419 41.495 46.4619 41.725C46.8919 41.955 47.2169 42.305 47.4369 42.775C47.6669 43.235 47.7819 43.83 47.7819 44.56V49H46.7019V44.56C46.7019 43.86 46.5419 43.32 46.2219 42.94C45.9019 42.56 45.4219 42.37 44.7819 42.37C44.4319 42.37 44.0769 42.42 43.7169 42.52C43.3669 42.62 43.0069 42.77 42.6369 42.97V49H41.5569Z" fill="#708C91"/>
</svg>
