<svg width="68" height="52" viewBox="0 0 68 52" fill="none" xmlns="http://www.w3.org/2000/svg">
<path d="M30.339 11.9578H28.5108C27.974 11.9296 27.4428 12.0789 26.9983 12.3829C26.5538 12.6869 26.2205 13.1288 26.0492 13.6412L24.1538 19.3844H20.4615C19.8087 19.3844 19.1826 19.6453 18.721 20.1095C18.2593 20.5738 18 21.2035 18 21.86V26.8112C18 27.4677 18.2593 28.0972 18.721 28.5616C19.1826 29.0258 19.8087 29.2867 20.4615 29.2867H21.6923" stroke="#708C91" stroke-linecap="round" stroke-linejoin="round"/>
<path d="M46.3077 19.3847H47.5385C48.1913 19.3847 48.8175 19.6455 49.279 20.1098C49.7406 20.574 50 21.2037 50 21.8603V26.8114C50 27.4679 49.7406 28.0974 49.279 28.5619C48.8175 29.026 48.1913 29.2869 47.5385 29.2869H46.3077" stroke="#708C91" stroke-linecap="round" stroke-linejoin="round"/>
<path d="M42.6127 33C40.5721 33 38.9179 31.3362 38.9179 29.284C38.9179 27.2317 40.5721 25.5682 42.6127 25.5682C44.6535 25.5682 46.3077 27.2317 46.3077 29.284C46.3077 31.3362 44.6535 33 42.6127 33Z" stroke="#708C91" stroke-linecap="round" stroke-linejoin="round"/>
<path d="M25.382 33C23.3414 33 21.6871 31.3365 21.6871 29.284C21.6871 27.2317 23.3414 25.5682 25.382 25.5682C27.4227 25.5682 29.0769 27.2317 29.0769 29.284C29.0769 31.3365 27.4227 33 25.382 33Z" stroke="#708C91" stroke-linecap="round" stroke-linejoin="round"/>
<path d="M38.9183 29.2869H29.0773" stroke="#708C91" stroke-linecap="round" stroke-linejoin="round"/>
<path d="M35.0239 9.5009C34.16 9.34976 34.16 8.10266 35.0239 7.95152C38.1534 7.40396 40.6424 5.00674 41.3217 1.88605L41.3738 1.64684C41.5606 0.788239 42.7764 0.782896 42.9706 1.63982L43.0339 1.91859C43.7383 5.02456 46.2279 7.40153 49.3487 7.94756C50.2171 8.09946 50.2171 9.35296 49.3487 9.50486C46.2279 10.0509 43.7383 12.4279 43.0339 15.5338L42.9706 15.8126C42.7764 16.6695 41.5606 16.6642 41.3738 15.8056L41.3217 15.5664C40.6424 12.4457 38.1534 10.0485 35.0239 9.5009Z" stroke="#708C91" stroke-linecap="round" stroke-linejoin="round"/>
<path d="M4.15035 49V44.41L0.415352 38.995H1.72035L4.88535 43.675L4.54035 43.585L7.64535 38.995H8.95035L5.05035 44.665L5.23035 43.975V49H4.15035ZM11.9811 49.225C10.8111 49.225 9.94105 48.88 9.37105 48.19C8.81105 47.49 8.53105 46.52 8.53105 45.28C8.53105 43.98 8.82605 43.005 9.41605 42.355C10.0161 41.705 10.8611 41.38 11.9511 41.38C12.7611 41.38 13.4211 41.545 13.9311 41.875C14.4411 42.195 14.8161 42.65 15.0561 43.24C15.2961 43.82 15.4161 44.5 15.4161 45.28C15.4161 46.51 15.1161 47.475 14.5161 48.175C13.9261 48.875 13.0811 49.225 11.9811 49.225ZM11.9661 48.235C12.5761 48.235 13.0511 48.105 13.3911 47.845C13.7311 47.575 13.9711 47.22 14.1111 46.78C14.2611 46.33 14.3361 45.83 14.3361 45.28C14.3361 44.69 14.2611 44.18 14.1111 43.75C13.9611 43.31 13.7111 42.97 13.3611 42.73C13.0211 42.49 12.5561 42.37 11.9661 42.37C11.3661 42.37 10.8961 42.5 10.5561 42.76C10.2161 43.02 9.97105 43.37 9.82105 43.81C9.68105 44.24 9.61105 44.73 9.61105 45.28C9.61105 46.16 9.78605 46.875 10.1361 47.425C10.4861 47.965 11.0961 48.235 11.9661 48.235ZM20.5811 49.225C19.9211 49.225 19.3561 49.11 18.8861 48.88C18.4161 48.65 18.0561 48.315 17.8061 47.875C17.5661 47.435 17.4461 46.895 17.4461 46.255V41.515H18.5261V46.015C18.5261 46.775 18.6911 47.335 19.0211 47.695C19.3611 48.045 19.8811 48.22 20.5811 48.22C21.2811 48.22 21.7961 48.045 22.1261 47.695C22.4661 47.335 22.6361 46.775 22.6361 46.015V41.515H23.7161V46.255C23.7161 47.205 23.4411 47.94 22.8911 48.46C22.3511 48.97 21.5811 49.225 20.5811 49.225ZM26.118 49V42.115C26.238 42.065 26.468 41.98 26.808 41.86C27.158 41.74 27.573 41.63 28.053 41.53C28.543 41.43 29.048 41.38 29.568 41.38C29.648 41.38 29.728 41.39 29.808 41.41C29.888 41.43 29.968 41.45 30.048 41.47V42.43C29.788 42.4 29.533 42.385 29.283 42.385C29.043 42.385 28.808 42.4 28.578 42.43C28.348 42.45 28.118 42.48 27.888 42.52C27.658 42.56 27.428 42.6 27.198 42.64V49H26.118ZM36.1229 49V42.115C36.2429 42.065 36.4729 41.98 36.8129 41.86C37.1629 41.74 37.5779 41.63 38.0579 41.53C38.5479 41.43 39.0529 41.38 39.5729 41.38C39.6529 41.38 39.7329 41.39 39.8129 41.41C39.8929 41.43 39.9729 41.45 40.0529 41.47V42.43C39.7929 42.4 39.5379 42.385 39.2879 42.385C39.0479 42.385 38.8129 42.4 38.5829 42.43C38.3529 42.45 38.1229 42.48 37.8929 42.52C37.6629 42.56 37.4329 42.6 37.2029 42.64V49H36.1229ZM41.8371 49V41.515H42.9171V49H41.8371ZM41.7771 40.18V38.995H42.9771V40.18H41.7771ZM48.4857 49.225C48.1257 49.225 47.7457 49.17 47.3457 49.06C46.9457 48.96 46.5657 48.77 46.2057 48.49C45.8557 48.2 45.5657 47.79 45.3357 47.26C45.1157 46.72 45.0057 46.02 45.0057 45.16C45.0057 44 45.2857 43.085 45.8457 42.415C46.4157 41.735 47.2757 41.395 48.4257 41.395C48.6457 41.395 48.9057 41.425 49.2057 41.485C49.5057 41.545 49.8007 41.62 50.0907 41.71C50.3807 41.8 50.6207 41.895 50.8107 41.995L50.4357 42.37V38.35H51.5157V47.71C51.5157 47.99 51.4157 48.23 51.2157 48.43C51.0257 48.62 50.7757 48.775 50.4657 48.895C50.1557 49.005 49.8257 49.085 49.4757 49.135C49.1257 49.195 48.7957 49.225 48.4857 49.225ZM48.5007 48.235C49.0207 48.235 49.4707 48.175 49.8507 48.055C50.2407 47.935 50.4357 47.785 50.4357 47.605V42.91C50.1257 42.73 49.7907 42.6 49.4307 42.52C49.0807 42.43 48.7457 42.385 48.4257 42.385C47.8857 42.385 47.4457 42.505 47.1057 42.745C46.7757 42.975 46.5307 43.3 46.3707 43.72C46.2207 44.13 46.1457 44.61 46.1457 45.16C46.1457 45.7 46.2057 46.205 46.3257 46.675C46.4457 47.135 46.6757 47.51 47.0157 47.8C47.3557 48.09 47.8507 48.235 48.5007 48.235ZM57.0107 49.225C56.3007 49.225 55.6857 49.08 55.1657 48.79C54.6457 48.49 54.2457 48.045 53.9657 47.455C53.6857 46.865 53.5457 46.13 53.5457 45.25C53.5457 43.96 53.8357 42.995 54.4157 42.355C55.0057 41.705 55.8107 41.38 56.8307 41.38C57.6307 41.38 58.2707 41.56 58.7507 41.92C59.2407 42.28 59.5907 42.765 59.8007 43.375C60.0107 43.985 60.1107 44.675 60.1007 45.445H54.0857L54.1607 44.455H59.3957L58.9757 44.605C58.9457 43.855 58.7557 43.295 58.4057 42.925C58.0657 42.555 57.5407 42.37 56.8307 42.37C56.3407 42.37 55.9307 42.46 55.6007 42.64C55.2807 42.82 55.0407 43.135 54.8807 43.585C54.7207 44.025 54.6407 44.645 54.6407 45.445C54.6407 46.355 54.8507 47.05 55.2707 47.53C55.7007 48 56.3007 48.235 57.0707 48.235C57.4407 48.235 57.7807 48.21 58.0907 48.16C58.4007 48.1 58.6857 48.02 58.9457 47.92C59.2057 47.82 59.4357 47.71 59.6357 47.59V48.7C59.2757 48.87 58.8757 49 58.4357 49.09C58.0057 49.18 57.5307 49.225 57.0107 49.225ZM64.2388 49.225C63.6988 49.225 63.2438 49.17 62.8738 49.06C62.5138 48.95 62.1388 48.795 61.7488 48.595V47.455C62.0588 47.625 62.3338 47.77 62.5738 47.89C62.8138 48.01 63.0588 48.1 63.3088 48.16C63.5588 48.21 63.8438 48.235 64.1638 48.235C64.6638 48.235 65.0688 48.125 65.3788 47.905C65.6988 47.685 65.8588 47.4 65.8588 47.05C65.8588 46.77 65.7788 46.555 65.6188 46.405C65.4688 46.255 65.2738 46.13 65.0338 46.03C64.7938 45.93 64.5438 45.825 64.2838 45.715C63.9938 45.635 63.6988 45.55 63.3988 45.46C63.1088 45.36 62.8388 45.235 62.5888 45.085C62.3488 44.925 62.1538 44.725 62.0038 44.485C61.8538 44.235 61.7788 43.915 61.7788 43.525C61.7788 43.145 61.8538 42.82 62.0038 42.55C62.1638 42.28 62.3688 42.06 62.6188 41.89C62.8688 41.71 63.1488 41.58 63.4588 41.5C63.7688 41.42 64.0788 41.38 64.3888 41.38C64.8388 41.38 65.2238 41.44 65.5438 41.56C65.8638 41.68 66.1938 41.815 66.5338 41.965V43.045C66.1538 42.845 65.8138 42.685 65.5138 42.565C65.2138 42.435 64.8588 42.37 64.4488 42.37C64.0388 42.37 63.6688 42.455 63.3388 42.625C63.0188 42.785 62.8588 43.035 62.8588 43.375C62.8588 43.655 62.9388 43.88 63.0988 44.05C63.2688 44.21 63.4888 44.34 63.7588 44.44C64.0288 44.53 64.3188 44.62 64.6288 44.71C64.8788 44.79 65.1388 44.88 65.4088 44.98C65.6788 45.07 65.9288 45.195 66.1588 45.355C66.3888 45.505 66.5738 45.705 66.7138 45.955C66.8638 46.205 66.9388 46.525 66.9388 46.915C66.9388 47.445 66.8038 47.885 66.5338 48.235C66.2638 48.575 65.9188 48.825 65.4988 48.985C65.0888 49.145 64.6688 49.225 64.2388 49.225Z" fill="#708C91"/>
</svg>
