<svg width="46" height="52" viewBox="0 0 46 52" fill="none" xmlns="http://www.w3.org/2000/svg">
<path d="M20.9228 26.6C28.6122 26.6 34.8456 20.8693 34.8456 13.8C34.8456 6.73075 28.6122 1 20.9228 1C13.2334 1 7 6.73075 7 13.8C7 20.8693 13.2334 26.6 20.9228 26.6Z" stroke="#708C91" stroke-linecap="round" stroke-linejoin="round"/>
<path d="M39 33L30.3846 24.3846" stroke="#708C91" stroke-linecap="round" stroke-linejoin="round"/>
<path d="M4.1266 49.15C3.6266 49.15 3.2016 49.115 2.8516 49.045C2.5016 48.975 2.1866 48.875 1.9066 48.745C1.6266 48.615 1.3216 48.465 0.991602 48.295V47.125C1.3116 47.395 1.7416 47.635 2.2816 47.845C2.8216 48.055 3.4516 48.16 4.1716 48.16C4.9316 48.16 5.4816 48 5.8216 47.68C6.1716 47.35 6.3466 46.935 6.3466 46.435C6.3466 46.015 6.2316 45.68 6.0016 45.43C5.7716 45.17 5.4766 44.96 5.1166 44.8C4.7566 44.63 4.3766 44.47 3.9766 44.32C3.6366 44.2 3.2966 44.075 2.9566 43.945C2.6266 43.805 2.3266 43.635 2.0566 43.435C1.7866 43.225 1.5716 42.96 1.4116 42.64C1.2516 42.31 1.1716 41.9 1.1716 41.41C1.1716 41.14 1.2216 40.855 1.3216 40.555C1.4316 40.255 1.6016 39.975 1.8316 39.715C2.0716 39.455 2.3866 39.245 2.7766 39.085C3.1766 38.925 3.6616 38.845 4.2316 38.845C4.6216 38.845 4.9516 38.875 5.2216 38.935C5.5016 38.985 5.7666 39.065 6.0166 39.175C6.2666 39.275 6.5466 39.4 6.8566 39.55V40.66C6.5966 40.51 6.3466 40.375 6.1066 40.255C5.8766 40.125 5.6166 40.025 5.3266 39.955C5.0466 39.875 4.7016 39.835 4.2916 39.835C3.8016 39.835 3.4066 39.905 3.1066 40.045C2.8166 40.185 2.6016 40.37 2.4616 40.6C2.3316 40.83 2.2666 41.075 2.2666 41.335C2.2666 41.745 2.3566 42.07 2.5366 42.31C2.7266 42.55 2.9866 42.75 3.3166 42.91C3.6566 43.06 4.0466 43.21 4.4866 43.36C4.8366 43.48 5.1866 43.615 5.5366 43.765C5.8866 43.905 6.2016 44.085 6.4816 44.305C6.7716 44.515 7.0016 44.785 7.1716 45.115C7.3516 45.435 7.4416 45.835 7.4416 46.315C7.4416 46.765 7.3416 47.21 7.1416 47.65C6.9416 48.08 6.6016 48.44 6.1216 48.73C5.6416 49.01 4.9766 49.15 4.1266 49.15ZM12.6269 49.225C11.9169 49.225 11.3019 49.08 10.7819 48.79C10.2619 48.49 9.86191 48.045 9.58191 47.455C9.30191 46.865 9.16191 46.13 9.16191 45.25C9.16191 43.96 9.45191 42.995 10.0319 42.355C10.6219 41.705 11.4269 41.38 12.4469 41.38C13.2469 41.38 13.8869 41.56 14.3669 41.92C14.8569 42.28 15.2069 42.765 15.4169 43.375C15.6269 43.985 15.7269 44.675 15.7169 45.445H9.70191L9.77691 44.455H15.0119L14.5919 44.605C14.5619 43.855 14.3719 43.295 14.0219 42.925C13.6819 42.555 13.1569 42.37 12.4469 42.37C11.9569 42.37 11.5469 42.46 11.2169 42.64C10.8969 42.82 10.6569 43.135 10.4969 43.585C10.3369 44.025 10.2569 44.645 10.2569 45.445C10.2569 46.355 10.4669 47.05 10.8869 47.53C11.3169 48 11.9169 48.235 12.6869 48.235C13.0569 48.235 13.3969 48.21 13.7069 48.16C14.0169 48.1 14.3019 48.02 14.5619 47.92C14.8219 47.82 15.0519 47.71 15.2519 47.59V48.7C14.8919 48.87 14.4919 49 14.0519 49.09C13.6219 49.18 13.1469 49.225 12.6269 49.225ZM20.32 49.225C19.99 49.225 19.655 49.19 19.315 49.12C18.985 49.05 18.675 48.93 18.385 48.76C18.105 48.59 17.875 48.36 17.695 48.07C17.525 47.77 17.44 47.395 17.44 46.945C17.44 46.325 17.555 45.83 17.785 45.46C18.025 45.08 18.35 44.81 18.76 44.65C19.18 44.48 19.66 44.395 20.2 44.395C20.61 44.395 20.965 44.42 21.265 44.47C21.565 44.52 21.83 44.595 22.06 44.695C22.3 44.785 22.515 44.89 22.705 45.01L22.915 46C22.685 45.83 22.35 45.685 21.91 45.565C21.48 45.435 21.005 45.37 20.485 45.37C19.855 45.37 19.37 45.49 19.03 45.73C18.69 45.97 18.52 46.32 18.52 46.78C18.52 47.15 18.62 47.445 18.82 47.665C19.03 47.885 19.29 48.04 19.6 48.13C19.92 48.22 20.245 48.265 20.575 48.265C21.225 48.265 21.715 48.22 22.045 48.13C22.385 48.03 22.555 47.81 22.555 47.47V44.035C22.555 43.455 22.385 43.03 22.045 42.76C21.705 42.49 21.22 42.355 20.59 42.355C20.19 42.355 19.765 42.415 19.315 42.535C18.875 42.645 18.495 42.825 18.175 43.075V41.995C18.485 41.795 18.9 41.645 19.42 41.545C19.94 41.435 20.445 41.38 20.935 41.38C21.265 41.38 21.57 41.415 21.85 41.485C22.13 41.545 22.38 41.64 22.6 41.77C22.82 41.89 23.005 42.05 23.155 42.25C23.315 42.44 23.435 42.665 23.515 42.925C23.605 43.175 23.65 43.46 23.65 43.78V47.41C23.65 47.94 23.49 48.335 23.17 48.595C22.86 48.855 22.45 49.025 21.94 49.105C21.44 49.185 20.9 49.225 20.32 49.225ZM26.0457 49V42.115C26.1657 42.065 26.3957 41.98 26.7357 41.86C27.0857 41.74 27.5007 41.63 27.9807 41.53C28.4707 41.43 28.9757 41.38 29.4957 41.38C29.5757 41.38 29.6557 41.39 29.7357 41.41C29.8157 41.43 29.8957 41.45 29.9757 41.47V42.43C29.7157 42.4 29.4607 42.385 29.2107 42.385C28.9707 42.385 28.7357 42.4 28.5057 42.43C28.2757 42.45 28.0457 42.48 27.8157 42.52C27.5857 42.56 27.3557 42.6 27.1257 42.64V49H26.0457ZM34.3077 49.12C33.9077 49.12 33.4977 49.07 33.0777 48.97C32.6677 48.86 32.2877 48.67 31.9377 48.4C31.5977 48.12 31.3227 47.725 31.1127 47.215C30.9027 46.705 30.7977 46.05 30.7977 45.25C30.7977 44.45 30.9027 43.8 31.1127 43.3C31.3227 42.79 31.5977 42.395 31.9377 42.115C32.2877 41.835 32.6677 41.645 33.0777 41.545C33.4977 41.435 33.9077 41.38 34.3077 41.38C34.6877 41.38 35.0627 41.415 35.4327 41.485C35.8127 41.555 36.1777 41.66 36.5277 41.8V42.835C36.1977 42.695 35.8577 42.59 35.5077 42.52C35.1577 42.45 34.7977 42.415 34.4277 42.415C33.5377 42.415 32.8877 42.64 32.4777 43.09C32.0777 43.54 31.8777 44.26 31.8777 45.25C31.8777 46.25 32.0777 46.975 32.4777 47.425C32.8877 47.865 33.5377 48.085 34.4277 48.085C34.7977 48.085 35.1577 48.05 35.5077 47.98C35.8577 47.91 36.1977 47.805 36.5277 47.665V48.715C36.1777 48.845 35.8127 48.945 35.4327 49.015C35.0627 49.085 34.6877 49.12 34.3077 49.12ZM38.5555 49V38.2H39.6355V42.355L39.5155 42.07C39.8955 41.86 40.2955 41.695 40.7155 41.575C41.1355 41.445 41.5305 41.38 41.9005 41.38C42.5205 41.38 43.0405 41.495 43.4605 41.725C43.8905 41.955 44.2155 42.305 44.4355 42.775C44.6655 43.235 44.7805 43.83 44.7805 44.56V49H43.7005V44.56C43.7005 43.86 43.5405 43.32 43.2205 42.94C42.9005 42.56 42.4205 42.37 41.7805 42.37C41.4305 42.37 41.0755 42.42 40.7155 42.52C40.3655 42.62 40.0055 42.77 39.6355 42.97V49H38.5555Z" fill="#708C91"/>
</svg>
