<svg width="413" height="446" viewBox="0 0 413 446" fill="none" xmlns="http://www.w3.org/2000/svg">
<path d="M0 0H452.736V272H0V0Z" fill="url(#paint0_linear_12_2)"/>
<mask id="mask0_12_2" style="mask-type:luminance" maskUnits="userSpaceOnUse" x="0" y="111" width="453" height="335">
<path d="M0 111.5H452.131V446H0V111.5Z" fill="white"/>
</mask>
<g mask="url(#mask0_12_2)">
<path d="M2.31718 202.851C2.31718 202.851 28.7103 200.707 50.5257 187.447C50.5257 187.447 71.7193 199.147 83.7008 202.851C95.6822 206.556 119.306 200.707 126.653 207.044C126.653 207.044 142.026 223.422 150.616 225.08C159.207 226.64 171.471 227.712 179.496 220.303C187.465 212.893 188.991 217.67 192.721 220.303C196.394 222.935 201.029 229.857 212.671 215.526C224.314 201.194 229.23 196.417 234.769 199.634C240.308 202.851 251.046 218.158 281.452 231.904C311.857 245.651 330.282 220.79 330.282 220.79C330.282 220.79 333.955 213.868 343.789 213.868C353.623 213.868 384.311 211.723 384.311 211.723L231.322 387.114L35.7749 270.609L2.31718 202.851Z" fill="#669AA2"/>
</g>
<mask id="mask1_12_2" style="mask-type:luminance" maskUnits="userSpaceOnUse" x="0" y="111" width="453" height="335">
<path d="M0 111.5H452.131V446H0V111.5Z" fill="white"/>
</mask>
<g mask="url(#mask1_12_2)">
<path d="M665.706 -34.9352C665.706 -34.9352 633.153 49.2992 605.234 54.5638C605.234 54.5638 592.348 59.8284 590.822 67.8229C589.296 75.8174 585.905 86.3467 580.084 86.9316C574.263 87.4191 562.903 95.901 551.543 86.9316C540.184 77.9622 527.298 78.4497 517.746 91.1238C508.252 103.798 465.582 151.472 445.01 166.876C424.438 182.28 415.565 171.653 415.565 171.653C415.565 171.653 276.761 320.428 213.801 371.71L277.043 449.022L615.633 410.317L684.074 376.39L665.706 -34.9352Z" fill="#A7C6CA"/>
</g>
<mask id="mask2_12_2" style="mask-type:luminance" maskUnits="userSpaceOnUse" x="0" y="111" width="453" height="335">
<path d="M0 111.5H452.131V446H0V111.5Z" fill="white"/>
</mask>
<g mask="url(#mask2_12_2)">
<path d="M-191.138 34.9677C-191.138 34.9677 -166.554 30.1905 -149.373 44.522C-132.192 58.8536 -81.8357 125.539 -62.168 135.581C-42.5003 145.623 -25.6584 145.135 -14.8638 155.665C-4.12567 166.291 10.6251 193.785 31.8187 211.821C53.0124 229.857 182.774 358.548 238.669 361.181L231.322 387.114L30.858 380.192L-121.736 210.748L-191.138 34.9677Z" fill="#91B7BC"/>
</g>
<mask id="mask3_12_2" style="mask-type:luminance" maskUnits="userSpaceOnUse" x="0" y="111" width="453" height="335">
<path d="M0 111.5H452.131V446H0V111.5Z" fill="white"/>
</mask>
<g mask="url(#mask3_12_2)">
<path d="M-258.167 -109.323C-258.167 -109.323 -242.229 -121.997 -232.056 -109.323C-221.883 -96.6485 -174.41 95.0237 -54.9904 220.01C-54.9904 220.01 24.6976 306.584 67.6501 318.284C110.603 329.983 141.969 371.223 180.626 364.886C219.284 358.548 249.689 376.585 265.683 376.585C281.678 376.585 431.163 369.175 431.163 369.175L537.358 363.326L156.663 449.12H-258.054L-258.167 -109.323Z" fill="#BDD4D7"/>
</g>
<mask id="mask4_12_2" style="mask-type:luminance" maskUnits="userSpaceOnUse" x="0" y="111" width="453" height="335">
<path d="M0 111.5H452.131V446H0V111.5Z" fill="white"/>
</mask>
<g mask="url(#mask4_12_2)">
<path d="M-265.74 394.036C-265.74 394.036 -145.078 424.259 98.0559 417.824L71.0411 435.276L-91.0479 442.198L-267.888 438.006L-265.74 394.036Z" fill="#669AA2"/>
</g>
<mask id="mask5_12_2" style="mask-type:luminance" maskUnits="userSpaceOnUse" x="0" y="111" width="453" height="335">
<path d="M0 111.5H452.131V446H0V111.5Z" fill="white"/>
</mask>
<g mask="url(#mask5_12_2)">
<path d="M201.198 410.415C201.198 410.415 170.171 401.445 158.246 403.493C146.264 405.638 82.74 420.457 82.74 420.457C82.74 420.457 69.5151 423.089 44.6479 422.017C44.6479 422.017 30.5188 422.017 20.0633 425.234C9.60779 428.451 -46.5695 436.348 -59.1161 435.861C-71.6628 435.373 -262.632 431.084 -262.632 431.084V449.12L-77.2014 469.788L153.329 453.41L207.359 429.621L201.198 410.415Z" fill="#91B7BC"/>
</g>
<mask id="mask6_12_2" style="mask-type:luminance" maskUnits="userSpaceOnUse" x="0" y="111" width="453" height="335">
<path d="M0 111.5H452.131V446H0V111.5Z" fill="white"/>
</mask>
<g mask="url(#mask6_12_2)">
<path d="M61.8289 421.042C61.8289 421.042 56.6294 423.187 58.4379 426.306C60.303 429.524 65.2199 431.084 63.0157 434.203C60.8116 437.323 54.0862 440.54 38.7702 442.1C23.4543 443.758 -64.9373 446.975 -64.9373 446.975L-139.822 450.192L-306.545 449.12V460.819L-93.8172 454.482L-21.7023 450.777L40.6353 446.585C40.6353 446.585 62.7332 443.368 65.2199 439.175C67.6501 434.983 65.5025 430.206 64.3156 429.134C63.0723 428.061 59.7378 426.989 59.7378 425.429C59.6813 423.674 61.8289 421.042 61.8289 421.042Z" fill="#CDDADC"/>
</g>
<mask id="mask7_12_2" style="mask-type:luminance" maskUnits="userSpaceOnUse" x="0" y="111" width="453" height="335">
<path d="M0 111.5H452.131V446H0V111.5Z" fill="white"/>
</mask>
<g mask="url(#mask7_12_2)">
<path d="M676.444 276.946C676.444 276.946 340.003 374.342 217.814 400.861C217.814 400.861 149.373 418.897 137.391 431.084C125.41 443.27 192.947 434.301 192.947 434.301C192.947 434.301 115.576 449.12 34.8141 455.944C-45.9478 462.866 -258.336 455.944 -258.336 455.944V464.914L20.685 484.022L672.093 480.318L676.444 276.946Z" fill="#538C94"/>
</g>
<path d="M415.621 423.089C415.621 419.482 413.474 416.654 410.761 416.654C410.026 416.654 409.348 416.849 408.783 417.239C407.596 414.9 405.844 413.535 403.923 413.535C401.323 413.535 399.119 416.167 398.101 419.872C397.875 419.774 397.706 419.774 397.48 419.774C395.332 419.774 393.58 422.602 393.58 426.111H415.113C415.452 425.136 415.621 424.161 415.621 423.089Z" fill="#91B7BC"/>
<mask id="mask8_12_2" style="mask-type:luminance" maskUnits="userSpaceOnUse" x="0" y="111" width="453" height="335">
<path d="M0 111.5H452.131V446H0V111.5Z" fill="white"/>
</mask>
<g mask="url(#mask8_12_2)">
<path d="M196.734 441.125C196.734 437.616 194.586 434.691 191.93 434.691C191.195 434.691 190.573 434.886 189.952 435.276C189.242 433.915 188.349 432.877 187.351 432.254C186.353 431.63 185.282 431.44 184.232 431.7C183.181 431.96 182.184 432.663 181.329 433.746C180.473 434.828 179.786 436.258 179.326 437.908C179.1 437.811 178.931 437.811 178.705 437.811C176.557 437.811 174.805 440.638 174.805 444.148H196.225C196.564 443.173 196.734 442.198 196.734 441.125Z" fill="#D3E2E4"/>
</g>
<mask id="mask9_12_2" style="mask-type:luminance" maskUnits="userSpaceOnUse" x="0" y="111" width="453" height="335">
<path d="M0 111.5H452.131V446H0V111.5Z" fill="white"/>
</mask>
<g mask="url(#mask9_12_2)">
<path d="M87.996 428.939C87.996 427.086 86.8657 425.526 85.4527 425.526C85.0571 425.526 84.718 425.624 84.4354 425.819C84.0625 425.102 83.5929 424.554 83.0682 424.224C82.5435 423.895 81.9798 423.793 81.4269 423.928C80.874 424.062 80.3488 424.43 79.8977 424.998C79.4466 425.566 79.0834 426.317 78.8403 427.184H78.5012C77.3709 427.184 76.4666 428.646 76.4666 430.499H87.6569C87.883 430.011 87.996 429.524 87.996 428.939Z" fill="#D3E2E4"/>
</g>
<mask id="mask10_12_2" style="mask-type:luminance" maskUnits="userSpaceOnUse" x="0" y="111" width="453" height="335">
<path d="M0 111.5H452.131V446H0V111.5Z" fill="white"/>
</mask>
<g mask="url(#mask10_12_2)">
<path d="M153.216 414.607C153.216 412.755 152.086 411.195 150.673 411.195C150.277 411.195 149.938 411.292 149.655 411.487C149.282 410.77 148.813 410.223 148.288 409.893C147.763 409.563 147.2 409.461 146.647 409.596C146.094 409.731 145.569 410.099 145.118 410.666C144.666 411.234 144.303 411.985 144.06 412.852H143.721C142.591 412.852 141.687 414.315 141.687 416.167H152.877C153.159 415.68 153.216 415.192 153.216 414.607Z" fill="#D3E2E4"/>
</g>
<mask id="mask11_12_2" style="mask-type:luminance" maskUnits="userSpaceOnUse" x="0" y="111" width="453" height="335">
<path d="M0 111.5H452.131V446H0V111.5Z" fill="white"/>
</mask>
<g mask="url(#mask11_12_2)">
<path d="M376.286 355.916V371.028" stroke="#054752" stroke-width="4" stroke-miterlimit="10"/>
<path d="M381.429 344.802H381.146C380.92 341.78 379.225 339.342 377.247 339.342C375.608 339.342 374.195 340.902 373.573 343.144C373.178 342.657 372.669 342.267 372.16 342.267C371.601 342.25 371.058 342.585 370.631 343.208C370.204 343.831 369.923 344.7 369.84 345.654C369.757 346.608 369.878 347.581 370.18 348.393C370.482 349.205 370.945 349.799 371.482 350.066C371.149 351.054 371.008 352.199 371.08 353.334C371.152 354.47 371.433 355.535 371.882 356.375C372.331 357.215 372.924 357.784 373.574 358C374.224 358.215 374.897 358.066 375.495 357.573C376.116 358.256 376.908 358.743 377.812 358.743C379.507 358.743 380.977 357.086 381.316 354.844H381.429C383.068 354.844 384.368 352.601 384.368 349.774C384.311 347.044 383.011 344.802 381.429 344.802Z" fill="#2E5862"/>
</g>
<mask id="mask12_12_2" style="mask-type:luminance" maskUnits="userSpaceOnUse" x="0" y="111" width="453" height="335">
<path d="M0 111.5H452.131V446H0V111.5Z" fill="white"/>
</mask>
<g mask="url(#mask12_12_2)">
<path d="M396.519 349.579V364.69" stroke="#054752" stroke-width="4" stroke-miterlimit="10"/>
<path d="M401.662 338.465H401.379C401.153 335.442 399.458 333.005 397.48 333.005C395.841 333.005 394.428 334.565 393.806 336.807C393.41 336.32 392.902 335.93 392.393 335.93C391.834 335.913 391.291 336.247 390.864 336.871C390.437 337.494 390.156 338.363 390.073 339.317C389.99 340.271 390.111 341.244 390.413 342.056C390.715 342.868 391.178 343.462 391.715 343.729C391.382 344.717 391.241 345.862 391.313 346.997C391.385 348.133 391.666 349.198 392.115 350.038C392.564 350.877 393.157 351.447 393.807 351.663C394.457 351.878 395.13 351.729 395.728 351.236C396.349 351.919 397.141 352.406 398.045 352.406C399.74 352.406 401.21 350.749 401.549 348.507H401.662C402.434 348.507 403.174 347.978 403.72 347.036C404.266 346.094 404.572 344.817 404.572 343.486C404.572 342.154 404.266 340.877 403.72 339.935C403.174 338.994 402.434 338.465 401.662 338.465Z" fill="#2E5862"/>
</g>
<mask id="mask13_12_2" style="mask-type:luminance" maskUnits="userSpaceOnUse" x="0" y="111" width="453" height="335">
<path d="M0 111.5H452.131V446H0V111.5Z" fill="white"/>
</mask>
<g mask="url(#mask13_12_2)">
<path d="M414.943 343.242V358.353" stroke="#054752" stroke-width="4" stroke-miterlimit="10"/>
<path d="M420.086 332.03H419.804C419.578 329.008 417.882 326.571 415.904 326.571C414.265 326.571 412.852 328.13 412.23 330.373C411.835 329.885 411.326 329.495 410.817 329.495C410.258 329.479 409.715 329.813 409.288 330.436C408.861 331.059 408.58 331.928 408.497 332.882C408.414 333.836 408.535 334.81 408.837 335.621C409.139 336.433 409.602 337.028 410.139 337.295C409.806 338.282 409.666 339.427 409.738 340.563C409.81 341.698 410.091 342.764 410.539 343.603C410.988 344.443 411.581 345.012 412.231 345.228C412.881 345.444 413.555 345.294 414.152 344.802C414.774 345.484 415.565 345.972 416.469 345.972C418.165 345.972 419.634 344.314 419.973 342.072H420.086C421.725 342.072 423.025 339.83 423.025 337.002C423.025 334.37 421.725 332.03 420.086 332.03Z" fill="#2E5862"/>
</g>
<mask id="mask14_12_2" style="mask-type:luminance" maskUnits="userSpaceOnUse" x="0" y="111" width="453" height="335">
<path d="M0 111.5H452.131V446H0V111.5Z" fill="white"/>
</mask>
<g mask="url(#mask14_12_2)">
<path opacity="0.4" d="M159.081 265.16L363.897 265.16C365.219 265.16 366.29 263.312 366.29 261.032V192.724C366.29 190.444 365.219 188.596 363.897 188.596L159.081 188.596C157.76 188.596 156.688 190.444 156.688 192.724V261.032C156.688 263.312 157.76 265.16 159.081 265.16Z" fill="white"/>
<path d="M340.029 218.879L343.86 218.967C343.86 218.967 344.44 221.952 344.352 227.53C344.352 227.764 341.054 229.38 341.054 229.38L340.029 218.879Z" fill="#DDB68D"/>
<path d="M338.937 213.535C339.024 213.89 339.081 214.265 339.106 214.648C339.106 215.233 338.899 215.906 338.906 216.257C338.981 219.184 338.594 218.903 338.74 219.974C338.849 220.776 339.446 220.817 340.437 221.144C341.169 221.39 342.985 219.974 343.283 219.763C344.64 218.686 345.177 214.074 345.177 212.189C345.177 208.227 343.283 207.758 341.885 208.192C341.211 208.389 340.581 208.896 340.06 209.661C339.252 210.866 338.872 213.243 338.937 213.535Z" fill="#DDB68D"/>
<path d="M340.321 213.566C340.152 213.313 339.94 213.163 339.716 213.139C339.493 213.116 339.272 213.221 339.086 213.437" fill="black"/>
<g style="mix-blend-mode:multiply">
<path d="M339.71 214.946C339.813 214.946 339.897 214.802 339.897 214.624C339.897 214.446 339.813 214.302 339.71 214.302C339.607 214.302 339.524 214.446 339.524 214.624C339.524 214.802 339.607 214.946 339.71 214.946Z" fill="#014753"/>
</g>
<path d="M339.178 213.928C338.967 214.812 338.73 215.678 338.469 216.52C338.448 216.614 338.91 216.743 338.964 216.743C339.018 216.743 339.178 213.928 339.178 213.928Z" fill="#DDB68D"/>
<g style="mix-blend-mode:multiply" opacity="0.67">
<path d="M342.198 221.326C342.123 221.396 342.625 224.984 340.711 225.967L340.253 221.074L342.198 221.326Z" fill="#DDB68D"/>
</g>
<g style="mix-blend-mode:multiply">
<path d="M338.923 217.316C338.923 217.316 339.425 217.533 339.415 217.691C339.395 218.019 338.886 218.054 338.886 218.054L338.923 217.316Z" fill="#DDB68D"/>
</g>
<path d="M338.896 216.661C338.896 216.661 340.087 216.825 340.087 217.498C340.087 217.539 338.923 217.317 338.923 217.317L338.896 216.661ZM338.855 211.569C338.855 211.569 340.433 204.545 344.624 208.461C346.537 210.252 345.804 215.309 344.172 219.582C344.149 219.64 343.185 219.857 342.934 219.143C342.625 218.253 342.537 215.016 342.537 215.016L341.458 215.408C341.458 215.408 341.329 213.102 341.119 213.003C339.164 212.055 338.855 211.569 338.855 211.569Z" fill="black"/>
<g style="mix-blend-mode:multiply" opacity="0.67">
<path d="M342.669 214.372C342.669 214.372 342.737 215.713 342.364 215.959C342.202 216.053 342.027 216.053 341.865 215.959C341.865 215.959 341.997 217.931 342.622 217.492C343.246 217.053 342.669 214.372 342.669 214.372Z" fill="#DDB68D"/>
</g>
<path d="M341.906 214.835C341.906 214.835 342.245 213.623 342.567 214.121C342.644 214.269 342.696 214.452 342.715 214.648C342.734 214.844 342.721 215.046 342.677 215.23C342.632 215.413 342.559 215.572 342.464 215.686C342.37 215.801 342.259 215.867 342.143 215.877C341.77 215.877 341.736 215.724 341.736 215.724L341.906 214.835Z" fill="#DDB68D"/>
<g style="mix-blend-mode:multiply">
<path d="M342.198 214.852C342.198 214.804 342.207 214.757 342.224 214.717C342.24 214.678 342.263 214.648 342.289 214.631C342.316 214.615 342.345 214.613 342.372 214.625C342.399 214.637 342.423 214.663 342.442 214.7V214.753C342.447 214.805 342.447 214.859 342.442 214.911C342.441 214.97 342.434 215.029 342.42 215.083C342.406 215.137 342.386 215.186 342.36 215.227C342.335 215.267 342.302 215.289 342.267 215.289C342.233 215.289 342.199 215.267 342.174 215.227L342.198 214.852Z" fill="#DDB68D"/>
</g>
<path d="M337.474 233.43C338.231 231.13 340.793 225.944 340.793 225.944L344.186 224.972C344.186 224.972 346.629 227.958 347.24 232.933C347.263 233.12 347.026 238.347 347.026 238.347H336.762C336.762 238.347 337.454 233.489 337.474 233.43Z" fill="#DDB68D"/>
<path d="M344.203 223.942L339.951 227.688L337.41 233.495L336.731 238.446H347.067L347.297 232.505C347.297 232.505 346.408 228.01 345.014 226.196L344.203 223.942Z" fill="#1D6D75"/>
<path d="M344.301 223.585L339.934 227.747L344.759 224.972L344.301 223.585Z" fill="#054752"/>
<path d="M341.315 240.032L337.868 234.484L341.315 229.93L343.728 231.118L344.301 234.882L341.315 240.032Z" fill="#054752"/>
<path d="M337.868 234.484L341.315 240.032L341.085 240.43L337.637 234.882L337.868 234.484Z" fill="#005156"/>
<path d="M308.386 214.364C308.386 214.364 308.909 218.613 307.484 220.691C304.701 224.753 307.246 229.119 309.519 228.118C311.793 227.118 311.08 218.947 311.08 218.947L308.386 214.364Z" fill="#F1890E"/>
<g style="mix-blend-mode:multiply">
<path d="M308.929 215.476C308.929 215.476 309.068 219.28 308.047 221.943C306.808 225.174 308.128 228.452 309.204 228.265C309.414 228.224 311.352 223.904 311.352 223.904C311.352 223.904 309.428 215.458 308.929 215.476Z" fill="#F5B240"/>
</g>
<path d="M308.939 218.32L311.206 218.197C312.05 220.325 312.47 222.868 312.403 225.444C312.403 225.625 309.75 226.924 309.75 226.924L308.939 218.32Z" fill="#F9CFC4"/>
<path d="M312.074 227.65C312.074 227.65 312.291 230.226 310.995 234.715C309.699 239.204 304.99 245.11 304.674 245.251C302.452 246.386 302.394 243.301 302.859 241.739C303.249 240.404 304.281 237.442 307.063 231.548C308.349 228.827 310.558 225.098 312.074 227.65Z" fill="#F9CFC4"/>
<path d="M308.624 237.63C308.624 237.63 305.729 238.075 305.729 235.136C305.729 233.574 305.801 234.633 308.189 228.768" fill="#E9CA91"/>
<path d="M296.836 255.657C296.707 256.142 296.551 256.605 296.371 257.039C296.323 257.486 296.257 257.926 296.171 258.356C296.209 258.7 296.258 259.04 296.317 259.374C296.33 259.483 296.325 259.595 296.302 259.699C296.279 259.803 296.24 259.893 296.188 259.959L295.622 258.203L295.764 256.652L295.886 254.838C295.972 254.723 296.075 254.654 296.183 254.64C296.291 254.627 296.399 254.669 296.494 254.762C296.668 254.977 296.79 255.296 296.836 255.657ZM307.453 230.571C308.016 229.506 309.428 223.623 309.428 223.623L312.597 223.372C312.597 223.372 314.602 226.778 314.887 229.494C315.053 231.362 315.067 233.261 314.928 235.136H307.765C307.765 235.136 307.426 230.647 307.453 230.571Z" fill="#F9CFC4"/>
<g style="mix-blend-mode:multiply" opacity="0.69">
<path d="M310.5 219.415C310.612 220.316 310.276 223.354 309.482 223.84L308.993 218.876L310.5 219.415Z" fill="#F9CFC4"/>
</g>
<path d="M308.077 214.475C308.115 215.458 308.118 216.26 308.118 216.921V217.419C308.118 219.614 308.05 219.912 309.109 220.217C309.703 220.392 311.26 218.9 311.385 218.525C311.847 217.185 312.492 215.294 312.492 213.884C312.505 213.312 312.451 212.741 312.332 212.207C312.213 211.672 312.032 211.185 311.8 210.776C311.568 210.367 311.29 210.043 310.983 209.826C310.676 209.608 310.346 209.501 310.015 209.511C309.624 209.567 309.25 209.805 308.933 210.202C308.616 210.598 308.368 211.137 308.216 211.759C307.975 213.088 308.033 213.222 308.077 214.475Z" fill="#F9CFC4"/>
<g style="mix-blend-mode:multiply">
<path d="M309.258 213.901C309.22 213.843 309.176 213.795 309.129 213.761C309.063 213.715 308.993 213.683 308.922 213.667C308.695 213.623 308.465 213.651 308.244 213.749C308.155 213.784 308.121 213.556 308.206 213.521C308.456 213.412 308.714 213.384 308.97 213.439C309.115 213.469 309.253 213.571 309.367 213.732C309.431 213.837 309.333 214.001 309.268 213.901H309.258Z" fill="#EDB6AB"/>
</g>
<g style="mix-blend-mode:multiply">
<path d="M308.78 214.838C308.862 214.838 308.929 214.722 308.929 214.58C308.929 214.438 308.862 214.323 308.78 214.323C308.697 214.323 308.63 214.438 308.63 214.58C308.63 214.722 308.697 214.838 308.78 214.838Z" fill="#014753"/>
</g>
<path d="M308.179 214.223C308.152 214.288 307.921 215.095 307.782 215.435C307.684 215.669 307.782 215.692 307.931 215.763L308.172 215.839C308.332 215.862 308.179 214.223 308.179 214.223Z" fill="#F9CFC4"/>
<path d="M308.23 217.419C308.306 217.411 308.378 217.365 308.439 217.285C308.499 217.206 308.545 217.098 308.569 216.974L308.23 216.921V217.419Z" fill="white"/>
<path d="M310.527 210.7C310.486 210.7 310.412 211.443 310.032 211.449C308.834 211.449 307.694 210.863 307.996 208.844C308.176 207.674 309.014 207.492 310.344 208.23C312.173 209.225 313.218 211.092 313.421 212.104C313.764 213.743 310.527 210.7 310.527 210.7Z" fill="#F1890E"/>
<path d="M309.448 209.909C309.395 211.075 309.555 212.24 309.906 213.24C310.15 213.913 311.46 214.457 311.494 215.505C311.494 216.026 311.05 216.834 311.022 217.501C310.812 222.265 310.575 227.919 314.314 228.347C316.665 228.616 317.971 227.211 317.629 222.81C317.51 221.317 316.38 219.713 314.527 219.239C314.114 219.134 313.774 215.827 313.655 213.538C313.59 212.441 313.3 211.42 312.838 210.659C312.838 210.659 310.466 208.768 309.448 209.909Z" fill="#F1890E"/>
<g style="mix-blend-mode:multiply" opacity="0.69">
<path d="M311.64 215.019C311.64 215.101 312.088 217.671 311.056 218.297C310.948 218.361 310.985 216.541 310.985 216.541L311.64 215.019Z" fill="#F9CFC4"/>
</g>
<path d="M310.914 215.265C310.914 215.265 311.321 214.428 311.569 214.826C311.816 215.224 311.369 216.734 311.087 216.582C310.805 216.43 310.795 216.161 310.795 216.161L310.914 215.265Z" fill="#F9CFC4"/>
<g style="mix-blend-mode:multiply">
<path d="M311.104 215.335C311.137 215.296 311.178 215.28 311.218 215.288C311.257 215.297 311.294 215.33 311.321 215.382C311.334 215.419 311.343 215.461 311.345 215.505C311.351 215.552 311.352 215.6 311.348 215.647C311.343 215.695 311.333 215.74 311.318 215.78C311.302 215.819 311.278 215.847 311.251 215.858C311.224 215.868 311.196 215.862 311.172 215.839" fill="#F9CFC4"/>
</g>
<path d="M278.188 219.017L282.005 219.11C282.005 219.11 282.586 222.084 282.497 227.644C282.497 227.873 279.209 229.488 279.209 229.488L278.188 219.017Z" fill="#FACCA3"/>
<path d="M275.711 233.064C276.468 230.758 279.03 225.578 279.03 225.578L282.423 224.601C282.423 224.601 284.866 227.586 285.476 232.567C285.5 232.754 285.263 237.981 285.263 237.981H274.999C274.999 237.981 275.691 233.123 275.711 233.064ZM276.902 220.17C277.011 220.925 277.605 220.966 278.599 221.288H278.623C278.767 221.323 278.913 221.323 279.057 221.288C279.336 221.215 279.611 221.107 279.881 220.966C280.408 220.687 280.926 220.359 281.432 219.983C282.789 218.958 283.322 214.592 283.322 212.807C283.322 209.055 281.435 208.61 280.041 209.02C279.375 209.203 278.748 209.683 278.222 210.413C277.418 211.542 277.038 213.796 277.102 214.071C277.189 214.406 277.246 214.761 277.272 215.125C277.272 215.71 277.065 216.295 277.072 216.646V216.945C277.116 219.415 276.763 219.192 276.902 220.17Z" fill="#FACCA3"/>
<path opacity="0.47" d="M278.47 213.721C278.301 213.469 278.089 213.32 277.867 213.297C277.644 213.273 277.423 213.377 277.238 213.592" fill="#95ABBD"/>
<g style="mix-blend-mode:multiply">
<path d="M277.869 215.101C277.972 215.101 278.056 214.957 278.056 214.779C278.056 214.601 277.972 214.457 277.869 214.457C277.766 214.457 277.683 214.601 277.683 214.779C277.683 214.957 277.766 215.101 277.869 215.101Z" fill="#014753"/>
</g>
<path d="M277.34 214.089C277.129 214.969 276.892 215.831 276.631 216.67C276.631 216.763 277.072 216.892 277.126 216.892C277.282 216.552 277.384 216.149 277.425 215.722C277.45 215.173 277.421 214.621 277.34 214.089Z" fill="#FACCA3"/>
<g style="mix-blend-mode:multiply" opacity="0.67">
<path d="M280.35 221.458C280.272 221.528 280.777 225.104 278.867 226.087L278.412 221.235L280.35 221.458Z" fill="#FACCA3"/>
</g>
<g style="mix-blend-mode:multiply">
<path d="M277.085 217.46C277.085 217.46 277.584 217.676 277.574 217.835C277.554 218.162 277.048 218.192 277.048 218.192L277.085 217.46Z" fill="#FACCA3"/>
</g>
<g style="mix-blend-mode:multiply" opacity="0.47">
<path d="M276.902 220.17C277.011 220.925 277.605 220.966 278.599 221.288H279.057C279.227 221.275 279.397 221.243 279.566 221.194C279.679 221.157 279.787 221.079 279.881 220.966C280.56 220.182 280.584 217.846 280.584 217.846L277.089 216.834V216.945C277.116 219.415 276.763 219.192 276.902 220.17Z" fill="#95ABBD"/>
</g>
<path d="M280.628 212.502C280.628 212.502 277.411 212.76 276.963 212.046C276.515 211.332 275.128 207.275 277.523 207.275C278.988 207.317 280.391 208.307 281.452 210.05L280.628 212.502Z" fill="#F5B240"/>
<path d="M282.453 223.576L278.202 227.322L275.66 233.123L274.982 238.08H285.317L285.548 232.134C285.548 232.134 284.659 227.644 283.264 225.83L282.453 223.576Z" fill="#2ED1FF"/>
<path d="M282.538 223.219L278.171 227.381L282.996 224.607L282.538 223.219Z" fill="white"/>
<path d="M278.042 210.343C278.042 210.343 280.115 205.724 283.179 208.873C285.042 210.793 284.218 215.587 282.161 219.678C282.131 219.737 281.245 219.374 280.998 218.66C280.689 217.77 280.709 215.148 280.709 215.148L279.63 215.534C279.63 215.534 279.352 213.491 279.291 213.134C279.06 211.624 278.042 210.343 278.042 210.343Z" fill="#F5B240"/>
<g style="mix-blend-mode:multiply" opacity="0.67">
<path d="M280.818 214.528C280.818 214.528 280.889 215.862 280.516 216.108C280.354 216.202 280.179 216.202 280.017 216.108C280.017 216.108 280.149 218.075 280.774 217.641C281.398 217.208 280.818 214.528 280.818 214.528Z" fill="#FACCA3"/>
</g>
<path d="M280.058 214.99C280.058 214.99 280.397 213.778 280.716 214.276C280.794 214.423 280.847 214.606 280.867 214.803C280.887 215 280.874 215.203 280.829 215.388C280.785 215.572 280.711 215.731 280.615 215.845C280.52 215.959 280.408 216.024 280.292 216.032C279.925 216.032 279.888 215.88 279.888 215.88L280.058 214.99Z" fill="#FACCA3"/>
<g style="mix-blend-mode:multiply">
<path d="M280.35 215.007C280.35 214.785 280.523 214.674 280.59 214.855V214.908C280.597 214.96 280.597 215.014 280.59 215.066C280.59 215.125 280.583 215.183 280.57 215.238C280.556 215.292 280.537 215.341 280.512 215.382C280.487 215.422 280.454 215.444 280.419 215.444C280.385 215.444 280.351 215.422 280.326 215.382L280.35 215.007Z" fill="#FACCA3"/>
</g>
<path opacity="0.3" d="M282.168 233.275C282.168 233.275 282.284 235.821 281.334 237.296C280.21 239.052 275.47 246.421 275.189 246.568C273.211 247.598 273.353 244.478 273.764 243.056C274.174 241.633 274.989 237.928 276.563 235.078C277.968 232.538 280.614 228.118 282.168 233.275Z" fill="#8F4160"/>
<path d="M274.544 246.006C273.76 246.374 273.55 245.549 273.55 245.549C272.692 241.177 271.769 235.529 271.239 232.731C271.193 232.373 271.169 232.008 271.168 231.642L272.24 230.583C277.472 242.822 275.328 245.631 274.544 246.006ZM271.443 227.188C271.392 226.722 271.313 226.267 271.205 225.83C271.213 225.428 271.207 225.025 271.185 224.624C271.256 224.337 271.338 224.057 271.429 223.787C271.454 223.699 271.463 223.601 271.456 223.505C271.449 223.408 271.425 223.317 271.389 223.243L270.683 224.589L270.625 225.988L270.517 227.598C270.59 227.716 270.68 227.799 270.778 227.836C270.876 227.873 270.978 227.864 271.073 227.808C271.164 227.781 271.248 227.707 271.314 227.596C271.379 227.486 271.425 227.343 271.443 227.188Z" fill="#FACCA3"/>
<path d="M272.406 227.352C272.437 227.65 272.406 228.282 272.427 228.522C272.481 229.465 272.342 229.751 272.284 231.589C272.22 233.585 271.266 233.263 271.185 232.444C271.158 232.181 271.165 231.806 271.127 231.543C270.881 230.287 270.672 229.012 270.5 227.72C270.5 227.72 270.618 227.082 270.91 226.995C271.012 226.949 271.12 226.96 271.218 227.026C271.316 227.092 271.4 227.21 271.456 227.363C271.487 227.516 271.514 227.715 271.663 227.679C271.874 227.562 271.938 227.352 271.942 226.954C271.911 226.105 272.047 225.812 272.179 225.818C272.176 226.093 272.369 226.889 272.406 227.352Z" fill="#FACCA3"/>
<path d="M271.456 227.656C271.454 227.179 271.428 226.703 271.378 226.234C271.433 225.848 271.473 225.457 271.497 225.063C271.602 224.806 271.715 224.56 271.836 224.326C271.87 224.247 271.891 224.153 271.894 224.056C271.898 223.958 271.885 223.861 271.857 223.775L271.012 224.852L270.795 226.204L270.5 227.75C270.544 227.898 270.614 228.021 270.699 228.101C270.784 228.181 270.881 228.216 270.978 228.2C271.173 228.134 271.344 227.938 271.456 227.656ZM281.941 232.877C281.941 232.877 282.053 235.429 281.103 236.898C279.98 238.654 275.24 246.023 274.958 246.169C272.98 247.2 273.122 244.086 273.533 242.658C273.943 241.229 274.758 237.53 276.332 234.68C277.737 232.145 280.383 227.72 281.941 232.877Z" fill="#FACCA3"/>
<path d="M279.552 239.661L276.105 234.118L279.552 229.558L281.965 230.747L282.538 234.51L279.552 239.661Z" fill="#19B4D8"/>
<path d="M276.105 234.118L279.552 239.661L279.321 240.059L275.874 234.51L276.105 234.118Z" fill="white"/>
<g style="mix-blend-mode:multiply">
<path d="M249.716 225.587C249.716 225.587 252.026 225.628 251.969 230.855C251.941 233.331 251.534 243.258 251.392 243.661C250.404 246.488 249.431 244.545 249.224 243.076C249.051 241.847 248.725 236.398 248.491 232.681C248.358 230.398 248.039 225.335 249.716 225.587Z" fill="#CD904D"/>
</g>
<path d="M246.76 226.044L248.545 222.397C248.545 222.397 253.183 223.673 254.208 227.911C255.881 234.835 255.854 245.868 255.854 245.868L249.288 246.014L246.76 226.044Z" fill="#CD904D"/>
<path d="M244.999 222.116L247.273 219.189C247.273 219.189 249.183 223.152 249.376 224.141C249.414 224.317 246.794 226.354 246.794 226.354L244.999 222.116Z" fill="#CD904D"/>
<path d="M243.578 216.714C243.578 217.006 243.744 217.41 243.72 217.586C243.678 218.058 243.693 218.54 243.764 219.002C244.124 221.343 243.944 221.185 244.165 221.999C244.331 222.584 244.728 222.965 245.522 222.912C246.102 222.877 247.249 220.694 247.449 220.407C248.379 219.084 248.294 215.198 248.101 213.682C247.69 210.48 246.211 210.726 245.196 211.534C243.683 212.71 243.54 215.59 243.578 216.714Z" fill="#CD904D"/>
<g style="mix-blend-mode:multiply">
<path d="M244.528 216.374C244.397 216.268 244.251 216.231 244.108 216.266C243.965 216.302 243.832 216.409 243.724 216.574" fill="#CD904D"/>
</g>
<path d="M244.188 218.148C244.269 218.148 244.334 218.027 244.334 217.878C244.334 217.73 244.269 217.609 244.188 217.609C244.108 217.609 244.043 217.73 244.043 217.878C244.043 218.027 244.108 218.148 244.188 218.148Z" fill="#014753"/>
<path d="M243.744 216.924C243.432 218.341 243.367 218.844 243.52 218.996C243.578 219.051 243.642 219.079 243.708 219.079C243.774 219.079 243.839 219.051 243.897 218.996C244.005 218.856 243.761 216.901 243.744 216.924Z" fill="#CD904D"/>
<g style="mix-blend-mode:multiply" opacity="0.67">
<path d="M246.397 222.251C246.356 222.298 246.794 224.253 246.397 225.493L245.315 222.912L246.397 222.251Z" fill="#CD904D"/>
</g>
<g style="mix-blend-mode:multiply" opacity="0.67">
<path d="M245.033 221.355C244.49 221.601 244.243 220.056 244.297 219.827" stroke="#CD904D" stroke-width="0.612368" stroke-miterlimit="10"/>
</g>
<g style="mix-blend-mode:multiply" opacity="0.67">
<path d="M243.92 217.978C243.96 218.157 244.022 218.318 244.102 218.45C244.183 218.581 244.28 218.68 244.385 218.739C244.592 218.85 245.02 218.739 245.064 218.154" fill="#CD904D"/>
</g>
<path d="M244.399 219.628C244.226 219.353 243.961 219.043 243.744 219.201V220.799L244.735 220.647C244.669 220.268 244.554 219.919 244.399 219.628Z" fill="#A9B7C0"/>
<path d="M248.698 222.438C248.698 222.438 253.563 223.819 254.466 227.934C255.245 231.761 255.702 235.76 255.823 239.81C256.098 246.746 255.755 245.827 255.755 245.827L249.19 245.973L246.774 226.699C246.774 226.699 248.945 224.82 248.698 222.438Z" fill="#054752"/>
<g style="mix-blend-mode:multiply">
<path d="M251.626 225.447C251.626 225.447 253.445 227.905 251.561 231.99C250.669 233.928 246.849 241.385 246.594 241.554C244.813 242.766 244.724 240.196 245.077 238.815C245.376 237.644 247.035 232.962 248.158 229.79C248.837 227.852 250.364 223.497 251.626 225.447Z" fill="#CD904D"/>
</g>
<path d="M251.636 225.447C251.636 225.447 253.455 227.905 251.572 231.99C250.679 233.928 246.859 241.385 246.604 241.554C244.823 242.766 244.735 240.196 245.091 238.815C245.386 237.644 247.049 232.962 248.168 229.79C248.847 227.852 250.394 223.497 251.636 225.447Z" fill="#01353A"/>
<g style="mix-blend-mode:multiply" opacity="0.67">
<path d="M246.445 217.246C246.445 217.246 246.635 218.306 246.38 218.628C246.27 218.758 246.137 218.82 246.004 218.803C246.004 218.803 246.306 220.354 246.733 219.798C247.161 219.242 246.445 217.246 246.445 217.246Z" fill="#CD904D"/>
</g>
<path d="M242.536 214.068C242.298 213.837 242.102 213.495 241.971 213.081C241.84 212.667 241.78 212.198 241.796 211.727C241.818 211.258 241.913 210.809 242.071 210.426C242.23 210.044 242.446 209.743 242.695 209.555C242.875 209.418 243.073 209.366 243.269 209.403C243.71 209.514 244.025 210.193 244.439 210.486C244.524 210.249 244.646 210.06 244.792 209.942C244.938 209.825 245.101 209.784 245.261 209.825C245.419 209.869 245.572 209.969 245.708 210.116C245.844 210.264 245.962 210.458 246.055 210.685C246.112 210.825 246.177 210.983 246.275 211.001C246.352 210.993 246.426 210.948 246.489 210.872C246.678 210.753 246.883 210.73 247.08 210.806C247.276 210.882 247.456 211.053 247.598 211.3C248.199 212.183 248.956 212.722 248.555 215.485C248.358 216.807 248.28 217.726 248.039 219.026C247.337 219.459 246.424 219.301 246.563 217.621C246.421 217.802 245.885 217.381 245.749 217.17C245.613 216.96 245.647 214.109 244.392 213.904C243.72 213.805 243.235 214.724 242.536 214.068Z" fill="#A9B7C0"/>
<path d="M245.915 217.873C245.915 217.873 246.058 216.778 246.343 217.077C246.628 217.375 246.625 218.651 246.343 218.592C246.183 218.567 246.027 218.481 245.888 218.341L245.915 217.873Z" fill="#CD904D"/>
<g style="mix-blend-mode:multiply">
<path d="M246.139 217.791C246.116 217.609 246.235 217.463 246.306 217.592C246.308 217.603 246.308 217.615 246.306 217.627C246.319 217.664 246.327 217.706 246.33 217.75C246.34 217.846 246.331 217.945 246.303 218.031C246.288 218.07 246.265 218.099 246.238 218.111C246.212 218.123 246.184 218.117 246.16 218.095L246.139 217.791Z" fill="#CD904D"/>
</g>
<path d="M213.599 214.604C213.364 215.13 213.083 215.593 212.818 216.079C212.397 216.857 211.098 218.566 211.122 220.626C211.145 224.015 212.479 224.63 213.385 224.724C213.629 224.823 213.882 224.845 214.131 224.788C214.511 224.577 215.346 223.963 215.56 223.389C216.272 221.493 215.22 218.016 215.56 215.839C215.736 214.668 216.045 212.139 215.139 211.607C214.993 211.514 214.833 211.515 214.688 211.611C214.543 211.707 214.424 211.891 214.352 212.128C214.063 212.941 213.945 213.837 213.599 214.604Z" fill="black"/>
<path d="M213.941 215.763L216.252 215.833C217.054 218.067 217.411 220.691 217.27 223.307C217.27 223.495 214.528 224.589 214.528 224.589L213.941 215.763Z" fill="#947347"/>
<g style="mix-blend-mode:multiply" opacity="0.64">
<path d="M215.916 216.459C215.852 216.506 215.845 219.778 214.257 220.451L213.917 215.973L215.916 216.459Z" fill="#947347"/>
</g>
<path d="M213.249 211.659C213.371 212.526 213.157 212.924 213.144 213.486C213.066 216.248 212.866 217.261 214.057 217.712C214.654 217.94 216.279 216.541 216.432 216.19C216.937 214.861 217.65 212.988 217.691 211.554C217.72 210.974 217.681 210.39 217.575 209.837C217.47 209.284 217.3 208.774 217.076 208.339C216.852 207.903 216.579 207.551 216.273 207.304C215.967 207.056 215.636 206.919 215.298 206.901C214.9 206.921 214.512 207.13 214.177 207.505C213.843 207.879 213.575 208.405 213.402 209.026C213.11 210.337 213.076 210.436 213.249 211.659Z" fill="#947347"/>
<g style="mix-blend-mode:multiply">
<path d="M214.348 211.472C214.259 211.302 214.14 211.185 214.009 211.139C213.847 211.103 213.683 211.103 213.521 211.139C213.505 211.132 213.491 211.117 213.48 211.095C213.47 211.074 213.465 211.047 213.465 211.019C213.465 210.991 213.47 210.963 213.48 210.942C213.491 210.92 213.505 210.905 213.521 210.899C213.7 210.874 213.88 210.888 214.057 210.94C214.203 211.003 214.335 211.14 214.437 211.332C214.449 211.354 214.456 211.384 214.456 211.416C214.455 211.447 214.448 211.477 214.435 211.499C214.422 211.52 214.404 211.532 214.386 211.532C214.368 211.531 214.351 211.518 214.338 211.496L214.348 211.472Z" fill="#947347"/>
</g>
<path d="M213.884 212.21C213.968 212.21 214.036 212.092 214.036 211.946C214.036 211.801 213.968 211.683 213.884 211.683C213.799 211.683 213.731 211.801 213.731 211.946C213.731 212.092 213.799 212.21 213.884 212.21Z" fill="black"/>
<path d="M213.266 211.642C213.194 212.08 213.079 212.494 212.927 212.865C212.794 213.181 213.025 213.497 213.195 213.515H213.151C213.748 212.906 213.266 211.642 213.266 211.642Z" fill="#947347"/>
<g style="mix-blend-mode:multiply">
<path d="M213.266 213.796C213.471 214.002 213.664 214.241 213.843 214.51C213.755 215.095 213.242 215.095 213.242 215.095C213.242 215.095 212.777 214.867 213.083 214.428C213.198 214.258 212.94 213.895 213.266 213.796Z" fill="#573A22"/>
</g>
<path d="M217.453 223.916C217.453 223.916 217.674 226.491 216.374 230.981C215.075 235.47 210.372 241.382 210.053 241.516C207.83 242.652 207.773 239.573 208.238 238.004C208.628 236.67 209.663 233.708 212.445 227.82C213.731 225.092 215.936 221.364 217.453 223.916Z" fill="#947347"/>
<path d="M220.527 231.548L218.637 244.536L213.001 244.63L212.431 231.379L220.527 231.548Z" fill="#E9CA91"/>
<path d="M213.992 233.901C213.992 233.901 211.095 234.34 211.095 231.402C211.095 229.839 211.169 230.905 213.558 225.034" fill="#E9CA91"/>
<path d="M218.814 221.247C218.135 222.51 217.195 223.258 216.198 223.331C214.572 223.395 214.209 222.289 214.209 222.289L213.87 223.459L211.111 230.647C211.111 230.647 210.531 232.959 212.56 233.901L213.018 244.613L218.654 244.513C218.654 244.513 221.236 231.9 220.727 227.486C220.218 223.073 218.831 221.223 218.831 221.223" fill="white"/>
<path d="M219.648 224.25C219.648 224.25 221.453 226.702 220.466 231.42C219.893 234.171 217.697 245.297 217.453 245.678C215.74 248.376 214.908 245.649 214.925 243.863C214.925 242.371 214.976 235.769 215.913 231.654C216.656 228.382 217.64 223.097 219.648 224.25Z" fill="#947347"/>
<path d="M220.055 234.791C220.055 234.791 222.244 224.571 219.346 223.986C216.785 223.465 215.424 232.807 215.424 232.807L220.055 234.791Z" fill="white"/>
<path d="M222.135 225.145C221.535 225.467 220.883 225.145 220.296 224.77C219.654 224.355 219.029 223.862 218.427 223.296C218.189 223.102 217.978 222.825 217.806 222.482C217.638 222.031 217.535 221.517 217.507 220.984C217.386 220.292 217.413 219.549 217.582 218.888C217.678 218.638 217.806 218.429 217.956 218.278C218.106 218.127 218.274 218.037 218.447 218.016C219.625 217.805 221.005 219.444 221.874 220.703C222.241 221.229 222.831 222.02 222.973 222.816C223.15 223.816 222.675 224.858 222.135 225.145Z" fill="black"/>
<path d="M222.831 216.957C223.175 217.115 223.477 217.47 223.689 217.963C223.793 218.347 223.839 218.77 223.822 219.192C223.84 219.623 223.791 220.053 223.679 220.439C223.571 220.691 223.428 220.892 223.263 221.024C223.099 221.156 222.917 221.215 222.736 221.194C221.762 221.194 220.955 219.965 220.066 219.28C219.663 219.03 219.272 218.729 218.895 218.379C218.708 218.201 218.55 217.943 218.438 217.629C218.325 217.315 218.262 216.956 218.254 216.588C218.362 212.731 221.969 216.383 222.831 216.957Z" fill="black"/>
<path d="M217.131 212.379C217.328 212.655 217.561 212.843 217.81 212.928C218.059 213.013 218.316 212.991 218.559 212.865C218.658 213.706 218.858 214.501 219.147 215.199C219.436 215.897 219.807 216.482 220.235 216.916C220.466 217.201 220.734 217.382 221.016 217.442C221.258 217.451 221.499 217.38 221.725 217.232C222.011 217.107 222.279 216.882 222.512 216.571C222.746 216.26 222.94 215.869 223.082 215.423C223.162 215.103 223.197 214.755 223.184 214.407C223.172 214.059 223.112 213.721 223.009 213.421C222.907 213.12 222.765 212.866 222.595 212.678C222.425 212.49 222.231 212.373 222.03 212.338C221.691 212.28 221.324 212.467 220.978 212.338C220.618 212.2 220.292 211.871 220.045 211.396C219.662 210.735 219.285 209.172 218.973 208.411C217.867 205.689 216.727 206.591 216.187 206.655C214.949 206.872 216.364 211.291 217.131 212.379Z" fill="black"/>
<path d="M215.607 209.324C215.516 209.324 213.232 210.026 212.604 208.364C212.011 206.801 212.774 204.413 214.399 204.764C216.377 205.186 218.274 207.75 218.471 209.33C218.793 211.917 215.607 209.324 215.607 209.324Z" fill="black"/>
<path d="M213.738 207.89C213.738 207.89 214.518 213.006 215.516 212.783C216.513 212.561 216.649 209.664 216.649 209.664L213.738 207.89Z" fill="black"/>
<path d="M214.504 208.68C214.504 208.68 216.435 211.121 215.862 214.258C214.81 219.977 215.801 223.319 217.558 224.443C219.316 225.566 221.772 225.52 221.82 225.139C221.867 224.759 219 209.833 219 209.833L214.504 208.68Z" fill="black"/>
<path d="M215.583 212.789C215.583 212.789 215.984 211.97 216.201 212.397C216.418 212.824 216.123 214.305 215.862 214.106C215.711 213.993 215.57 213.848 215.441 213.673L215.583 212.789Z" fill="#947347"/>
<g style="mix-blend-mode:multiply">
<path d="M215.862 212.83C215.877 212.811 215.894 212.798 215.913 212.791C215.931 212.785 215.95 212.784 215.968 212.79C215.987 212.796 216.004 212.809 216.02 212.826C216.035 212.844 216.049 212.868 216.059 212.895C216.071 212.934 216.078 212.978 216.079 213.023C216.089 213.119 216.077 213.217 216.045 213.298C216.038 213.317 216.029 213.334 216.019 213.346C216.008 213.359 215.996 213.368 215.983 213.372C215.97 213.377 215.957 213.377 215.945 213.372C215.932 213.367 215.92 213.358 215.909 213.345" fill="#947347"/>
</g>
<path d="M177.372 248.452C177.179 250.062 175.896 250.009 175.896 250.009C173.365 248.458 170.491 246.363 168.883 245.327C168.581 245.139 168.517 244.888 168.34 244.741L168.523 242.622C177.379 243.132 177.539 247.071 177.372 248.452Z" fill="#CD8F4D"/>
<g style="mix-blend-mode:multiply">
<path d="M166.477 241.61C166.231 241.39 165.972 241.217 165.704 241.095C165.632 241.095 165.385 240.55 165.14 240.369C165.055 240.091 164.978 239.806 164.91 239.514C164.884 239.427 164.845 239.354 164.796 239.304C164.748 239.254 164.692 239.23 164.635 239.233L164.815 241.03L165.415 241.973L166.094 243.143C166.193 243.119 166.287 243.049 166.365 242.939C166.442 242.83 166.501 242.686 166.535 242.523C166.579 242.378 166.597 242.214 166.587 242.051C166.576 241.889 166.538 241.735 166.477 241.61Z" fill="#CD8F4D"/>
</g>
<path d="M167.149 240.404C167.305 240.55 167.58 240.989 167.702 241.106C168.167 241.627 168.211 241.99 169.015 243.214C169.891 244.542 169.148 245.637 168.723 245.239C168.584 245.11 168.422 244.876 168.276 244.753C167.549 244.31 166.835 243.804 166.138 243.237C166.079 243.091 166.041 242.923 166.027 242.747C166.014 242.571 166.025 242.392 166.06 242.224C166.102 242.057 166.175 241.917 166.266 241.824C166.357 241.732 166.463 241.692 166.569 241.709C166.654 241.762 166.766 241.85 166.844 241.627C166.881 241.479 166.886 241.313 166.856 241.159C166.827 241.006 166.766 240.877 166.684 240.796C166.277 240.305 166.226 239.942 166.311 239.766C166.423 239.936 166.915 240.164 167.149 240.404Z" fill="#CD8F4D"/>
<path d="M166.698 241.885C166.478 241.591 166.244 241.331 165.999 241.106C165.931 241.06 165.748 240.463 165.527 240.205C165.497 240.164 165.466 239.696 165.402 239.286C165.387 239.191 165.357 239.105 165.315 239.038C165.273 238.972 165.221 238.928 165.164 238.912L165.13 240.738L165.612 241.873L166.138 243.237C166.234 243.268 166.333 243.249 166.422 243.182C166.512 243.116 166.588 243.004 166.64 242.862C166.73 242.561 166.75 242.212 166.698 241.885ZM182.665 235.259C182.665 235.259 183.005 237.758 182.207 239.479C181.254 241.51 177.603 250.161 176.225 249.904C174.162 249.517 174.95 248.792 175.225 247.27C175.499 245.748 175.971 241.85 177.26 238.595C178.431 235.681 180.65 230.571 182.665 235.259Z" fill="#CD8F4D"/>
<path d="M185.285 236.722C185.285 236.722 185.929 239.397 185.207 241.563C184.352 244.109 180.755 254.937 180.484 255.265C178.563 257.571 178.081 254.13 178.234 252.339C178.387 250.548 178.506 246.082 179.618 242.06C180.616 238.484 182.56 232.128 185.285 236.722Z" fill="#CD904D"/>
<path d="M185.132 241.873L182.645 255.008L176.175 255.095L175.655 242.131L185.132 241.873Z" fill="#CD904D"/>
<path d="M183.558 259.79C183.605 259.959 184.827 262.909 184.976 265.561C185.125 268.212 183.541 271.689 183.541 271.689L177.311 271.806L176.578 264.367L176.239 254.85L182.652 255.002C182.893 256.63 183.196 258.229 183.558 259.79ZM178.638 224.519L182.245 224.607C182.245 224.607 182.791 227.445 182.71 232.713C182.71 232.924 179.602 234.469 179.602 234.469L178.638 224.519Z" fill="#CD904D"/>
<path d="M176.293 237.811C177.009 235.64 179.428 230.741 179.428 230.741L182.642 229.816C182.642 229.816 184.949 232.637 185.529 237.343C185.549 237.524 185.329 242.464 185.329 242.464H175.625C175.625 242.464 176.263 237.87 176.293 237.811ZM177.62 219.503C177.703 219.837 177.758 220.189 177.783 220.55C177.783 221.136 177.586 221.721 177.593 222.066C177.664 224.835 177.298 224.56 177.433 225.578C177.539 226.327 178.112 226.368 179.035 226.69C179.713 226.924 181.434 225.607 181.715 225.391C183.011 224.372 183.503 220.024 183.503 218.256C183.503 214.516 181.715 214.077 180.399 214.487C179.764 214.671 179.169 215.149 178.679 215.868C177.902 216.992 177.542 219.251 177.62 219.503Z" fill="#CD904D"/>
<path d="M178.899 219.527C178.74 219.287 178.54 219.145 178.329 219.123C178.118 219.102 177.909 219.203 177.735 219.41" fill="black"/>
<g style="mix-blend-mode:multiply">
<path d="M178.333 220.831C178.43 220.831 178.509 220.695 178.509 220.527C178.509 220.359 178.43 220.223 178.333 220.223C178.235 220.223 178.156 220.359 178.156 220.527C178.156 220.695 178.235 220.831 178.333 220.831Z" fill="#014753"/>
</g>
<path d="M177.83 219.877C177.628 220.71 177.402 221.525 177.152 222.318C177.152 222.406 177.569 222.523 177.62 222.523C177.671 222.523 177.83 219.877 177.83 219.877Z" fill="#CD904D"/>
<g style="mix-blend-mode:multiply" opacity="0.67">
<path d="M180.674 226.86C180.602 226.918 181.077 230.302 179.272 231.232L178.841 226.643L180.674 226.86Z" fill="#CD904D"/>
</g>
<path d="M178.489 216.324C178.489 216.324 180.45 211.958 183.344 214.937C185.108 216.746 184.328 221.288 182.374 225.151C182.346 225.204 181.508 224.864 181.274 224.185C180.979 223.348 180.999 220.884 180.999 220.884L179.982 221.253C179.982 221.253 179.72 219.321 179.669 218.988C179.459 217.548 178.489 216.324 178.489 216.324Z" fill="black"/>
<g style="mix-blend-mode:multiply" opacity="0.67">
<path d="M181.118 220.293C181.118 220.293 181.186 221.551 180.833 221.785C180.68 221.872 180.515 221.872 180.362 221.785C180.362 221.785 180.487 223.647 181.077 223.231C181.668 222.815 181.118 220.293 181.118 220.293Z" fill="#CD904D"/>
</g>
<path d="M180.402 220.726C180.402 220.726 180.742 219.585 181.023 220.053C181.1 220.191 181.152 220.365 181.173 220.554C181.194 220.743 181.182 220.938 181.14 221.115C181.097 221.293 181.026 221.445 180.934 221.554C180.842 221.662 180.734 221.722 180.623 221.727C180.283 221.727 180.239 221.586 180.239 221.586L180.402 220.726Z" fill="#CD904D"/>
<g style="mix-blend-mode:multiply">
<path d="M180.674 220.743C180.674 220.698 180.682 220.654 180.698 220.617C180.713 220.58 180.734 220.553 180.759 220.537C180.784 220.522 180.811 220.52 180.836 220.532C180.861 220.544 180.884 220.568 180.901 220.603C180.903 220.618 180.903 220.634 180.901 220.65C180.908 220.7 180.908 220.752 180.901 220.802C180.9 220.915 180.873 221.022 180.826 221.1C180.802 221.137 180.771 221.157 180.738 221.157C180.706 221.157 180.675 221.137 180.65 221.1L180.674 220.743ZM177.589 223.067C177.589 223.067 178.064 223.272 178.054 223.418C178.034 223.729 177.556 223.758 177.556 223.758L177.589 223.067Z" fill="#CD904D"/>
</g>
<path d="M176.222 216.43C176.243 216.089 176.34 215.776 176.493 215.557C176.645 215.338 176.842 215.231 177.04 215.259C177.199 215.3 177.349 215.441 177.508 215.487C177.587 215.526 177.671 215.514 177.746 215.454C177.82 215.394 177.879 215.289 177.912 215.16C177.952 214.925 177.864 214.691 177.834 214.457C177.816 214.166 177.859 213.873 177.957 213.633C178.054 213.393 178.198 213.222 178.363 213.152C178.702 212.982 179.042 213.439 179.381 213.41C180.399 213.322 181.288 212.9 182.462 214.247L181.203 216.002C181.278 215.944 181.322 216.155 181.312 216.301C181.225 217.127 180.966 217.869 180.582 218.385C180.39 218.687 180.157 218.898 179.903 218.999C178.227 219.497 179.476 216.494 177.973 217.372C177.539 217.799 177.274 218.156 176.89 217.957C176.696 217.869 176.524 217.671 176.403 217.394C176.281 217.116 176.218 216.777 176.222 216.43Z" fill="black"/>
<path d="M182.916 229.921L178.472 232.543L176.219 237.811L175.655 241.867L176.48 261.475L183.364 258.73L182.638 254.826L185.458 241.592C185.458 241.592 186.119 236.67 184.779 233.732C183.439 230.793 182.923 229.927 182.923 229.927" fill="#FF595A"/>
<path d="M183.028 229.839L178.326 232.883L183.028 229.839Z" fill="#ED6A5E"/>
<path opacity="0.67" d="M170.586 246.45C180.623 246.45 178.977 250.834 178.818 252.403L170.586 246.45Z" fill="#CD904D"/>
<path d="M168.323 252.614C168.478 252.613 168.631 252.543 168.766 252.411C168.901 252.279 169.014 252.089 169.095 251.86C169.175 251.631 169.22 251.37 169.225 251.102C169.23 250.834 169.195 250.569 169.124 250.331L165.639 238.882C165.584 238.701 165.509 238.541 165.417 238.41C165.326 238.279 165.221 238.181 165.108 238.12C164.994 238.06 164.875 238.038 164.757 238.057C164.639 238.076 164.524 238.134 164.419 238.23C164.315 238.325 164.221 238.455 164.146 238.612C164.07 238.77 164.013 238.951 163.978 239.147C163.943 239.342 163.93 239.547 163.941 239.751C163.952 239.955 163.986 240.153 164.041 240.334L167.526 251.777C167.602 252.028 167.716 252.239 167.857 252.387C167.997 252.534 168.159 252.613 168.323 252.614Z" fill="#022327"/>
<path opacity="0.12" d="M184.701 235.64C184.701 236.026 185.719 239.292 183.89 246.456C181.973 253.919 176.378 257.255 176.378 257.255L176.219 254.013L184.701 235.64Z" fill="#022327"/>
<path d="M179.13 253.199C178.943 255.037 177.491 255.054 177.491 255.054C174.59 253.451 171.292 251.25 169.45 250.191C169.11 249.992 169.025 249.711 168.825 249.564L168.988 247.153C179.025 247.194 179.289 251.642 179.13 253.199ZM166.647 246.134C166.366 245.898 166.07 245.718 165.765 245.596C165.683 245.596 165.392 245.011 165.11 244.806C165.006 244.5 164.913 244.183 164.832 243.857C164.801 243.76 164.754 243.679 164.698 243.625C164.641 243.571 164.577 243.546 164.513 243.553L164.754 245.572L165.456 246.608L166.236 247.873C166.349 247.839 166.454 247.754 166.54 247.625C166.626 247.496 166.69 247.328 166.725 247.141C166.77 246.978 166.787 246.796 166.773 246.618C166.759 246.439 166.715 246.271 166.647 246.134Z" fill="#CD8F4D"/>
<path d="M167.387 244.724C167.563 244.882 167.882 245.344 168.025 245.49C168.564 246.046 168.622 246.456 169.558 247.791C170.576 249.248 169.758 250.53 169.266 250.132C169.107 249.992 168.927 249.734 168.747 249.611C168.299 249.272 166.983 248.663 166.297 248.019C166.228 247.858 166.181 247.67 166.162 247.471C166.143 247.273 166.152 247.069 166.189 246.878C166.234 246.686 166.313 246.523 166.415 246.413C166.517 246.303 166.636 246.25 166.756 246.263C166.854 246.322 166.979 246.409 167.064 246.152C167.103 245.981 167.105 245.79 167.068 245.618C167.031 245.445 166.958 245.302 166.864 245.215C166.396 244.694 166.331 244.279 166.423 244.074C166.562 244.238 167.102 244.472 167.387 244.724Z" fill="#CD8F4D"/>
<path d="M166.901 246.427C166.644 246.105 166.371 245.825 166.084 245.59C166.006 245.537 165.785 244.876 165.531 244.589C165.465 244.251 165.411 243.907 165.368 243.559C165.349 243.453 165.313 243.358 165.265 243.285C165.216 243.213 165.157 243.166 165.093 243.149V245.215L165.663 246.474L166.284 247.99C166.393 248.019 166.505 247.992 166.605 247.911C166.705 247.831 166.79 247.702 166.847 247.539C166.947 247.194 166.966 246.796 166.901 246.427ZM184.067 236.734C184.067 236.734 184.637 239.473 183.85 241.586C182.92 244.074 179.439 254.592 177.854 254.592C175.503 254.592 176.337 253.609 176.538 251.835C176.738 250.062 176.992 245.572 178.234 241.627C179.337 238.104 181.471 231.876 184.067 236.734Z" fill="#CD8F4D"/>
<path d="M177.959 242.213L182.35 246.31C182.35 246.31 186.421 236.763 184.202 234.82C181.983 232.877 179.181 232.713 177.959 242.213Z" fill="#FF595A"/>
<path d="M182.486 245.496L178.044 241.715C177.583 241.317 177.172 242.517 177.637 242.915L182.078 246.696C182.543 247.088 182.95 245.894 182.486 245.496Z" fill="white"/>
<path d="M183.388 230.957C183.388 230.957 176.5 235.054 175.923 240.662C175.584 243.775 175.774 244.232 175.774 244.232C176.509 241.217 177.678 238.575 179.169 236.556C180.66 234.536 182.425 233.206 184.297 232.69" fill="#022327"/>
<path d="M182.57 228.388L180.046 231.279L179.554 234.171L183.602 230.94L182.57 228.388ZM178.78 231.08L178.441 232.602L178.858 234.656L179.483 232.842L178.78 231.08Z" fill="white"/>
<path d="M156.313 259.378C156.313 261.259 156.313 263.037 156.345 264.691C156.377 267.827 156.417 270.508 156.477 272.569C156.484 273.975 156.563 275.377 156.712 276.759C157.651 282.239 162.342 282.239 162.342 282.239H346.681C346.88 282.24 347.079 282.217 347.277 282.17L365.491 277.669C366.519 277.401 367.457 276.503 368.133 275.14C368.808 273.777 369.177 272.04 369.171 270.246V189.485C369.18 187.616 368.781 185.81 368.054 184.425C367.326 183.041 366.323 182.18 365.244 182.014C365.134 182.003 365.025 182.003 364.916 182.014L337.176 181.793L324.903 181.69L302.13 181.504L232.639 180.932L209.866 180.746C184.991 180.546 166.752 180.401 164.811 180.401C160.416 180.401 158.254 184.35 157.316 186.948C156.902 188.094 156.677 189.411 156.664 190.76V192.621C158.954 192.566 184.967 192.207 184.967 192.903H184.428L184.296 232.691C173.564 236.151 166.824 258.206 156.313 259.378ZM194.464 233.767L194.596 193.468H250.131C250.343 193.582 250.564 193.64 250.786 193.641H301.071C301.294 193.64 301.516 193.582 301.73 193.468H335.095C335.308 193.582 335.531 193.64 335.754 193.641H357.197C357.418 193.641 357.637 193.582 357.848 193.468H362.942V233.767H194.464ZM166.724 196.653C165.513 196.673 164.355 197.52 163.505 199.01C162.655 200.499 162.182 202.509 162.19 204.599V212.001C162.182 214.091 162.655 216.101 163.505 217.591C164.355 219.08 165.513 219.928 166.724 219.948V196.653Z" fill="#FF595A"/>
<path opacity="0.45" d="M294.159 254.918H313.265C314.754 254.918 315.961 252.836 315.961 250.266C315.961 247.697 314.754 245.614 313.265 245.614H294.159C292.67 245.614 291.462 247.697 291.462 250.266C291.462 252.836 292.67 254.918 294.159 254.918Z" fill="white"/>
<path opacity="0.45" d="M224.688 254.918H243.794C245.283 254.918 246.491 252.836 246.491 250.266C246.491 247.697 245.283 245.614 243.794 245.614H224.688C223.199 245.614 221.992 247.697 221.992 250.266C221.992 252.836 223.199 254.918 224.688 254.918Z" fill="white"/>
<path opacity="0.45" d="M248.545 187.831V189.409C248.547 190.239 248.703 191.045 248.991 191.71C249.279 192.375 249.682 192.863 250.143 193.103C250.355 193.214 250.576 193.27 250.798 193.269H301.083C301.377 193.271 301.669 193.173 301.942 192.98C302.214 192.788 302.461 192.503 302.67 192.145C302.878 191.786 303.043 191.359 303.156 190.89C303.268 190.42 303.325 189.917 303.324 189.409V187.831C303.322 186.807 303.085 185.826 302.665 185.103C302.245 184.38 301.676 183.973 301.083 183.971H250.782C250.189 183.975 249.621 184.383 249.202 185.106C248.783 185.829 248.547 186.808 248.545 187.831ZM333.509 187.831V189.409C333.508 189.917 333.565 190.42 333.677 190.89C333.79 191.359 333.955 191.786 334.163 192.145C334.372 192.503 334.619 192.788 334.891 192.98C335.164 193.173 335.456 193.271 335.75 193.269H357.193C357.414 193.271 357.633 193.215 357.844 193.103C358.304 192.862 358.707 192.373 358.995 191.709C359.283 191.044 359.439 190.238 359.442 189.409V187.831C359.44 186.808 359.204 185.829 358.785 185.106C358.366 184.383 357.798 183.975 357.205 183.971H335.762C335.467 183.969 335.175 184.068 334.902 184.261C334.629 184.454 334.381 184.737 334.172 185.096C333.963 185.454 333.797 185.88 333.683 186.349C333.569 186.819 333.51 187.322 333.509 187.831Z" fill="white"/>
<path d="M324.903 182.007H302.142V177.258H324.903V182.007Z" fill="#FF595A"/>
<path d="M337.041 182.041H365.655V177.217C365.659 176.452 365.575 175.693 365.409 174.984C365.243 174.275 364.997 173.63 364.686 173.085C364.375 172.539 364.005 172.105 363.597 171.807C363.189 171.508 362.75 171.351 362.307 171.345H342.894L337.041 182.041Z" fill="#FF595A"/>
<path d="M340.664 179.202H361.84V176.824C361.84 176.059 361.664 175.326 361.351 174.784C361.038 174.243 360.613 173.938 360.17 173.936H343.589L340.664 179.202Z" fill="#054752"/>
<path d="M232.651 182.007H209.89V177.258H232.651V182.007Z" fill="#FF595A"/>
<path d="M357.844 193.103H335.071C335.285 193.214 335.507 193.27 335.73 193.268H357.173C357.4 193.274 357.627 193.218 357.844 193.103ZM301.726 193.103H250.127C250.339 193.214 250.56 193.27 250.782 193.268H301.067C301.29 193.269 301.512 193.214 301.726 193.103Z" fill="white"/>
<g style="mix-blend-mode:multiply" opacity="0.45">
<path d="M220.342 280.598V266.408C220.342 262.917 219.539 259.57 218.11 257.099C216.681 254.629 214.742 253.237 212.718 253.23H205.743C203.717 253.23 201.774 254.618 200.341 257.09C198.908 259.561 198.104 262.913 198.104 266.408V280.598H220.342Z" fill="#044752"/>
</g>
<path d="M199.031 272.79C198.855 276.183 199.266 279.589 200.212 282.58C201.158 285.57 202.597 288.009 204.346 289.589C206.096 291.169 208.078 291.819 210.041 291.457C212.005 291.095 213.862 289.737 215.378 287.554C216.895 285.372 218.002 282.463 218.56 279.195C219.118 275.928 219.103 272.448 218.515 269.196C217.927 265.944 216.794 263.065 215.258 260.924C213.722 258.782 211.852 257.474 209.886 257.165C208.576 256.944 207.255 257.174 205.997 257.842C204.74 258.51 203.572 259.603 202.562 261.057C201.552 262.511 200.719 264.297 200.113 266.311C199.507 268.325 199.139 270.528 199.031 272.79Z" fill="#054752"/>
<path d="M207.732 256.249C208.464 256.099 209.203 256.08 209.938 256.193L210.185 256.249L208.987 274.333L207.732 256.249ZM210.253 292.315C209.52 292.461 208.78 292.48 208.044 292.37L207.796 292.315L208.995 274.23L210.253 292.315Z" fill="#054752"/>
<path d="M198.547 276.463C198.46 275.2 198.45 273.925 198.515 272.659C198.515 272.514 198.515 272.369 198.543 272.225L209.031 274.292L198.547 276.463ZM219.435 272.094C219.524 273.356 219.534 274.631 219.467 275.898C219.467 276.043 219.467 276.187 219.439 276.332L208.955 274.265L219.435 272.094Z" fill="#054752"/>
<path d="M215.487 259.991C216.072 260.777 216.608 261.666 217.085 262.644L217.241 262.982L208.963 274.313L215.487 259.991ZM202.498 288.545C201.912 287.763 201.376 286.873 200.9 285.892L200.745 285.554L209.003 274.223L202.498 288.545Z" fill="#054752"/>
<path d="M200.733 263.065C201.19 262.059 201.706 261.136 202.271 260.308L202.471 260.039L209.035 274.292L200.733 263.065ZM217.269 285.471C216.814 286.48 216.298 287.404 215.731 288.228L215.531 288.497L208.967 274.244L217.269 285.471Z" fill="#054752"/>
<path d="M211.919 256.834C212.628 257.191 213.314 257.674 213.965 258.275L214.181 258.495L208.987 274.347L211.919 256.834ZM206.062 291.695C205.354 291.344 204.669 290.861 204.021 290.254C203.945 290.19 203.872 290.118 203.801 290.041L208.995 274.189L206.062 291.695Z" fill="#054752"/>
<path d="M198.887 269.213C199.094 267.992 199.374 266.812 199.722 265.691L199.846 265.312L209.035 274.271L198.887 269.213ZM219.111 279.323C218.904 280.544 218.624 281.724 218.276 282.845L218.152 283.224L208.963 274.265L219.111 279.323Z" fill="#054752"/>
<path d="M217.988 264.864C218.37 265.952 218.685 267.107 218.927 268.31L219.003 268.723L208.955 274.292L217.988 264.864Z" fill="#054752"/>
<path d="M199.993 283.672C199.611 282.584 199.297 281.429 199.055 280.226L198.979 279.813L209.027 274.244L199.993 283.672Z" fill="#054752"/>
<path d="M203.529 258.744C204.161 258.087 204.831 257.545 205.527 257.124L205.767 256.993L208.995 274.327L203.529 258.744ZM214.444 289.792C213.812 290.445 213.143 290.986 212.447 291.405L212.207 291.536L208.979 274.203L214.444 289.792Z" fill="#054752"/>
<g style="mix-blend-mode:multiply" opacity="0.49">
<path d="M200.181 282.37C200.815 284.453 201.691 286.289 202.753 287.765C203.815 289.241 205.042 290.325 206.357 290.95C207.672 291.575 209.047 291.727 210.398 291.398C211.748 291.069 213.045 290.265 214.208 289.035C215.372 287.806 216.376 286.178 217.159 284.252C217.943 282.326 218.489 280.143 218.764 277.838C219.038 275.534 219.035 273.156 218.756 270.853C218.476 268.55 217.925 266.371 217.137 264.45L211.76 270.122L205.551 276.697L200.181 282.37Z" fill="#004553"/>
</g>
<path d="M203.198 273.431C203.094 275.405 203.333 277.388 203.882 279.129C204.432 280.87 205.268 282.291 206.286 283.212C207.304 284.133 208.457 284.513 209.6 284.304C210.742 284.096 211.824 283.307 212.707 282.039C213.59 280.77 214.235 279.079 214.562 277.178C214.888 275.277 214.88 273.252 214.539 271.358C214.198 269.465 213.54 267.789 212.647 266.541C211.754 265.293 210.667 264.529 209.522 264.347C208.761 264.225 207.993 264.364 207.263 264.755C206.533 265.146 205.855 265.782 205.268 266.626C204.68 267.47 204.195 268.505 203.84 269.673C203.485 270.84 203.266 272.117 203.198 273.431Z" fill="white"/>
<path d="M208.823 277.518C208.337 277.439 207.888 277.033 207.573 276.389C207.258 275.744 207.103 274.912 207.141 274.072C207.174 273.454 207.309 272.866 207.532 272.38C207.755 271.893 208.054 271.529 208.395 271.331C208.735 271.133 209.102 271.11 209.45 271.264C209.798 271.419 210.112 271.745 210.355 272.202C210.598 272.66 210.758 273.229 210.816 273.84C210.875 274.452 210.829 275.08 210.685 275.647C210.54 276.215 210.303 276.698 210.002 277.037C209.702 277.376 209.35 277.558 208.991 277.559L208.823 277.518ZM207.688 274.134C207.668 274.577 207.724 275.021 207.85 275.409C207.976 275.798 208.165 276.113 208.395 276.316C208.624 276.519 208.883 276.6 209.139 276.55C209.395 276.499 209.637 276.319 209.834 276.032C210.031 275.745 210.174 275.364 210.246 274.937C210.318 274.509 210.314 274.055 210.236 273.631C210.159 273.207 210.01 272.832 209.809 272.554C209.608 272.275 209.364 272.105 209.107 272.066H208.987C208.66 272.067 208.345 272.281 208.104 272.664C207.864 273.047 207.715 273.571 207.688 274.134Z" fill="#054752"/>
<path d="M287.267 271.232H283.515V268.537H287.267V271.232Z" fill="#054752"/>
<path d="M240.897 271.232H237.146V268.537H240.897V271.232Z" fill="#054752"/>
<path d="M169.929 271.232H166.177V268.537H169.929V271.232Z" fill="#054752"/>
<path d="M160.024 263.141C160.024 263.141 159.964 268.255 159.653 269.02C159.065 270.474 157.747 271.005 156.225 270.881V263.141H160.024Z" fill="#054752"/>
<path d="M162.19 204.048V211.333C162.193 213.405 162.672 215.391 163.522 216.856C164.372 218.32 165.523 219.145 166.724 219.148V196.232C165.523 196.236 164.372 197.06 163.522 198.525C162.672 199.99 162.193 201.975 162.19 204.048Z" fill="white"/>
<path d="M162.19 204.599V212.001C162.182 214.091 162.655 216.101 163.505 217.591C164.355 219.08 165.513 219.928 166.724 219.948V196.653C165.513 196.673 164.355 197.52 163.505 199.01C162.655 200.499 162.182 202.509 162.19 204.599Z" fill="#FF595A"/>
<path d="M369.171 246.489C367.655 241.097 365.212 236.642 362.175 233.732L335.319 233.925C335.251 236.213 335.215 238.557 335.223 240.921C337.389 242.53 339.336 244.902 340.941 247.884C342.545 250.866 343.771 254.392 344.541 258.238C345.31 262.084 345.606 266.165 345.409 270.219C345.212 274.274 344.527 278.212 343.397 281.784L343.705 282.218H346.941L365.491 277.642C365.956 277.499 366.407 277.251 366.834 276.904C367.277 276.442 368.1 275.388 368.1 275.388C368.1 275.388 369.175 273.189 369.171 271.211V246.489Z" fill="#054752"/>
<path d="M314.028 282.246C311.015 273.568 309.948 262.258 309.813 251.266C309.759 245.495 309.915 239.724 310.28 233.987L322.49 233.953L322.55 240.411C326.654 237.746 331.199 237.939 335.223 240.948V242.788C335.391 256.821 337.093 271.418 342.414 280.316C342.728 280.834 343.051 281.333 343.385 281.811L343.245 282.246H314.028Z" fill="white"/>
<path d="M344.388 257.53C343.589 253.842 342.364 250.471 340.789 247.621C339.214 244.771 337.32 242.501 335.223 240.948V242.788C335.391 256.821 337.093 271.418 342.414 280.316C342.728 280.834 343.051 281.333 343.385 281.811C344.556 278.127 345.251 274.051 345.424 269.86C345.597 265.669 345.244 261.464 344.388 257.53Z" fill="#36BCEE"/>
<path d="M366.965 262.389H369.083C369.383 262.389 369.626 261.97 369.626 261.452V233.773C369.626 233.256 369.383 232.836 369.083 232.836H366.965C366.665 232.836 366.422 233.256 366.422 233.773V261.452C366.422 261.97 366.665 262.389 366.965 262.389Z" fill="#054752"/>
<g style="mix-blend-mode:multiply" opacity="0.45">
<path d="M340.337 280.598V266.408C340.337 262.913 339.532 259.561 338.099 257.09C336.667 254.618 334.724 253.23 332.698 253.23H325.738C323.712 253.23 321.769 254.618 320.336 257.09C318.904 259.561 318.099 262.913 318.099 266.408V280.598H340.337Z" fill="#044752"/>
</g>
<path d="M319.042 272.493C318.867 275.886 319.278 279.292 320.225 282.282C321.172 285.271 322.611 287.709 324.361 289.288C326.11 290.867 328.092 291.516 330.055 291.153C332.019 290.79 333.876 289.431 335.391 287.249C336.907 285.066 338.014 282.157 338.572 278.889C339.13 275.622 339.114 272.142 338.526 268.891C337.938 265.639 336.804 262.761 335.269 260.62C333.733 258.479 331.863 257.171 329.897 256.862C328.587 256.64 327.265 256.871 326.007 257.539C324.75 258.208 323.582 259.301 322.572 260.756C321.561 262.211 320.729 263.998 320.123 266.013C319.517 268.028 319.149 270.231 319.042 272.493Z" fill="#054752"/>
<path d="M327.74 255.952C328.473 255.803 329.213 255.784 329.949 255.897L330.197 255.952L328.998 274.037L327.74 255.952Z" fill="#054752"/>
<path d="M330.265 291.991C329.531 292.138 328.791 292.155 328.055 292.039C327.971 292.039 327.891 292.005 327.807 291.991L329.006 273.906L330.265 291.991Z" fill="#054752"/>
<path d="M318.558 276.146C318.47 274.883 318.459 273.608 318.526 272.342C318.526 272.197 318.546 272.052 318.554 271.907L329.042 273.975L318.558 276.146Z" fill="#054752"/>
<path d="M339.446 271.797C339.535 273.06 339.545 274.335 339.478 275.602C339.478 275.746 339.478 275.891 339.45 276.036L328.962 273.968L339.446 271.797Z" fill="#054752"/>
<path d="M335.494 259.695C336.08 260.479 336.616 261.368 337.093 262.348L337.248 262.686L328.982 274.016L335.494 259.695ZM322.51 288.249C321.924 287.464 321.388 286.575 320.912 285.595L320.756 285.257L329.018 273.927L322.51 288.249Z" fill="#054752"/>
<path d="M320.724 262.769C321.179 261.76 321.695 260.836 322.262 260.012C322.326 259.915 322.394 259.832 322.462 259.743L329.026 273.996L320.724 262.769Z" fill="#054752"/>
<path d="M337.28 285.175C336.824 286.182 336.308 287.106 335.742 287.932L335.542 288.2L328.982 273.92L337.28 285.175Z" fill="#054752"/>
<path d="M331.931 256.538C332.639 256.896 333.325 257.379 333.976 257.978L334.192 258.199L328.998 274.051L331.931 256.538ZM326.073 291.398C325.363 291.047 324.678 290.564 324.028 289.958L323.812 289.744L329.006 273.892L326.073 291.398Z" fill="#054752"/>
<path d="M318.898 268.916C319.105 267.696 319.385 266.515 319.733 265.394L319.857 265.015L329.046 273.975L318.898 268.916ZM339.106 279.027C338.899 280.247 338.619 281.427 338.271 282.549L338.147 282.928L328.958 273.968L339.106 279.027Z" fill="#054752"/>
<path d="M337.999 264.567C338.382 265.656 338.696 266.811 338.938 268.013L339.014 268.427L328.982 273.996L337.999 264.567ZM320.005 283.355C319.622 282.266 319.308 281.111 319.066 279.909L318.99 279.496L329.038 273.927L320.005 283.355Z" fill="#054752"/>
<path d="M323.552 258.447C324.184 257.791 324.854 257.248 325.55 256.828L325.79 256.697L329.014 274.03L323.552 258.447Z" fill="#054752"/>
<path d="M334.452 289.489C333.821 290.148 333.151 290.691 332.454 291.109L332.214 291.24L328.982 273.906L334.452 289.489Z" fill="#054752"/>
<g style="mix-blend-mode:multiply" opacity="0.49">
<path d="M320.192 282.073C320.829 284.15 321.705 285.98 322.767 287.45C323.829 288.921 325.055 289.999 326.368 290.621C327.681 291.242 329.054 291.392 330.403 291.062C331.751 290.732 333.046 289.928 334.207 288.701C335.368 287.474 336.371 285.85 337.154 283.928C337.938 282.006 338.484 279.828 338.76 277.528C339.036 275.227 339.036 272.854 338.759 270.553C338.483 268.253 337.936 266.075 337.152 264.154L331.779 269.826L325.57 276.401L320.192 282.073Z" fill="#004553"/>
</g>
<path d="M323.209 273.134C323.105 275.11 323.344 277.094 323.894 278.835C324.444 280.577 325.281 281.998 326.299 282.919C327.317 283.84 328.471 284.219 329.614 284.009C330.758 283.799 331.839 283.009 332.722 281.738C333.605 280.468 334.25 278.774 334.575 276.872C334.9 274.969 334.89 272.943 334.548 271.05C334.205 269.156 333.545 267.481 332.65 266.235C331.755 264.989 330.667 264.229 329.521 264.05C327.986 263.811 326.458 264.634 325.275 266.337C324.091 268.041 323.348 270.486 323.209 273.134Z" fill="white"/>
<path d="M328.834 277.221C328.347 277.144 327.898 276.739 327.583 276.094C327.268 275.449 327.113 274.616 327.152 273.775C327.185 273.158 327.321 272.57 327.543 272.084C327.766 271.597 328.066 271.232 328.406 271.034C328.747 270.836 329.113 270.813 329.461 270.968C329.809 271.123 330.123 271.449 330.366 271.906C330.609 272.363 330.769 272.932 330.827 273.544C330.886 274.156 330.84 274.783 330.696 275.351C330.551 275.918 330.314 276.401 330.013 276.741C329.713 277.08 329.361 277.261 329.002 277.263L328.834 277.221ZM327.696 273.83C327.675 274.273 327.732 274.717 327.857 275.105C327.983 275.493 328.172 275.809 328.401 276.012C328.63 276.215 328.889 276.296 329.145 276.246C329.401 276.196 329.643 276.017 329.84 275.73C330.037 275.444 330.18 275.063 330.252 274.637C330.324 274.21 330.322 273.756 330.244 273.332C330.167 272.908 330.019 272.533 329.819 272.253C329.618 271.974 329.374 271.803 329.118 271.763H328.998C328.671 271.766 328.356 271.979 328.115 272.362C327.874 272.744 327.724 273.268 327.696 273.83Z" fill="#054752"/>
<path d="M357.277 193.496H334.504C334.716 193.609 334.937 193.667 335.159 193.668H356.602C356.831 193.671 357.058 193.613 357.277 193.496ZM301.155 193.496H249.559C249.77 193.61 249.99 193.668 250.211 193.668H300.495C300.719 193.668 300.941 193.61 301.155 193.496Z" fill="white"/>
<path opacity="0.4" d="M154.137 244.821L143.325 228.233L128.603 217.87H94.3584L86.5487 228.233V239.12L123.799 246.375H142.723L154.137 244.821Z" fill="white"/>
<path d="M125.131 239.312C125.131 239.312 124.576 241.623 125.198 243.48C125.936 245.68 129.033 255.012 129.273 255.294C130.923 257.282 131.338 254.318 131.21 252.784C131.082 251.251 130.975 247.393 130.014 243.927C129.157 240.832 127.479 235.344 125.131 239.312Z" fill="#CE914D"/>
<path d="M125.262 243.748L127.407 255.074L132.984 255.143L133.431 243.975L125.262 243.748Z" fill="#CE914D"/>
<path d="M126.622 259.194C126.582 259.338 125.525 261.882 125.398 264.166C125.27 266.449 126.638 269.454 126.638 269.454L132.003 269.55L132.637 263.141L132.94 254.937L127.411 255.067C127.199 256.471 126.936 257.849 126.622 259.194ZM130.863 228.811L127.754 228.887C127.754 228.887 127.283 231.307 127.355 235.839C127.355 236.025 130.034 237.338 130.034 237.338L130.863 228.811Z" fill="#CE914D"/>
<path d="M132.88 240.268C132.266 238.391 130.178 234.168 130.178 234.168L127.411 233.391C126.18 235.005 125.303 237.291 124.923 239.876C124.923 240.027 125.095 244.284 125.095 244.284H133.466C133.466 244.284 132.9 240.302 132.88 240.268ZM131.736 224.451C131.665 224.738 131.618 225.041 131.597 225.352C131.597 225.847 131.768 226.377 131.76 226.658C131.7 229.045 132.015 228.811 131.896 229.677C131.808 230.331 131.322 230.365 130.516 230.64C129.922 230.84 128.447 229.705 128.208 229.519C127.088 228.639 126.665 224.898 126.665 223.371C126.665 220.146 128.204 219.768 129.34 220.118C129.888 220.281 130.4 220.694 130.823 221.315C131.33 222.145 131.653 223.254 131.736 224.451Z" fill="#CE914D"/>
<path d="M130.636 224.493C130.773 224.286 130.946 224.163 131.128 224.144C131.31 224.125 131.49 224.212 131.641 224.39" fill="black"/>
<g style="mix-blend-mode:multiply">
<path d="M131.122 225.62C131.206 225.62 131.274 225.503 131.274 225.359C131.274 225.214 131.206 225.097 131.122 225.097C131.039 225.097 130.971 225.214 130.971 225.359C130.971 225.503 131.039 225.62 131.122 225.62Z" fill="#004753"/>
</g>
<path d="M131.557 224.788C131.726 225.508 131.919 226.21 132.135 226.892C132.135 226.975 131.776 227.078 131.736 227.078C131.657 226.32 131.597 225.555 131.557 224.788Z" fill="#CE914D"/>
<g style="mix-blend-mode:multiply" opacity="0.67">
<path d="M129.105 230.798C129.165 230.853 128.754 233.769 130.301 234.567L130.676 230.613L129.105 230.798Z" fill="#CE914D"/>
</g>
<g style="mix-blend-mode:multiply">
<path d="M131.764 227.546C131.764 227.546 131.366 227.717 131.366 227.848C131.366 228.109 131.792 228.137 131.792 228.137L131.764 227.546Z" fill="#CE914D"/>
</g>
<path d="M132.932 221.824C132.917 221.527 132.834 221.252 132.702 221.06C132.57 220.868 132.399 220.774 132.227 220.799C132.087 220.834 131.96 220.957 131.828 220.992C131.76 221.021 131.687 221.01 131.624 220.958C131.56 220.907 131.508 220.819 131.477 220.71C131.445 220.51 131.521 220.311 131.545 220.105C131.561 219.855 131.523 219.603 131.44 219.397C131.356 219.191 131.232 219.044 131.09 218.984C130.811 218.839 130.508 219.224 130.217 219.204C129.356 219.128 128.575 218.764 127.562 219.926L128.651 221.439C128.583 221.391 128.543 221.569 128.555 221.693C128.627 222.407 128.852 223.047 129.185 223.488C129.347 223.752 129.549 223.935 129.767 224.018C131.21 224.451 130.134 221.865 131.429 222.642C131.804 223.007 132.031 223.33 132.362 223.158C132.531 223.08 132.679 222.906 132.783 222.663C132.886 222.421 132.939 222.125 132.932 221.824Z" fill="black"/>
<path d="M130.987 221.741C130.987 221.741 129.3 217.98 126.805 220.545C125.286 222.106 125.956 226.046 127.642 229.347C128.006 229.278 128.344 228.982 128.591 228.515C128.842 227.793 128.826 225.675 128.826 225.675L129.703 225.991L129.97 224.038C130.173 223.119 130.526 222.321 130.987 221.741Z" fill="black"/>
<g style="mix-blend-mode:multiply" opacity="0.67">
<path d="M128.722 225.139C128.722 225.139 128.667 226.225 128.97 226.425C129.099 226.5 129.239 226.5 129.368 226.425C129.368 226.425 129.261 228.027 128.754 227.676C128.248 227.326 128.722 225.139 128.722 225.139Z" fill="#CE914D"/>
</g>
<path d="M129.344 225.524C129.344 225.524 129.057 224.54 128.806 224.946C128.741 225.066 128.697 225.216 128.68 225.378C128.662 225.54 128.673 225.707 128.71 225.859C128.746 226.011 128.808 226.141 128.886 226.234C128.965 226.327 129.058 226.379 129.153 226.383C129.452 226.383 129.484 226.267 129.484 226.267L129.344 225.524Z" fill="#CE914D"/>
<g style="mix-blend-mode:multiply">
<path d="M129.102 225.538C129.103 225.497 129.096 225.458 129.083 225.424C129.07 225.391 129.051 225.366 129.029 225.352C129.007 225.339 128.983 225.339 128.961 225.351C128.939 225.363 128.919 225.388 128.906 225.421C128.905 225.434 128.905 225.448 128.906 225.462C128.902 225.505 128.902 225.549 128.906 225.593C128.907 225.641 128.913 225.688 128.925 225.732C128.936 225.775 128.953 225.815 128.974 225.847C128.995 225.878 129.022 225.896 129.05 225.896C129.078 225.896 129.105 225.878 129.126 225.847L129.102 225.538Z" fill="#CE914D"/>
</g>
<path d="M127.076 233.377L131.393 236.176" stroke="white" stroke-width="0.592519" stroke-linecap="round" stroke-linejoin="round"/>
<path d="M126.773 232.944C126.773 232.944 132.709 236.458 133.215 241.306C133.498 243.989 133.347 244.387 133.347 244.387C132.714 241.788 131.707 239.51 130.421 237.769C129.136 236.027 127.614 234.881 126 234.436" fill="#003333"/>
<path d="M142.942 246.148C142.815 246.149 142.688 246.094 142.576 245.99C142.397 245.818 142.264 245.535 142.203 245.198C142.142 244.861 142.159 244.497 142.249 244.181L145.255 234.313C145.286 234.113 145.342 233.928 145.42 233.772C145.499 233.615 145.596 233.491 145.706 233.408C145.815 233.326 145.935 233.287 146.054 233.294C146.174 233.302 146.291 233.356 146.397 233.452C146.503 233.549 146.595 233.685 146.666 233.851C146.737 234.017 146.786 234.209 146.808 234.411C146.83 234.614 146.826 234.823 146.795 235.023C146.764 235.222 146.708 235.407 146.63 235.564L143.628 245.426C143.563 245.643 143.465 245.825 143.344 245.952C143.223 246.08 143.084 246.147 142.942 246.148Z" fill="#004753"/>
<g style="mix-blend-mode:multiply">
<path d="M125.633 238.377C125.633 238.707 124.744 241.52 126.335 247.695C127.989 254.125 132.809 257.007 132.809 257.007L132.944 254.215L125.633 238.377Z" fill="#054752"/>
</g>
<path d="M133.383 248.761C133.606 250.322 134.854 250.185 134.854 250.185C137.294 248.514 140.036 246.292 141.603 245.192C141.894 244.986 141.954 244.738 142.121 244.587L141.898 242.524C133.267 243.569 133.191 247.42 133.383 248.761ZM143.875 241.403C144.11 241.172 144.359 240.985 144.617 240.846C144.685 240.846 144.916 240.296 145.151 240.103C145.23 239.829 145.3 239.546 145.358 239.257C145.381 239.17 145.418 239.097 145.465 239.046C145.512 238.994 145.566 238.968 145.621 238.968L145.482 240.729L144.916 241.692L144.286 242.861C144.189 242.841 144.096 242.776 144.018 242.673C143.94 242.57 143.88 242.433 143.843 242.276C143.799 242.141 143.778 241.986 143.784 241.831C143.789 241.676 143.821 241.527 143.875 241.403Z" fill="#CD904D"/>
<path d="M143.194 240.268C143.042 240.426 142.795 240.853 142.667 240.997C142.225 241.527 142.189 241.884 141.428 243.129C140.606 244.504 141.352 245.508 141.758 245.096C141.89 244.958 142.046 244.711 142.185 244.587C142.885 244.109 143.57 243.569 144.238 242.971C144.293 242.825 144.326 242.66 144.336 242.487C144.346 242.315 144.331 242.141 144.294 241.98C144.249 241.821 144.175 241.689 144.085 241.605C143.994 241.521 143.89 241.489 143.788 241.513C143.704 241.568 143.596 241.657 143.517 241.444C143.475 241.302 143.467 241.139 143.493 240.987C143.519 240.836 143.577 240.706 143.656 240.626C144.055 240.124 144.083 239.759 143.999 239.594C143.883 239.759 143.417 240.02 143.194 240.268Z" fill="#CD904D"/>
<path d="M143.664 241.685C143.871 241.38 144.094 241.111 144.33 240.88C144.394 240.832 144.561 240.24 144.768 239.965C144.815 239.669 144.851 239.368 144.876 239.065C144.888 238.971 144.915 238.885 144.955 238.818C144.995 238.751 145.045 238.705 145.099 238.686L145.167 240.461L144.72 241.602L144.238 242.978C144.145 243.013 144.049 243.001 143.96 242.942C143.871 242.884 143.795 242.781 143.74 242.647C143.644 242.355 143.617 242.01 143.664 241.685ZM126.012 240.351C126.012 240.351 126.195 242.847 127.279 243.927C128.563 245.213 133.638 250.914 134.854 249.855C136.66 248.259 135.795 248.073 135.252 246.849C134.71 245.625 133.478 242.345 131.637 240.151C129.962 238.205 126.905 234.863 126.012 240.351Z" fill="#CD904D"/>
<path d="M129.743 246.842L132.27 240.908C132.422 240.55 132.075 240.22 131.924 240.557L129.396 246.492C129.245 246.849 129.592 247.179 129.743 246.842Z" fill="white"/>
<path d="M104.48 237.366C104.48 237.366 104.301 239.498 105.369 243.204C106.438 246.911 110.332 251.794 110.608 251.959C112.445 252.894 112.493 250.35 112.107 249.036C111.788 247.936 110.911 245.488 108.634 240.626C107.554 238.336 105.732 235.255 104.48 237.366Z" fill="#EACB92"/>
<path d="M101.941 243.672L103.504 254.4L108.156 254.483L108.626 243.535L101.941 243.672Z" fill="#EACB92"/>
<path d="M103.328 254.4L108.076 254.283C108.076 254.283 109.344 257.564 107.805 263.223C107.638 263.829 106.852 269.475 106.852 269.475C106.852 269.475 102.977 271.414 101.223 269.138C101.052 268.918 100.565 265.816 100.402 264.812C99.7562 260.761 101.694 258.939 103.328 254.4ZM107.339 245.611C107.339 245.611 109.73 245.976 109.73 243.548C109.73 242.262 109.671 243.136 107.693 238.287M110.635 251.959C111.345 253.334 112.23 252.055 112.23 252.055C113.928 249.586 116.715 244.064 117.484 241.74C117.605 241.405 117.709 241.053 117.795 240.688C117.835 240.468 117.824 240.23 117.765 240.023C117.705 239.817 117.602 239.658 117.476 239.58C117.245 239.45 116.575 240.392 116.575 240.392C108.646 249.614 110.137 250.969 110.635 251.959ZM118.549 236.396C118.694 236.034 118.862 235.702 119.051 235.406C119.13 235.06 119.223 234.725 119.33 234.402C119.332 234.113 119.324 233.823 119.306 233.535C119.305 233.445 119.319 233.356 119.347 233.279C119.374 233.202 119.414 233.141 119.462 233.102L119.761 234.698L119.502 235.915L119.238 237.345C119.151 237.398 119.057 237.409 118.966 237.377C118.876 237.344 118.792 237.269 118.724 237.16C118.654 237.078 118.6 236.961 118.568 236.825C118.537 236.688 118.53 236.539 118.549 236.396Z" fill="#EACB92"/>
<path d="M117.7 235.901C117.608 236.135 117.488 236.685 117.421 236.885C117.169 237.655 116.982 239.505 116.854 239.904C116.804 240.007 116.765 240.127 116.743 240.257C116.72 240.387 116.713 240.523 116.721 240.658C116.73 240.793 116.755 240.923 116.795 241.04C116.834 241.158 116.887 241.26 116.95 241.341C117.349 241.919 117.608 241.011 117.608 241.011C117.679 240.759 117.762 240.518 117.855 240.289C118.338 239.391 118.794 238.452 119.222 237.476C119.235 237.314 119.225 237.148 119.193 236.994C119.161 236.84 119.109 236.701 119.039 236.589C118.963 236.485 118.87 236.425 118.772 236.416C118.675 236.408 118.579 236.451 118.497 236.541C118.437 236.651 118.369 236.802 118.25 236.678C118.181 236.578 118.129 236.446 118.102 236.298C118.074 236.149 118.072 235.99 118.094 235.839C118.353 235.021 118.333 234.973 118.226 234.766C118.039 235.129 117.864 235.508 117.7 235.901Z" fill="#EACB92"/>
<path d="M118.433 236.781C118.547 236.38 118.681 235.996 118.832 235.633C118.872 235.265 118.927 234.902 118.995 234.546C118.962 234.263 118.921 233.983 118.872 233.707C118.86 233.619 118.864 233.527 118.881 233.442C118.899 233.357 118.93 233.282 118.971 233.226L119.45 234.691L119.338 235.977L119.242 237.476C119.172 237.571 119.086 237.628 118.997 237.639C118.907 237.65 118.818 237.615 118.74 237.538C118.585 237.363 118.475 237.092 118.433 236.781ZM108.299 239.78C107.829 238.9 106.665 234.037 106.665 234.037L104.05 233.831C104.05 233.831 102.391 236.644 102.156 238.893C102.017 240.436 102.006 242.006 102.124 243.555H108.036C108.036 243.555 108.319 239.821 108.299 239.78Z" fill="#EACB92"/>
<path d="M102.666 237.641C102.666 237.641 101.175 239.67 101.989 243.562C102.463 245.838 104.277 255.026 104.48 255.342C105.895 257.571 106.581 255.342 106.569 253.843C106.569 252.612 106.525 247.159 105.772 243.755C105.138 241.052 104.329 236.685 102.666 237.641Z" fill="#EACB92"/>
<path d="M106.242 221.122C106.669 221.25 107.062 221.607 107.364 222.143C107.667 222.68 107.863 223.367 107.925 224.107C108.181 227.279 108.342 230.472 108.407 233.673L102.028 233.584C102.028 233.584 101.231 219.726 106.242 221.122Z" fill="#004753"/>
<path d="M104.464 230.62L103.902 234.753H106.721V229.65L104.464 230.62Z" fill="#EACB92"/>
<g style="mix-blend-mode:multiply" opacity="0.59">
<path d="M104.628 230.785C104.692 230.826 104.628 233.082 106.757 233.535L106.665 229.767L104.628 230.785Z" fill="#EACB92"/>
</g>
<path d="M107.562 226.927C107.562 229.402 106.792 231.362 105.505 231.362C104.217 231.362 103.472 229.334 103.472 226.851C103.472 224.368 104.229 222.388 105.505 222.388C106.78 222.388 107.562 224.451 107.562 226.927Z" fill="#EACB92"/>
<path d="M104.042 226.453C104.161 226.184 104.879 226.101 105.034 226.453H104.042ZM106.151 226.515C106.386 226.129 107.127 226.246 107.247 226.597L106.151 226.515Z" fill="#004753"/>
<g style="mix-blend-mode:multiply">
<path d="M104.456 227.381C104.54 227.381 104.608 227.264 104.608 227.119C104.608 226.975 104.54 226.858 104.456 226.858C104.373 226.858 104.305 226.975 104.305 227.119C104.305 227.264 104.373 227.381 104.456 227.381Z" fill="#004753"/>
</g>
<g style="mix-blend-mode:multiply">
<path d="M106.613 227.381C106.697 227.381 106.765 227.264 106.765 227.119C106.765 226.975 106.697 226.858 106.613 226.858C106.529 226.858 106.462 226.975 106.462 227.119C106.462 227.264 106.529 227.381 106.613 227.381Z" fill="#004753"/>
</g>
<path d="M104.987 228.722H106.127C106.098 228.956 106.025 229.166 105.919 229.32C105.812 229.473 105.679 229.56 105.541 229.567C105.406 229.56 105.276 229.472 105.175 229.317C105.074 229.163 105.007 228.952 104.987 228.722Z" fill="white"/>
<path d="M103.651 226.597H103.332C103.259 226.597 103.201 226.698 103.201 226.824V228.061C103.201 228.187 103.259 228.288 103.332 228.288H103.651C103.724 228.288 103.783 228.187 103.783 228.061V226.824C103.783 226.698 103.724 226.597 103.651 226.597Z" fill="#EACB92"/>
<path d="M107.61 226.597H107.291C107.218 226.597 107.159 226.698 107.159 226.824V228.061C107.159 228.187 107.218 228.288 107.291 228.288H107.61C107.682 228.288 107.741 228.187 107.741 228.061V226.824C107.741 226.698 107.682 226.597 107.61 226.597Z" fill="#EACB92"/>
<path d="M104.444 222.697C104.444 222.697 104.113 225.586 104.253 225.668C104.393 225.751 106.071 225.751 106.071 225.751C106.071 225.751 106.406 222.697 106.358 223C106.372 223.921 106.42 224.84 106.501 225.751L107.171 225.998C107.171 225.998 107.598 221.219 106.374 221.301C105.15 221.384 104.54 221.549 104.444 222.697Z" fill="#004753"/>
<g style="mix-blend-mode:multiply" opacity="0.59">
<path d="M105.712 226.459V227.773L105.262 227.896C105.262 227.896 105.66 228.584 105.899 228.24C106.139 227.896 105.919 226.548 105.712 226.459ZM103.555 227.064C103.555 227.099 103.507 227.064 103.48 227.064C103.464 227.064 103.449 227.07 103.436 227.084C103.422 227.097 103.411 227.116 103.404 227.14C103.389 227.19 103.378 227.243 103.372 227.298C103.364 227.38 103.364 227.464 103.372 227.546C103.373 227.587 103.38 227.627 103.392 227.662C103.404 227.698 103.42 227.729 103.44 227.752C103.478 227.766 103.517 227.766 103.555 227.752M107.462 227.064C107.489 227.062 107.516 227.075 107.538 227.101C107.56 227.127 107.577 227.165 107.586 227.209C107.604 227.297 107.611 227.391 107.606 227.484C107.606 227.564 107.598 227.643 107.582 227.718C107.572 227.754 107.556 227.784 107.536 227.805C107.516 227.825 107.493 227.836 107.47 227.834C107.463 227.833 107.457 227.828 107.451 227.821C107.445 227.814 107.441 227.804 107.438 227.793" fill="#EACB92"/>
</g>
<path d="M103.675 234.45L102.878 236.066C102.878 236.066 108.295 241.685 107.996 253.169L108.216 253.362C108.216 253.362 109.89 240.117 103.687 234.45" fill="#003333"/>
<path d="M187.456 261.002C187.456 246.409 152.773 242.675 152.773 242.675L77.1644 242.62L75.2707 242.517L74.2861 274.935L78.9145 282.218H184.757C186.416 282.218 187.676 279.893 187.385 277.363L187.066 274.55C187.066 274.55 187.369 261.979 187.464 261.793C188.218 260.5 187.456 261.181 187.456 261.002Z" fill="#2ED1FF"/>
<path d="M105.158 249.916H100.585C100.321 249.916 100.107 250.286 100.107 250.742V251.416C100.107 251.871 100.321 252.241 100.585 252.241H105.158C105.422 252.241 105.636 251.871 105.636 251.416V250.742C105.636 250.286 105.422 249.916 105.158 249.916Z" fill="#054752"/>
<path d="M131.027 249.916H126.454C126.19 249.916 125.976 250.286 125.976 250.742V251.416C125.976 251.871 126.19 252.241 126.454 252.241H131.027C131.291 252.241 131.505 251.871 131.505 251.416V250.742C131.505 250.286 131.291 249.916 131.027 249.916Z" fill="#054752"/>
<path d="M180.105 255.487C180.105 255.487 180.568 263.856 182.242 263.856C185.794 263.856 188.006 264.035 188.006 264.035C188.006 264.035 188.254 257.963 185.12 256.216C183.493 255.4 181.788 255.152 180.105 255.487Z" fill="white"/>
<path opacity="0.45" d="M157.37 281.956H98.4526L97.0294 272.335H159.419L157.37 281.956Z" fill="#054752"/>
<path d="M102.774 283.593H157.37V286.461H102.774V283.593ZM78.1052 283.593H83.3834V286.461H76.9252V285.656C76.9251 285.114 77.049 284.593 77.2698 284.207C77.4907 283.821 77.7908 283.6 78.1052 283.593ZM175.999 283.593H187.121V286.461H175.999V283.593Z" fill="#054752"/>
<path d="M74.306 248.864H81.8805C81.8805 248.864 81.9921 258.004 77.6149 259.352C73.9632 260.48 74.2104 259.496 74.2104 259.496L74.306 248.864Z" fill="white"/>
<path d="M81.6293 244.236H74.5292C74.0911 244.236 73.7359 244.849 73.7359 245.605V246.705C73.7359 247.461 74.0911 248.073 74.5292 248.073H81.6293C82.0674 248.073 82.4226 247.461 82.4226 246.705V245.605C82.4226 244.849 82.0674 244.236 81.6293 244.236Z" fill="#054752"/>
<path d="M103.91 240.536C103.579 240.488 101.658 240.124 99.2299 239.525L98.8313 243.177H122.483L122.428 242.558C116.247 242.136 110.073 241.462 103.91 240.536ZM125.059 242.764L125.099 243.191H131.948C129.743 243.074 127.435 242.929 125.059 242.764Z" fill="#2ED1FF"/>
<path d="M87.2743 233.9C86.9992 232.002 92.9631 219.795 98.4366 219.5C98.6439 219.5 99.2339 219.5 100.127 219.465L100.155 219.204H101.351L101.327 219.445C105.963 219.39 114.969 219.321 120.371 219.3V219.204H122.966V219.293H123.209C138.135 219.293 150.122 240.474 150.122 240.474C150.122 240.474 149.217 242.207 148.735 243.225H155.656C155.656 243.225 154.627 242.049 150.142 234.801C146.674 229.189 136.588 216.322 124.23 216.322C115.459 216.322 89.4031 215.896 89.0802 215.896C85.4444 215.896 84.6631 218.42 85.2491 222.477C85.9348 227.202 75.7292 241.176 75.2468 243.191H97.6553L98.0539 239.243C93.3936 238.019 87.5892 236.073 87.2743 233.9Z" fill="#2ED1FF"/>
<path d="M97.4121 245.536H98.6041L98.8472 243.184L97.6592 243.177L97.4121 245.536ZM101.347 219.204H100.151L100.123 219.465H101.319L101.347 219.204ZM98.0698 239.23L97.6712 243.177H98.8672L99.2658 239.525L98.0698 239.23Z" fill="#2ED1FF"/>
<path d="M100.131 219.465L98.0698 239.23L99.2299 239.525L101.323 219.445L100.131 219.465ZM122.695 245.35H125.29L125.099 243.191H122.503L122.695 245.35ZM122.966 219.204H120.371V219.3H122.966V219.204ZM122.448 242.572L122.503 243.191H125.099L125.059 242.764L122.448 242.572Z" fill="#2ED1FF"/>
<path d="M120.367 219.3L122.448 242.572L125.059 242.764L122.966 219.293L120.367 219.3Z" fill="#2ED1FF"/>
<path d="M184.144 267.013C183.043 267.013 181.018 273.642 181.018 276.792C181.018 279.941 183.043 282.52 184.144 282.52H185.033C185.37 282.521 185.703 282.408 186.015 282.186C186.326 281.964 186.609 281.638 186.848 281.228C187.086 280.817 187.275 280.329 187.404 279.792C187.534 279.255 187.6 278.68 187.6 278.098V272.487C187.6 271.696 187.233 266.985 186.779 266.985L184.144 267.013ZM73.7799 261.731C73.7799 261.731 80.3099 259.524 83.3796 265.713C86.4492 271.902 87.6651 282.128 87.6651 282.128L78.795 282.197C76.3712 282.238 73.752 282.245 73.752 273.711L73.7799 261.731Z" fill="#054752"/>
<path opacity="0.45" d="M187.397 266.469H181.13C180.982 266.469 180.84 266.368 180.735 266.187C180.63 266.007 180.572 265.762 180.572 265.507C180.573 265.252 180.632 265.009 180.736 264.83C180.841 264.651 180.982 264.551 181.13 264.551H187.397M147.395 238.109V251.746C148.11 251.74 148.794 251.248 149.299 250.376C149.804 249.504 150.088 248.323 150.09 247.09V242.758C150.088 241.526 149.804 240.345 149.299 239.474C148.794 238.603 148.11 238.112 147.395 238.109Z" fill="#054752"/>
<path opacity="0.45" d="M149.787 256.326H127.004C126.091 256.326 125.35 257.604 125.35 259.18V261.497C125.35 263.073 126.091 264.351 127.004 264.351H149.787C150.701 264.351 151.442 263.073 151.442 261.497V259.18C151.442 257.604 150.701 256.326 149.787 256.326Z" fill="white"/>
<path opacity="0.45" d="M118.832 256.326H104.01C103.096 256.326 102.355 257.604 102.355 259.18V261.497C102.355 263.073 103.096 264.351 104.01 264.351H118.832C119.746 264.351 120.486 263.073 120.486 261.497V259.18C120.486 257.604 119.746 256.326 118.832 256.326Z" fill="white"/>
<path opacity="0.45" d="M74.7525 251.361C74.9891 251.341 75.2255 251.405 75.4474 251.547C75.6694 251.69 75.8722 251.909 76.0436 252.191C76.2151 252.473 76.3515 252.812 76.4448 253.188C76.538 253.563 76.5861 253.968 76.5861 254.376C76.5861 254.785 76.538 255.189 76.4448 255.565C76.3515 255.94 76.2151 256.279 76.0436 256.561C75.8722 256.843 75.6694 257.062 75.4474 257.205C75.2255 257.348 74.9891 257.411 74.7525 257.392" fill="#054752"/>
<path d="M157.17 282.39C157.222 277.968 158.277 273.758 160.108 270.663C161.939 267.567 164.4 265.834 166.963 265.834C169.527 265.834 171.988 267.567 173.819 270.663C175.65 273.758 176.705 277.968 176.756 282.39" fill="white"/>
<path d="M175.042 282.603C175.04 286.299 174.188 289.842 172.673 292.456C171.158 295.069 169.104 296.539 166.961 296.543C165.363 296.543 163.801 295.725 162.472 294.193C161.143 292.662 160.107 290.484 159.496 287.937C158.884 285.39 158.724 282.587 159.036 279.883C159.348 277.179 160.117 274.696 161.247 272.746C162.378 270.797 163.817 269.469 165.385 268.931C166.952 268.393 168.577 268.669 170.054 269.724C171.53 270.779 172.792 272.566 173.68 274.858C174.568 277.151 175.042 279.846 175.042 282.603Z" fill="#054752"/>
<g style="mix-blend-mode:multiply" opacity="0.49">
<path d="M173.735 290.195C173.132 291.787 172.347 293.149 171.427 294.198C170.508 295.247 169.474 295.96 168.389 296.294C167.304 296.628 166.191 296.575 165.118 296.138C164.045 295.702 163.035 294.891 162.151 293.756C161.267 292.621 160.526 291.186 159.976 289.539C159.425 287.892 159.075 286.068 158.949 284.179C158.822 282.291 158.921 280.377 159.239 278.557C159.557 276.736 160.088 275.047 160.798 273.594L164.9 278.855L169.636 284.968L173.735 290.195Z" fill="#004553"/>
</g>
<path d="M169.963 282.596C169.964 283.62 169.789 284.622 169.459 285.475C169.13 286.327 168.661 286.992 168.113 287.385C167.565 287.778 166.961 287.882 166.378 287.683C165.796 287.483 165.26 286.991 164.84 286.267C164.42 285.543 164.134 284.62 164.018 283.616C163.901 282.611 163.961 281.569 164.188 280.623C164.415 279.676 164.8 278.867 165.293 278.298C165.787 277.728 166.368 277.424 166.961 277.424C167.757 277.424 168.52 277.969 169.083 278.939C169.646 279.908 169.962 281.224 169.963 282.596ZM83.1841 282.39C83.1841 277.908 84.216 273.611 86.0529 270.442C87.8898 267.273 90.3812 265.493 92.979 265.493C95.5768 265.493 98.0682 267.273 99.9051 270.442C101.742 273.611 102.774 277.908 102.774 282.39" fill="white"/>
<path d="M101.04 282.603C101.039 285.358 100.565 288.051 99.677 290.341C98.7892 292.631 97.5277 294.416 96.0521 295.469C94.5764 296.523 92.9528 296.798 91.3864 296.261C89.82 295.723 88.3813 294.396 87.2519 292.448C86.1226 290.5 85.3535 288.018 85.0417 285.316C84.7299 282.614 84.8895 279.813 85.5004 277.267C86.1112 274.722 87.1458 272.546 88.4734 271.014C89.801 269.483 91.362 268.664 92.9591 268.663C94.0226 268.648 95.0772 268.999 96.0615 269.694C97.0457 270.39 97.9399 271.416 98.692 272.713C99.444 274.011 100.039 275.553 100.442 277.251C100.845 278.949 101.048 280.768 101.04 282.603Z" fill="#054752"/>
<g style="mix-blend-mode:multiply" opacity="0.49">
<path d="M99.7522 290.195C99.152 291.797 98.3675 293.17 97.4473 294.228C96.5271 295.287 95.4908 296.008 94.4025 296.347C93.3142 296.686 92.1971 296.637 91.1204 296.201C90.0437 295.766 89.0302 294.954 88.1428 293.815C87.2554 292.677 86.5129 291.236 85.9613 289.583C85.4097 287.929 85.0607 286.098 84.9359 284.202C84.8111 282.307 84.9132 280.387 85.2359 278.562C85.5586 276.738 86.095 275.047 86.8118 273.594L90.918 278.855L95.654 284.968L99.7522 290.195Z" fill="#004553"/>
</g>
<path d="M95.9769 282.596C95.9777 283.62 95.8023 284.622 95.4729 285.475C95.1436 286.327 94.675 286.992 94.1266 287.385C93.5781 287.778 92.9744 287.882 92.3919 287.683C91.8093 287.483 91.274 286.991 90.8538 286.267C90.4336 285.543 90.1473 284.62 90.0311 283.616C89.915 282.611 89.9742 281.569 90.2013 280.623C90.4284 279.676 90.8131 278.867 91.3069 278.298C91.8006 277.728 92.3812 277.424 92.975 277.424C93.3691 277.424 93.7593 277.557 94.1235 277.816C94.4877 278.076 94.8186 278.456 95.0974 278.937C95.3763 279.417 95.5974 279.987 95.7483 280.615C95.8992 281.243 95.9769 281.916 95.9769 282.596Z" fill="white"/>
<path d="M65.1069 221.765H88.6742M60.4725 230.345H84.0399M363.57 186.765H387.137M363.683 232.392H387.25M370.917 209.091H394.484" stroke="white" stroke-miterlimit="10" stroke-linecap="round" stroke-linejoin="round"/>
</g>
<mask id="mask15_12_2" style="mask-type:luminance" maskUnits="userSpaceOnUse" x="0" y="111" width="458" height="335">
<path d="M0 111.5H458V446H0V111.5Z" fill="white"/>
</mask>
<g mask="url(#mask15_12_2)">
<path d="M-244.803 286.598H745.435V315.554H-244.803V286.598Z" fill="#054752"/>
<path d="M-140.078 497.184C-140.078 397.936 -90.2519 317.504 -28.7697 317.504C32.7125 317.504 82.5384 397.936 82.5384 497.184" stroke="#054752" stroke-width="5" stroke-miterlimit="10"/>
<path d="M65.8041 497.184C65.8041 397.936 115.63 317.504 177.112 317.504C238.594 317.504 288.42 397.936 288.42 497.184M290.776 497.184C290.776 397.936 340.602 317.504 402.084 317.504C463.566 317.504 513.392 397.936 513.392 497.184M-259.061 265.15H730.995M26.0038 298.297V265.052M65.8041 298.297V265.052M105.544 298.297V265.052M145.284 298.297V265.052M185.084 298.297V265.052M224.824 298.297V265.052M264.564 298.297V265.052M304.304 298.297V265.052M344.104 298.297V265.052M383.844 298.297V265.052M423.584 298.297V265.052M463.385 298.297V265.052" stroke="#054752" stroke-width="5" stroke-miterlimit="10"/>
<path d="M71.4257 308.729V479.148L58.924 493.284V524.97H106.274V491.724L92.0808 476.418V308.729H71.4257ZM294.042 308.729V479.148L281.54 493.284V524.97H328.95V491.724L314.697 476.418V308.729H294.042Z" fill="#054752"/>
</g>
<defs>
<linearGradient id="paint0_linear_12_2" x1="226.826" y1="374.512" x2="224.66" y2="-4.54461" gradientUnits="userSpaceOnUse">
<stop stop-color="white"/>
<stop offset="0.09" stop-color="#F7FDFF"/>
<stop offset="0.24" stop-color="#E0F8FF"/>
<stop offset="0.42" stop-color="#BCF0FF"/>
<stop offset="0.63" stop-color="#89E5FF"/>
<stop offset="0.86" stop-color="#48D7FF"/>
<stop offset="0.94" stop-color="#2ED1FF"/>
</linearGradient>
</defs>
</svg>
