<svg width="40" height="37" viewBox="0 0 40 37" fill="none" xmlns="http://www.w3.org/2000/svg">
<path d="M19.3856 34.94C19.6467 34.94 19.9144 34.8796 20.1888 34.7587C20.4632 34.6365 20.685 34.4882 20.8542 34.3137L36.4306 18.2538C36.9328 17.7361 37.3198 17.2073 37.5915 16.6676C37.8645 16.1251 38.0011 15.5305 38.0011 14.8836C38.0011 14.2286 37.8645 13.5927 37.5915 12.9761C37.3198 12.3581 36.9328 11.795 36.4306 11.2868L28.9381 3.56177C28.4439 3.04402 27.9358 2.66429 27.4136 2.42258C26.8928 2.18087 26.3147 2.06002 25.6794 2.06002C25.052 2.06002 24.4692 2.18087 23.9311 2.42258C23.393 2.66429 22.8855 3.04402 22.4086 3.56177L20.6703 5.35399L24.3667 9.17944C24.7623 9.58046 25.0573 10.0371 25.2518 10.5494C25.4463 11.0616 25.5442 11.5821 25.5455 12.1109C25.5455 13.1821 25.2058 14.0686 24.5265 14.7703C23.8445 15.4707 22.984 15.8209 21.9451 15.8209C21.4323 15.8209 20.9321 15.7406 20.4446 15.5799C19.9557 15.4192 19.5168 15.1377 19.1279 14.7353L15.3057 10.8089L6.67829 19.702C6.47582 19.9108 6.32397 20.1477 6.22274 20.4127C6.12151 20.6792 6.07089 20.947 6.07089 21.2161C6.07089 21.7023 6.22208 22.1033 6.52444 22.4192C6.82681 22.7351 7.21375 22.893 7.68528 22.893C7.94636 22.893 8.21409 22.8312 8.48848 22.7076C8.76288 22.5867 8.98466 22.4391 9.15382 22.2647L15.4855 15.7365L16.9001 17.195L10.5784 23.7252C10.3759 23.9326 10.2241 24.1688 10.1229 24.4339C10.0216 24.7003 9.97101 24.9681 9.97101 25.2373C9.97101 25.696 10.1288 26.0874 10.4445 26.4115C10.7589 26.737 11.1392 26.8997 11.5854 26.8997C11.8465 26.8997 12.1142 26.8393 12.3886 26.7184C12.663 26.5976 12.8848 26.45 13.0539 26.2755L19.8472 19.2818L21.2598 20.7403L14.4785 27.7443C14.3014 27.9187 14.1562 28.1474 14.0429 28.4303C13.9284 28.7132 13.8711 28.9893 13.8711 29.2585C13.8711 29.7171 14.029 30.1086 14.3446 30.4327C14.659 30.7581 15.0393 30.9209 15.4855 30.9209C15.7466 30.9209 16.0063 30.8687 16.2647 30.7643C16.5218 30.66 16.7516 30.5041 16.954 30.2967L23.7473 23.3029L25.1599 24.7614L18.3666 31.7655C18.1642 31.9742 18.0123 32.2242 17.9111 32.5153C17.8099 32.8079 17.7592 33.0757 17.7592 33.3187C17.7592 33.8049 17.9257 34.197 18.2587 34.495C18.5904 34.793 18.966 34.942 19.3856 34.942V34.94ZM19.3736 37C18.3467 37 17.4675 36.6127 16.7363 35.8381C16.0037 35.0622 15.6826 34.1057 15.7732 32.9685C14.641 32.9823 13.6986 32.6334 12.946 31.9221C12.1921 31.212 11.8345 30.2205 11.8731 28.9474C10.6383 28.9611 9.66598 28.5972 8.95602 27.8556C8.24473 27.114 7.92105 26.1375 7.98499 24.9262C6.87409 24.94 5.94435 24.6172 5.19576 23.958C4.44718 23.3016 4.07288 22.3869 4.07288 21.2141C4.07288 20.6853 4.17278 20.1566 4.37259 19.6279C4.57105 19.0977 4.86409 18.6322 5.25171 18.2312L15.3057 7.87957L20.4645 13.1985C20.6337 13.3812 20.8428 13.5316 21.0919 13.6497C21.3397 13.7664 21.6194 13.8248 21.9311 13.8248C22.36 13.8248 22.7383 13.671 23.066 13.3633C23.3936 13.0557 23.5575 12.6554 23.5575 12.1624C23.5575 11.8396 23.5009 11.5498 23.3876 11.293C23.2731 11.0376 23.1279 10.8227 22.9521 10.6482L16.0789 3.56177C15.5834 3.04402 15.0686 2.66429 14.5345 2.42258C14.0017 2.18087 13.4169 2.06002 12.7802 2.06002C12.1528 2.06002 11.5827 2.18087 11.0699 2.42258C10.5584 2.66429 10.0516 3.04402 9.54943 3.56177L3.46749 9.84483C3.03858 10.2843 2.69226 10.8096 2.42852 11.4207C2.16478 12.0319 2.02492 12.6616 2.00894 13.3098C1.99562 13.7753 2.03425 14.2224 2.12482 14.6509C2.21806 15.0807 2.36459 15.4845 2.56439 15.8621L1.0499 17.4216C0.71423 16.8709 0.451825 16.2357 0.26268 15.5161C0.0722031 14.7951 -0.0150434 14.0603 0.000940686 13.3118C0.0169248 12.3766 0.198744 11.4805 0.546397 10.6235C0.895383 9.76518 1.39355 9.00228 2.04091 8.33484L8.08489 2.10328C8.78152 1.39326 9.51879 0.864522 10.2967 0.517065C11.0746 0.172355 11.9151 0 12.8182 0C13.7239 0 14.5584 0.173042 15.3217 0.519125C16.0862 0.865208 16.8135 1.39326 17.5035 2.10328L19.2418 3.89756L20.984 2.10328C21.6807 1.39326 22.4113 0.864522 23.1758 0.517065C23.9404 0.172355 24.7749 0 25.6794 0C26.5838 0 27.4243 0.173042 28.2008 0.519125C28.9787 0.865208 29.712 1.39326 30.4007 2.10328L37.8432 9.77685C38.5332 10.4869 39.0647 11.2841 39.4376 12.1685C39.8119 13.0543 39.9991 13.9635 39.9991 14.896C39.9991 15.8271 39.8126 16.6868 39.4396 17.4751C39.0654 18.2634 38.5332 19.0133 37.8432 19.7247L22.2668 35.7722C21.8525 36.2007 21.401 36.5125 20.9121 36.7075C20.4246 36.9025 19.9118 37 19.3736 37Z" fill="#708C91"/>
</svg>
