<svg width="40" height="40" viewBox="0 0 40 40" fill="none" xmlns="http://www.w3.org/2000/svg">
<path d="M12 29.5733L20 21.5733L28 29.5733L29.5733 28L21.5733 20L29.5733 12L28 10.4267L20 18.4267L12 10.4267L10.4267 12L18.4267 20L10.4267 28L12 29.5733ZM20.0067 40C17.2422 40 14.6422 39.4756 12.2067 38.4267C9.77259 37.3763 7.65481 35.9511 5.85333 34.1511C4.05185 32.3526 2.62593 30.237 1.57556 27.8044C0.525185 25.3719 0 22.7726 0 20.0067C0 17.2422 0.524444 14.6422 1.57333 12.2067C2.6237 9.77259 4.04889 7.65481 5.84889 5.85333C7.64741 4.05185 9.76296 2.62593 12.1956 1.57556C14.6281 0.525185 17.2274 0 19.9933 0C22.7578 0 25.3578 0.524444 27.7933 1.57333C30.2274 2.6237 32.3452 4.04889 34.1467 5.84889C35.9481 7.64741 37.3741 9.76296 38.4244 12.1956C39.4748 14.6281 40 17.2274 40 19.9933C40 22.7578 39.4756 25.3578 38.4267 27.7933C37.3763 30.2274 35.9511 32.3452 34.1511 34.1467C32.3526 35.9481 30.237 37.3741 27.8044 38.4244C25.3719 39.4748 22.7726 40 20.0067 40ZM20 37.7778C24.963 37.7778 29.1667 36.0556 32.6111 32.6111C36.0556 29.1667 37.7778 24.963 37.7778 20C37.7778 15.037 36.0556 10.8333 32.6111 7.38889C29.1667 3.94444 24.963 2.22222 20 2.22222C15.037 2.22222 10.8333 3.94444 7.38889 7.38889C3.94444 10.8333 2.22222 15.037 2.22222 20C2.22222 24.963 3.94444 29.1667 7.38889 32.6111C10.8333 36.0556 15.037 37.7778 20 37.7778Z" fill="#708C91"/>
</svg>
