<svg width="40" height="40" viewBox="0 0 40 40" fill="none" xmlns="http://www.w3.org/2000/svg">
<path d="M20 40C16.0444 40 12.1776 38.827 8.8886 36.6294C5.59962 34.4318 3.03617 31.3082 1.52242 27.6537C0.00866565 23.9992 -0.387401 19.9778 0.384303 16.0982C1.15601 12.2186 3.06082 8.65492 5.85787 5.85787C8.65492 3.06082 12.2186 1.15601 16.0982 0.384303C19.9778 -0.387401 23.9992 0.00866565 27.6537 1.52242C31.3082 3.03617 34.4318 5.59962 36.6294 8.8886C38.827 12.1776 40 16.0444 40 20C39.9941 25.3025 37.8851 30.3862 34.1357 34.1357C30.3862 37.8851 25.3025 39.9941 20 40ZM20 2.0133C16.4426 2.0133 12.965 3.0682 10.0071 5.0446C7.04923 7.02101 4.74382 9.83015 3.38245 13.1168C2.02108 16.4034 1.66488 20.02 2.35891 23.509C3.05293 26.9981 4.76599 30.203 7.28148 32.7185C9.79697 35.234 13.0019 36.9471 16.491 37.6411C19.9801 38.3351 23.5966 37.9789 26.8832 36.6176C30.1699 35.2562 32.979 32.9508 34.9554 29.9929C36.9318 27.035 37.9867 23.5574 37.9867 20C37.9814 15.2313 36.0847 10.6594 32.7126 7.28737C29.3406 3.91536 24.7687 2.01862 20 2.0133Z" fill="#708C91"/>
<path d="M25.0332 23.02C25.03 24.0869 24.6048 25.1092 23.8504 25.8637C23.0959 26.6181 22.0736 27.0433 21.0067 27.0465V29.0799C21.0067 29.3469 20.9006 29.603 20.7118 29.7918C20.523 29.9805 20.267 30.0866 20 30.0866C19.733 30.0866 19.477 29.9805 19.2882 29.7918C19.0994 29.603 18.9934 29.3469 18.9934 29.0799V27.0465H16.4768C16.2098 27.0465 15.9537 26.9405 15.765 26.7517C15.5762 26.5629 15.4701 26.3069 15.4701 26.0399C15.4701 25.7729 15.5762 25.5169 15.765 25.3281C15.9537 25.1393 16.2098 25.0332 16.4768 25.0332H21.0067C21.5406 25.0332 22.0527 24.8211 22.4303 24.4436C22.8078 24.066 23.0199 23.5539 23.0199 23.02C23.0199 22.486 22.8078 21.9739 22.4303 21.5963C22.0527 21.2188 21.5406 21.0067 21.0067 21.0067H18.9934C17.9255 21.0067 16.9013 20.5824 16.1462 19.8273C15.391 19.0722 14.9668 18.048 14.9668 16.9801C14.9668 15.9122 15.391 14.888 16.1462 14.1329C16.9013 13.3777 17.9255 12.9535 18.9934 12.9535V10.9201C18.9934 10.6531 19.0994 10.3971 19.2882 10.2083C19.477 10.0195 19.733 9.91345 20 9.91345C20.267 9.91345 20.523 10.0195 20.7118 10.2083C20.9006 10.3971 21.0067 10.6531 21.0067 10.9201V12.9535H23.5233C23.7902 12.9535 24.0463 13.0596 24.2351 13.2484C24.4239 13.4371 24.5299 13.6932 24.5299 13.9602C24.5299 14.2271 24.4239 14.4832 24.2351 14.672C24.0463 14.8607 23.7902 14.9668 23.5233 14.9668H18.9934C18.4594 14.9668 17.9473 15.1789 17.5698 15.5565C17.1922 15.934 16.9801 16.4461 16.9801 16.9801C16.9801 17.514 17.1922 18.0261 17.5698 18.4037C17.9473 18.7813 18.4594 18.9934 18.9934 18.9934H21.0067C22.0736 18.9966 23.0959 19.4218 23.8504 20.1763C24.6048 20.9307 25.03 21.953 25.0332 23.02Z" fill="#708C91"/>
</svg>
