<svg width="40" height="40" viewBox="0 0 40 40" fill="none" xmlns="http://www.w3.org/2000/svg">
<path d="M20 0C25.3043 0 30.3914 2.10714 34.1421 5.85786C37.8929 9.60859 40 14.6957 40 20C40 25.3043 37.8929 30.3914 34.1421 34.1421C30.3914 37.8929 25.3043 40 20 40C14.6957 40 9.60859 37.8929 5.85786 34.1421C2.10714 30.3914 0 25.3043 0 20C0 14.6957 2.10714 9.60859 5.85786 5.85786C9.60859 2.10714 14.6957 0 20 0ZM20 2.10526C15.254 2.10526 10.7024 3.9906 7.34651 7.34651C3.9906 10.7024 2.10526 15.254 2.10526 20C2.10526 24.746 3.9906 29.2976 7.34651 32.6535C10.7024 36.0094 15.254 37.8947 20 37.8947C22.35 37.8947 24.6769 37.4319 26.848 36.5326C29.0191 35.6333 30.9918 34.3152 32.6535 32.6535C34.3152 30.9918 35.6333 29.0191 36.5326 26.848C37.4319 24.6769 37.8947 22.35 37.8947 20C37.8947 15.254 36.0094 10.7024 32.6535 7.34651C29.2976 3.9906 24.746 2.10526 20 2.10526ZM18.9474 8.42105H21.0526V19.8316L30.9474 25.5368L29.8947 27.3684L18.9474 21.0526V8.42105Z" fill="#708C91"/>
</svg>
